<svg xmlns="http://www.w3.org/2000/svg" height="32" width="28" viewBox="0 0 3111.1133 3555.5591"><title>SVG Picture created as qeda-test.svg date 2017/01/26 00:51:14</title><desc>Picture generated by Eeschema-SVG</desc><rect rx="0" height="800" width="2000" y="20600" x="33500" fill-opacity=".6" transform="translate(-32970 -19275)" fill="#ffffc2"/><g stroke-linejoin="round" stroke-linecap="round" fill-opacity="0" fill="none"><g stroke="#840000" stroke-width="120" transform="translate(-32970 -19275)"><rect rx="0" height="800" width="2000" y="20600" x="33500"/><path d="M33700 21800l1600-1600m-200-200l400 400"/></g><path d="M530 1725H30m2500 0h500" stroke="#840000" stroke-width="60"/><path d="M1470 605l-160-240m-120 240V105h190l50 20 20 20 20 50v70l-20 50-20 20-50 30h-190m570 190l20 20-20 30-20-30 20-20v50m-90-480l40-20h120l50 20 20 50v50l-20 40-20 30-50 20-30 20-20 50v30M230 3025h190m-120-160v420l20 50 50 30h50m170 0v-340m0 100l20-50 30-20 40-30h50m170 340v-340m0-160l-20 20 20 20 20-20-20-20v40m240 460v-340m0 50l20-20 50-30h70l50 30 20 40v270m0-270l30-40 40-30h80l40 30 30 40v270m240-340v500m0-470l50-30h90l50 30 20 20 30 50v140l-30 50-20 20-50 30h-90l-50-30m520 30l-50-30-20-20-20-50v-140l20-50 20-20 50-30h70l50 30 20 20 30 50v140l-30 50-20 20-50 30h-70m310-340h190m-120-160v420l20 50 50 30h50" stroke="#008484" stroke-width="60"/></g></svg>