<svg xmlns="http://www.w3.org/2000/svg" width="21" height="30" viewBox="0 0 2333.335 3333.3366"><title>SVG Picture created as qeda-test.sch.svg date 2017/01/21 16:48:18</title><desc>Picture generated by Eeschema-SVG</desc><path d="M989.98 863.343v1600m300-1600v1600" fill="none" stroke="#840000" stroke-width="120" stroke-linecap="round" stroke-linejoin="round"/><path d="M989.98 1663.343h-850m1150 0h850" fill="none" stroke="#840000" stroke-width="60" stroke-linecap="round" stroke-linejoin="round"/><path d="M1079.98 493.343l-20 20-70 30h-50l-70-30-50-50-20-40-20-100v-70l20-90 20-50 50-50 70-20h50l70 20 20 20m290 410l20 20-20 30-20-30 20-20v50m-90-480l40-20h120l50 20 20 50v50l-20 40-20 30-50 20-30 20-20 50v30m-1040 2900l-20 20-70 30h-50l-70-30-50-50-20-40-20-100v-70l20-90 20-50 50-50 70-20h50l70 20 20 20m310-40h50l50 20 20 20 30 50 20 100v120l-20 90-30 50-20 20-50 30h-50l-40-30-30-20-20-50-20-90v-120l20-100 20-50 30-20 40-20m600 0h-90l-50 20-20 20-50 80-20 90v190l20 50 20 20 50 30h100l40-30 30-20 20-50v-120l-20-50-30-20-40-20h-100l-50 20-20 20-20 50m590-280h50l50 20 20 20 30 50 20 100v120l-20 90-30 50-20 20-50 30h-50l-40-30-30-20-20-50-20-90v-120l20-100 20-50 30-20 40-20m340 0h310l-170 190h80l40 20 30 20 20 50v120l-20 50-30 20-40 30h-150l-40-30-30-20" fill="none" stroke="#008484" stroke-width="60" stroke-linecap="round" stroke-linejoin="round"/></svg>