<svg xmlns="http://www.w3.org/2000/svg" width="30" height="32" viewBox="0 0 3333.3357 3555.5591"><title>SVG Picture created as qeda-test.svg date 2017/01/21 17:17:45</title><desc>Picture generated by Eeschema-SVG</desc><path d="M2023.622 924.838a1800 1800 0 0 0 0 1600.6" fill="none" stroke="#840000" stroke-width="120" stroke-linecap="round" stroke-linejoin="round"/><path d="M935.922 1325.138h400m-200-200v400" fill="none" stroke="#840000" stroke-width="40" stroke-linecap="round" stroke-linejoin="round"/><path fill="none" d="M1535.922 925.138v1600" stroke="#840000" stroke-width="120" stroke-linecap="round" stroke-linejoin="round"/><path d="M1535.922 1725.138h-850m1150 0h850" fill="none" stroke="#840000" stroke-width="60" stroke-linecap="round" stroke-linejoin="round"/><g fill="none" fill-opacity="0" stroke="#008484" stroke-width="60" stroke-linecap="round" stroke-linejoin="round"><path d="M1625.922 555.138l-20 20-70 30h-50l-70-30-50-50-20-40-20-100v-70l20-90 20-50 50-50 70-20h50l70 20 20 20m290 410l20 20-20 30-20-30 20-20v50m-90-480l40-20h120l50 20 20 50v50l-20 40-20 30-50 20-30 20-20 50v30m-1830 2610v500m0-470l50-30h90l50 30 20 20 30 50v140l-30 50-20 20-50 30h-90l-50-30m520 30l-50-30-20-20-20-50v-140l20-50 20-20 50-30h70l50 30 20 20 30 50v140l-30 50-20 20-50 30h-70m450 0l-50-30-20-50v-420m470 500v-270l-20-40-50-30h-90l-50 30"/><path d="M1455.922 3335.138l-40 30h-120l-50-30-20-50v-40l20-50 50-20h120l40-30m240 220v-340m0 100l20-50 30-20 40-30h50m170 340v-340m0-160l-20 20 20 20 20-20-20-20v40m190 120h260l-260 340h260m380-30l-50 30h-90l-50-30-20-50v-190l20-40 50-30h90l50 30 20 40v50l-230 50m660 170v-500m0 470l-40 30h-100l-50-30-20-20-20-50v-140l20-50 20-20 50-30h100l40 30"/></g></svg>