<svg xmlns="http://www.w3.org/2000/svg" width="30" height="26" viewBox="0 0 3333.3357 2888.8918"><title>SVG Picture created as qeda-test.svg date 2017/01/22 09:09:53</title><desc>Picture generated by Eeschema-SVG</desc><path fill-rule="evenodd" d="M1139.983 1018.471l800 500-800 500v-1000" fill="#ffffc2" fill-opacity=".6"/><path d="M1139.983 1018.471l800 500-800 500v-1000m800 0v1000m100-1300l600-600m-300 900l600-600" fill="none" stroke="#840000" stroke-width="120" stroke-linecap="round" stroke-linejoin="round"/><path d="M2269.983 348.471l370-230-230 370m160 160l370-230-230 370" fill="#840000" stroke="#840000" stroke-width="120" stroke-linecap="round" stroke-linejoin="round" fill-rule="evenodd"/><path d="M1939.983 1518.471h600m-1400 0h-600" fill="none" stroke="#840000" stroke-width="60" stroke-linecap="round" stroke-linejoin="round"/><path d="M1199.983 698.471v-500h120l70 20 50 50 20 50 20 90v70l-20 100-20 40-50 50-70 30h-120m570-50l20 20-20 30-20-30 20-20v50m-90-480l40-20h120l50 20 20 50v50l-20 40-20 30-50 20-30 20-20 50v30m-1500 2350h-240v-500m400 230h170m70 270h-240v-500h240m210 500v-500h120l70 20 50 50 20 50 20 90v70l-20 100-20 40-50 50-70 30h-120m590-500h50l50 20 20 20 30 50 20 100v120l-20 90-30 50-20 20-50 30h-50l-40-30-30-20-20-50-20-90v-120l20-100 20-50 30-20 40-20m600 0h-90l-50 20-20 20-50 80-20 90v190l20 50 20 20 50 30h100l40-30 30-20 20-50v-120l-20-50-30-20-40-20h-100l-50 20-20 20-20 50m590-280h50l50 20 20 20 30 50 20 100v120l-20 90-30 50-20 20-50 30h-50l-40-30-30-20-20-50-20-90v-120l20-100 20-50 30-20 40-20m340 0h310l-170 190h80l40 20 30 20 20 50v120l-20 50-30 20-40 30h-150l-40-30-30-20" fill="none" stroke="#008484" stroke-width="60" stroke-linecap="round" stroke-linejoin="round"/></svg>