<svg xmlns="http://www.w3.org/2000/svg" width="46" height="55" viewBox="0 0 5111.1147 6111.1172"><title>SVG Picture created as qeda-test.svg date 2017/01/22 01:15:05</title><desc>Picture generated by Eeschema-SVG</desc><circle cx="60000" cy="22500" r="1500" transform="translate(-56469.593 -19419.304)" fill="#ffffc2"/><g transform="translate(-56469.593 -19419.304)" fill="none" fill-opacity="0" stroke="#840000" stroke-width="120" stroke-linecap="round" stroke-linejoin="round"><circle cx="60000" cy="22500" r="1500"/><path d="M58500 23500h830m0-2000v2000m300-270h1870m-1870-260v530m0-1000h750m-750-270v540m0-1000h1870m-1870-270v530m750 470v730m300-570h370m-190 0v570m0-1460v570m640 890v270m0-1730v-270"/></g><path fill-rule="evenodd" d="M3530.407 3230.696l380-150-380-150" fill="#840000" stroke="#840000" stroke-width="120" stroke-linecap="round" stroke-linejoin="round"/><path fill="none" d="M4210.407 2920.696h370l-190 320-180-320" stroke="#840000" stroke-width="120" stroke-linecap="round" stroke-linejoin="round"/><path d="M2030.407 4080.696h-2000m1140-120h-280m140 0v-500l-50 70-50 50-40 20m4140 480v2000m-620-830v-310l190 170v-80l20-40 20-30 50-20h120l50 20 20 30 30 40v150l-30 40-20 30m170-3170v-2000m-460 910h340m-530 120l360 110v-300" fill="none" stroke="#840000" stroke-width="60" stroke-linecap="round" stroke-linejoin="round"/><path d="M3040.407 760.696l160 500 170-500m100 0h280m-140 500v-500m380 450l20 20-20 30-20-30 20-20v50m-90-480l40-20h120l50 20 20 50v50l-20 40-20 30-50 20-30 20-20 50v30m-2730 4010v500m0-470l50-30h90l50 30 20 20 30 50v140l-30 50-20 20-50 30h-90l-50-30m470 0v30l-20 40-20 30m850-70v-500m0 470l-40 30h-100l-50-30-20-20-20-50v-140l20-50 20-20 50-30h100l40 30m240 310v-340m0-160l-20 20 20 20 20-20-20-20v40m310 460l-50-30-20-20-20-50v-140l20-50 20-20 50-30h70l50 30 20 20 30 50v140l-30 50-20 20-50 30h-70m590 0v-500m0 470l-40 30h-100l-50-30-20-20-20-50v-140l20-50 20-20 50-30h100l40 30m430 280l-50 30h-90l-50-30-20-50v-190l20-40 50-30h90l50 30 20 40v50l-230 50" fill="none" stroke="#008484" stroke-width="60" stroke-linecap="round" stroke-linejoin="round"/></svg>