<svg xmlns="http://www.w3.org/2000/svg" width="55" height="55" viewBox="0 0 6111.1154 6111.1172"><title>SVG Picture created as qeda-test.svg date 2017/01/22 01:53:51</title><desc>Picture generated by Eeschema-SVG</desc><circle cx="47000" cy="42500" r="1500" transform="translate(-43469.593 -39419.304)" fill="#ffffc2"/><g transform="translate(-43469.593 -39419.304)" fill="none" fill-opacity="0" stroke="#840000" stroke-width="120" stroke-linecap="round" stroke-linejoin="round"><circle cx="47000" cy="42500" r="1500"/><path d="M45500 43500h830m0-2000v2000m300-270h1870m-1870-260v530m0-1000h750m-750-270v540m0-1000h1870m-1870-270v530m750 470v730m300-890h370m-190 320v570m0-1460v570m640 890v270m0-1730v-270m0 0h1000"/></g><path fill-rule="evenodd" d="M3160.407 3080.696l370 150v-300" fill="#840000" stroke="#840000" stroke-width="120" stroke-linecap="round" stroke-linejoin="round"/><path fill="none" d="M4210.407 3240.696h370l-190-320-180 320" stroke="#840000" stroke-width="120" stroke-linecap="round" stroke-linejoin="round"/><path d="M2030.407 4080.696h-2000m1140-120h-280m140 0v-500l-50 70-50 50-40 20m4140-1520v-2000m-580 1140l-20-20-20-50v-120l20-40 20-30 50-20h50l70 20 290 290v-310m120 3140v2000m-620-830v-310l190 170v-80l20-40 20-30 50-20h120l50 20 20 30 30 40v150l-30 40-20 30m1170-3170v-2000m-460 910h340m-530 120l360 110v-300" fill="none" stroke="#840000" stroke-width="60" stroke-linecap="round" stroke-linejoin="round"/><path d="M3040.407 760.696l160 500 170-500m100 0h280m-140 500v-500m380 450l20 20-20 30-20-30 20-20v50m-90-480l40-20h120l50 20 20 50v50l-20 40-20 30-50 20-30 20-20 50v30m-3170 4350v-500m520 500l-160-240m-120 240v-500h190l50 20 20 20 20 50v70l-20 50-20 20-50 30h-190m670-30h-170m0 270v-500h240m430 500h-240v-500m490 0h50l50 20 20 20 30 50 20 100v120l-20 90-30 50-20 20-50 30h-50l-40-30-30-20-20-50-20-90v-120l20-100 20-50 30-20 40-20m650 500h-280m140 0v-500l-50 70-50 50-40 20m710 20v340m-120-530l-110 360h300m200 170v-500l280 500v-500" fill="none" stroke="#008484" stroke-width="60" stroke-linecap="round" stroke-linejoin="round"/></svg>