<svg xmlns="http://www.w3.org/2000/svg" width="46" height="55" viewBox="0 0 5111.1147 6111.1172"><title>SVG Picture created as qeda-test.svg date 2017/01/22 01:16:04</title><desc>Picture generated by Eeschema-SVG</desc><circle cx="55500" cy="27000" r="1500" transform="translate(-51969.593 -23919.304)" fill="#ffffc2"/><g transform="translate(-51969.593 -23919.304)" fill="none" fill-opacity="0" stroke="#840000" stroke-width="120" stroke-linecap="round" stroke-linejoin="round"><circle cx="55500" cy="27000" r="1500"/><path d="M54000 28000h1500m0-270h1500m-1500-1460h1500m-1500-270v2000m1500-270v270m0-1730v-270"/></g><path fill-rule="evenodd" d="M2780.407 4080.696l380 150v-300" fill="#840000" stroke="#840000" stroke-width="120" stroke-linecap="round" stroke-linejoin="round"/><path d="M2030.407 4080.696h-2000m1140-120h-280m140 0v-500l-50 70-50 50-40 20m4140 480v2000m-620-830v-310l190 170v-80l20-40 20-30 50-20h120l50 20 20 30 30 40v150l-30 40-20 30m170-3170v-2000m-460 910h340m-530 120l360 110v-300" fill="none" stroke="#840000" stroke-width="60" stroke-linecap="round" stroke-linejoin="round"/><path d="M3040.407 760.696l160 500 170-500m100 0h280m-140 500v-500m380 450l20 20-20 30-20-30 20-20v50m-90-480l40-20h120l50 20 20 50v50l-20 40-20 30-50 20-30 20-20 50v30m-1960 4010v500m0-470l50-30h90l50 30 20 20 30 50v140l-30 50-20 20-50 30h-90l-50-30m470 0v30l-20 40-20 30m640-410v430l-20 50-50 20h-30m100-660l-20 20 20 20 20-20-20-20v40m170 120h190m-120 340v-430l20-50 50-20h50m360 470l-50 30h-90l-50-30-20-50v-190l20-40 50-30h90l50 30 20 40v50l-230 50m380-170h190m-120-160v420l20 50 50 30h50" fill="none" stroke="#008484" stroke-width="60" stroke-linecap="round" stroke-linejoin="round"/></svg>