<svg xmlns="http://www.w3.org/2000/svg" width="46" height="55" viewBox="0 0 5111.1147 6111.1171"><title>SVG Picture created as qeda-test.svg date 2017/01/22 01:12:52</title><desc>Picture generated by Eeschema-SVG</desc><circle cx="45500" cy="36000" r="1500" transform="translate(-41969.593 -32919.291)" fill="#ffffc2"/><g transform="translate(-41969.593 -32919.291)" fill="none" fill-opacity="0" stroke="#840000" stroke-width="120" stroke-linecap="round" stroke-linejoin="round"><circle cx="45500" cy="36000" r="1500"/><path d="M44000 37000h1200m0-2000v2000m300-270h1500m-1500-260v530m0-1000h750m-750-270v540m0-1000h1500m-1500-270v530m750 470v730m750 0v270m0-1730v-270"/></g><path fill-rule="evenodd" d="M3530.407 3080.709l380 150v-300" fill="#840000" stroke="#840000" stroke-width="120" stroke-linecap="round" stroke-linejoin="round"/><path d="M2030.407 4080.709h-2000m1140-120h-280m140 0v-500l-50 70-50 50-40 20m4140 480v2000m-620-830v-310l190 170v-80l20-40 20-30 50-20h120l50 20 20 30 30 40v150l-30 40-20 30m170-3170v-2000m-460 910h340m-530 120l360 110v-300" fill="none" stroke="#840000" stroke-width="60" stroke-linecap="round" stroke-linejoin="round"/><path d="M3040.407 760.709l160 500 170-500m100 0h280m-140 500v-500m380 450l20 20-20 30-20-30 20-20v50m-90-480l40-20h120l50 20 20 50v50l-20 40-20 30-50 20-30 20-20 50v30m-90 4010v340m0-290l20-20 50-30h70l50 30 20 40v270" fill="none" stroke="#008484" stroke-width="60" stroke-linecap="round" stroke-linejoin="round"/></svg>