<svg xmlns:rdf="http://www.w3.org/1999/02/22-rdf-syntax-ns#" xmlns="http://www.w3.org/2000/svg" height="49" width="78" version="1.1" xmlns:cc="http://creativecommons.org/ns#" xmlns:dc="http://purl.org/dc/elements/1.1/" viewBox="0 0 8666.6727 5444.4498">
 <title>SVG Picture created as qeda-test.svg date 2017/01/28 08:30:11</title>
 <desc>Picture generated by Eeschema-SVG</desc>
 <g fill-opacity=".6" transform="translate(-23710 -29626)" stroke-width="0" fill="#ffffc2">
  <rect rx="0" height="2e3" width="4e3" y="30500" x="26000"/>
 </g>
 <g stroke-linejoin="round" fill-opacity="0" transform="translate(-23710 -29626)" stroke="#840000" stroke-linecap="round" stroke-width="120">
  <rect rx="0" height="2e3" width="4e3" y="30500" x="26000"/>
 </g>
 <g fill-opacity=".6" transform="translate(-23710 -29626)" stroke-width="0" fill="#ffffc2">
  <polyline points="26600 31000 27400 31500 26600 32000 26600 31000" fill-rule="evenodd"/>
 </g>
 <g stroke-linejoin="round" fill-opacity="0" transform="translate(-23710 -29626)" stroke="#840000" stroke-linecap="round" stroke-width="120">
  <polyline points="26600 31000 27400 31500 26600 32000 26600 31000" fill="none;"/>
 </g>
 <g fill-opacity=".6" transform="translate(-23710 -29626)" stroke-width="0" fill="#ffffc2">
  <polyline points="28600 31000 29400 31500 28600 32000 28600 31000" fill-rule="evenodd"/>
 </g>
 <g stroke-linejoin="round" fill-opacity="0" transform="translate(-23710 -29626)" stroke="#840000" stroke-linecap="round" stroke-width="120">
  <polyline points="28600 31000 29400 31500 28600 32000 28600 31000" fill="none;"/>
 </g>
 <g stroke-linejoin="round" transform="translate(-23710 -29626)" stroke="#840000" stroke-linecap="round" stroke-width="120" fill="#840000">
  <circle cy="31500" cx="28000" r="120"/>
 </g>
 <g stroke-linejoin="round" stroke-linecap="round" fill-opacity="0">
  <g transform="translate(-23710 -29626)" stroke="#840000" stroke-width="120" fill="none;">
   <polyline points="26000 31500 26600 31500"/>
   <polyline points="27400 31500 28600 31500"/>
   <polyline points="27400 31000 27400 32000"/>
   <polyline points="28000 31500 28000 32500"/>
   <polyline points="29400 31500 3e4 31500"/>
   <polyline points="29400 31000 29400 32000"/>
  </g>
  <g stroke-width="60">
   <g transform="translate(-23710 -29626)" stroke="#840000">
    <path d="m26000 31500h-1e3"/>
    <path d="m25640 31380h-280"/>
    <path d="m25500 31380v-500l-50 70-50 50-40 20"/>
    <path d="m3e4 31500h1e3"/>
    <path d="m30360 30920 20-20 50-20h120l40 20 30 20 20 50v50l-20 70-290 290h310"/>
    <path d="m28000 32500v1e3"/>
    <path d="m27380 33170v-310l190 170v-80l20-40 20-30 50-20h120l50 20 20 30 30 40v150l-30 40-20 30"/>
   </g>
   <g transform="translate(-23710 -29626)" stroke="#008484">
    <path d="m27660 30180v-500h120l70 20 50 50 20 50 20 90v70l-20 100-20 40-50 50-70 30h-120"/>
    <path d="m28230 30130 20 20-20 30-20-30 20-20v50"/>
    <path d="m28140 29700 40-20h120l50 20 20 50v50l-20 40-20 30-50 20-30 20-20 50v30"/>
   </g>
   <g transform="translate(-23710 -29626)" stroke="#840084">
    <path d="m23830 31730h480"/>
    <path d="m23740 32010 330-1e3 330 1e3"/>
    <path d="m32310 31920-50 40-140 50h-100l-140-50-90-90-50-100-50-190v-140l50-190 50-90 90-100 140-50h100l140 50 50 50"/>
    <path d="m27880 34950-50 40-140 50h-100l-140-50-90-90-50-100-50-190v-140l50-190 50-90 90-100 140-50h100l140 50 50 50"/>
    <path d="m28260 34760h480"/>
    <path d="m28170 35040 330-1e3 330 1e3"/>
   </g>
  </g>
 </g>
</svg>
