<svg xmlns:rdf="http://www.w3.org/1999/02/22-rdf-syntax-ns#" xmlns="http://www.w3.org/2000/svg" height="49" width="112" version="1.1" xmlns:cc="http://creativecommons.org/ns#" xmlns:dc="http://purl.org/dc/elements/1.1/" viewBox="0 0 12444.453 5444.4498">
 <title>SVG Picture created as qeda-test.svg date 2017/01/28 09:02:14</title>
 <desc>Picture generated by Eeschema-SVG</desc>
 <g fill-opacity=".6" transform="translate(-21760 -29626)" stroke-width="0" fill="#ffffc2">
  <rect rx="0" height="2e3" width="6e3" y="30500" x="25000"/>
 </g>
 <g stroke-linejoin="round" fill-opacity="0" transform="translate(-21760 -29626)" stroke="#840000" stroke-linecap="round" stroke-width="120">
  <rect rx="0" height="2e3" width="6e3" y="30500" x="25000"/>
 </g>
 <g fill-opacity=".6" transform="translate(-21760 -29626)" stroke-width="0" fill="#ffffc2">
  <polyline points="25700 31000 26500 31500 25700 32000 25700 31000" fill-rule="evenodd"/>
 </g>
 <g stroke-linejoin="round" fill-opacity="0" transform="translate(-21760 -29626)" stroke="#840000" stroke-linecap="round" stroke-width="120">
  <polyline points="25700 31000 26500 31500 25700 32000 25700 31000" fill="none;"/>
 </g>
 <g fill-opacity=".6" transform="translate(-21760 -29626)" stroke-width="0" fill="#ffffc2">
  <polyline points="27300 31000 26500 31500 27300 32000 27300 31000" fill-rule="evenodd"/>
 </g>
 <g stroke-linejoin="round" fill-opacity="0" transform="translate(-21760 -29626)" stroke="#840000" stroke-linecap="round" stroke-width="120">
  <polyline points="27300 31000 26500 31500 27300 32000 27300 31000" fill="none;"/>
 </g>
 <g fill-opacity=".6" transform="translate(-21760 -29626)" stroke-width="0" fill="#ffffc2">
  <polyline points="28700 31000 29500 31500 28700 32000 28700 31000" fill-rule="evenodd"/>
 </g>
 <g stroke-linejoin="round" fill-opacity="0" transform="translate(-21760 -29626)" stroke="#840000" stroke-linecap="round" stroke-width="120">
  <polyline points="28700 31000 29500 31500 28700 32000 28700 31000" fill="none;"/>
 </g>
 <g fill-opacity=".6" transform="translate(-21760 -29626)" stroke-width="0" fill="#ffffc2">
  <polyline points="30300 31000 29500 31500 30300 32000 30300 31000" fill-rule="evenodd"/>
 </g>
 <g stroke-linejoin="round" fill-opacity="0" transform="translate(-21760 -29626)" stroke="#840000" stroke-linecap="round" stroke-width="120">
  <polyline points="30300 31000 29500 31500 30300 32000 30300 31000" fill="none;"/>
 </g>
 <g stroke-linejoin="round" transform="translate(-21760 -29626)" stroke="#840000" stroke-linecap="round" stroke-width="120" fill="#840000">
  <circle cy="31500" cx="28000" r="120"/>
 </g>
 <g stroke-linejoin="round" stroke-linecap="round" fill-opacity="0">
  <g transform="translate(-21760 -29626)" stroke="#840000" stroke-width="120" fill="none;">
   <polyline points="25000 31500 25700 31500"/>
   <polyline points="26500 32000 26700 32200"/>
   <polyline points="26500 31000 26300 30800"/>
   <polyline points="26500 31000 26500 32000"/>
   <polyline points="27300 31500 28700 31500"/>
   <polyline points="28000 31500 28000 32500"/>
   <polyline points="29500 32000 29700 32200"/>
   <polyline points="29500 31000 29300 30800"/>
   <polyline points="29500 31000 29500 32000"/>
   <polyline points="30300 31500 31000 31500"/>
  </g>
  <g stroke-width="60">
   <g transform="translate(-21760 -29626)" stroke="#840000">
    <path d="m25000 31500h-1e3"/>
    <path d="m24640 31380h-280"/>
    <path d="m24500 31380v-500l-50 70-50 50-40 20"/>
    <path d="m31000 31500h1e3"/>
    <path d="m31360 30920 20-20 50-20h120l40 20 30 20 20 50v50l-20 70-290 290h310"/>
    <path d="m28000 32500v1e3"/>
    <path d="m27380 33170v-310l190 170v-80l20-40 20-30 50-20h120l50 20 20 30 30 40v150l-30 40-20 30"/>
   </g>
   <g transform="translate(-21760 -29626)" stroke="#008484">
    <path d="m27660 30180v-500h120l70 20 50 50 20 50 20 90v70l-20 100-20 40-50 50-70 30h-120"/>
    <path d="m28230 30130 20 20-20 30-20-30 20-20v50"/>
    <path d="m28140 29700 40-20h120l50 20 20 50v50l-20 40-20 30-50 20-30 20-20 50v30"/>
   </g>
   <g transform="translate(-21760 -29626)" stroke="#840084">
    <path d="m21880 31730h480"/>
    <path d="m21790 32010 330-1e3 330 1e3"/>
    <path d="m23310 32010h-570"/>
    <path d="m23030 32010v-1e3l-100 150-90 90-100 50"/>
    <path d="m32690 31730h480"/>
    <path d="m32600 32010 330-1e3 330 1e3"/>
    <path d="m33550 31110 50-50 90-50h240l100 50 40 50 50 90v100l-50 140-570 570h620"/>
    <path d="m27290 34760h480"/>
    <path d="m27200 35040 330-1e3 330 1e3"/>
    <path d="m28100 34040h620l-330 380h140l100 50 40 50 50 90v240l-50 100-40 40-100 50h-280l-100-50-50-40"/>
   </g>
  </g>
 </g>
</svg>
