<svg xmlns="http://www.w3.org/2000/svg" height="49" width="112" viewBox="0 0 12444.453 5444.4498"><title>SVG Picture created as qeda-test.svg date 2017/01/28 09:02:14</title><desc>Picture generated by Eeschema-SVG</desc><rect rx="0" height="2000" width="6000" y="30500" x="25000" fill-opacity=".6" transform="translate(-21760 -29626)" fill="#ffffc2"/><rect rx="0" height="2000" width="6000" y="30500" x="25000" fill="none" stroke-linejoin="round" transform="translate(-21760 -29626)" stroke="#840000" stroke-linecap="round" stroke-width="120"/><path fill-rule="evenodd" d="M3940 1374l800 500-800 500V1374" fill-opacity=".6" fill="#ffffc2"/><path fill="none" d="M3940 1374l800 500-800 500V1374" stroke-linejoin="round" stroke="#840000" stroke-linecap="round" stroke-width="120"/><path fill-rule="evenodd" d="M5540 1374l-800 500 800 500V1374" fill-opacity=".6" fill="#ffffc2"/><path fill="none" d="M5540 1374l-800 500 800 500V1374" stroke-linejoin="round" stroke="#840000" stroke-linecap="round" stroke-width="120"/><path fill-rule="evenodd" d="M6940 1374l800 500-800 500V1374" fill-opacity=".6" fill="#ffffc2"/><path fill="none" d="M6940 1374l800 500-800 500V1374" stroke-linejoin="round" stroke="#840000" stroke-linecap="round" stroke-width="120"/><path fill-rule="evenodd" d="M8540 1374l-800 500 800 500V1374" fill-opacity=".6" fill="#ffffc2"/><path fill="none" d="M8540 1374l-800 500 800 500V1374" stroke-linejoin="round" stroke="#840000" stroke-linecap="round" stroke-width="120"/><circle cy="31500" cx="28000" r="120" stroke-linejoin="round" transform="translate(-21760 -29626)" stroke="#840000" stroke-linecap="round" stroke-width="120" fill="#840000"/><g stroke-linejoin="round" stroke-linecap="round" fill-opacity="0" fill="none"><path d="M3240 1874h700m800 500l200 200m-200-1200l-200-200m200 200v1000m800-500h1400m-700 0v1000m1500-500l200 200m-200-1200l-200-200m200 200v1000m800-500h700" stroke="#840000" stroke-width="120"/><g stroke-width="60"><path d="M3240 1874H2240m640-120h-280m140 0v-500l-50 70-50 50-40 20m6640 480h1000m-640-580l20-20 50-20h120l40 20 30 20 20 50v50l-20 70-290 290h310M6240 2874v1000m-620-330v-310l190 170v-80l20-40 20-30 50-20h120l50 20 20 30 30 40v150l-30 40-20 30" stroke="#840000"/><path d="M5900 554V54h120l70 20 50 50 20 50 20 90v70l-20 100-20 40-50 50-70 30h-120m570-50l20 20-20 30-20-30 20-20v50m-90-480l40-20h120l50 20 20 50v50l-20 40-20 30-50 20-30 20-20 50v30" stroke="#008484"/><path d="M120 2104h480M30 2384l330-1000 330 1000m860 0H980m290 0V1384l-100 150-90 90-100 50m9950 430h480m-570 280l330-1000 330 1000m290-900l50-50 90-50h240l100 50 40 50 50 90v100l-50 140-570 570h620M5530 5134h480m-570 280l330-1000 330 1000m240-1000h620l-330 380h140l100 50 40 50 50 90v240l-50 100-40 40-100 50h-280l-100-50-50-40" stroke="#840084"/></g></g></svg>