<svg xmlns="http://www.w3.org/2000/svg" height="36" width="66" viewBox="0 0 7333.3385 4000.004"><title>SVG Picture created as qeda-test.svg date 2017/01/28 09:25:35</title><desc>Picture generated by Eeschema-SVG</desc><rect rx="0" height="2000" width="4000" y="65500" x="13000" fill-opacity=".6" transform="translate(-11970 -64530)" fill="#ffffc2"/><rect rx="0" height="2000" width="4000" y="65500" x="13000" fill="none" stroke-linejoin="round" transform="translate(-11970 -64530)" stroke="#840000" stroke-linecap="round" stroke-width="120"/><path fill-rule="evenodd" d="M1630 1470l800 500-800 500V1470" fill-opacity=".6" fill="#ffffc2"/><path fill="none" d="M1630 1470l800 500-800 500V1470" stroke-linejoin="round" stroke="#840000" stroke-linecap="round" stroke-width="120"/><path fill-rule="evenodd" d="M3630 1470l800 500-800 500V1470" fill-opacity=".6" fill="#ffffc2"/><path fill="none" d="M3630 1470l800 500-800 500V1470" stroke-linejoin="round" stroke="#840000" stroke-linecap="round" stroke-width="120"/><circle cy="66500" cx="15000" r="120" stroke-linejoin="round" transform="translate(-11970 -64530)" stroke="#840000" stroke-linecap="round" stroke-width="120" fill="#840000"/><g stroke-linejoin="round" stroke-linecap="round" fill-opacity="0" fill="none"><path d="M1030 1970h600m600 500v-200m200 200h-200m200-500h1200m-1200-500v1000m0-1000h200m0 0v200m400 300v1000m1200-500v-200m200 200h-200m200-500h600m-600-500v1000m0-1000h200m0 0v200" stroke="#840000" stroke-width="120"/><path d="M1030 1970H30m640-120H390m140 0v-500l-50 70-50 50-40 20m4640 480h1000m-640-580l20-20 50-20h120l40 20 30 20 20 50v50l-20 70-290 290h310M3030 2970v1000m-620-330v-310l190 170v-80l20-40 20-30 50-20h120l50 20 20 30 30 40v150l-30 40-20 30" stroke="#840000" stroke-width="60"/><path d="M2690 650V150h120l70 20 50 50 20 50 20 90v70l-20 100-20 40-50 50-70 30h-120m570-50l20 20-20 30-20-30 20-20v50m-90-480l40-20h120l50 20 20 50v50l-20 40-20 30-50 20-30 20-20 50v30m360 3080l70 30 20 20 20 50v70l-20 50-20 20-50 30h-190v-500h170l40 20 30 20 20 50v50l-20 50-30 20-40 20h-170m480 120h230m-280 150l160-500 170 500m150-30l70 30h120l40-30 30-20 20-50v-50l-20-40-30-30-40-20-100-30-50-20-20-20-20-50v-50l20-50 20-20 50-20h120l70 20m430 140v340m-120-530l-110 360h300m290-330h50l50 20 20 20 30 50 20 100v120l-20 90-30 50-20 20-50 30h-50l-40-30-30-20-20-50-20-90v-120l20-100 20-50 30-20 40-20m390 310h380m330-310h50l50 20 20 20 30 50 20 100v120l-20 90-30 50-20 20-50 30h-50l-40-30-30-20-20-50-20-90v-120l20-100 20-50 30-20 40-20m600 160v340m-120-530l-110 360h300" stroke="#008484" stroke-width="60"/></g></svg>