<svg xmlns:rdf="http://www.w3.org/1999/02/22-rdf-syntax-ns#" xmlns="http://www.w3.org/2000/svg" height="36" width="66" version="1.1" xmlns:cc="http://creativecommons.org/ns#" xmlns:dc="http://purl.org/dc/elements/1.1/" viewBox="0 0 7333.3385 4000.004">
 <title>SVG Picture created as qeda-test.svg date 2017/01/28 09:25:35</title>
 <desc>Picture generated by Eeschema-SVG</desc>
 <g fill-opacity=".6" transform="translate(-11970 -64530)" stroke-width="0" fill="#ffffc2">
  <rect rx="0" height="2e3" width="4e3" y="65500" x="13000"/>
 </g>
 <g stroke-linejoin="round" fill-opacity="0" transform="translate(-11970 -64530)" stroke="#840000" stroke-linecap="round" stroke-width="120">
  <rect rx="0" height="2e3" width="4e3" y="65500" x="13000"/>
 </g>
 <g fill-opacity=".6" transform="translate(-11970 -64530)" stroke-width="0" fill="#ffffc2">
  <polyline points="13600 66000 14400 66500 13600 67000 13600 66000" fill-rule="evenodd"/>
 </g>
 <g stroke-linejoin="round" fill-opacity="0" transform="translate(-11970 -64530)" stroke="#840000" stroke-linecap="round" stroke-width="120">
  <polyline points="13600 66000 14400 66500 13600 67000 13600 66000" fill="none;"/>
 </g>
 <g fill-opacity=".6" transform="translate(-11970 -64530)" stroke-width="0" fill="#ffffc2">
  <polyline points="15600 66000 16400 66500 15600 67000 15600 66000" fill-rule="evenodd"/>
 </g>
 <g stroke-linejoin="round" fill-opacity="0" transform="translate(-11970 -64530)" stroke="#840000" stroke-linecap="round" stroke-width="120">
  <polyline points="15600 66000 16400 66500 15600 67000 15600 66000" fill="none;"/>
 </g>
 <g stroke-linejoin="round" transform="translate(-11970 -64530)" stroke="#840000" stroke-linecap="round" stroke-width="120" fill="#840000">
  <circle cy="66500" cx="15000" r="120"/>
 </g>
 <g stroke-linejoin="round" stroke-linecap="round" fill-opacity="0">
  <g transform="translate(-11970 -64530)" stroke="#840000" stroke-width="120" fill="none;">
   <polyline points="13000 66500 13600 66500"/>
   <polyline points="14200 67000 14200 66800"/>
   <polyline points="14400 67000 14200 67000"/>
   <polyline points="14400 66500 15600 66500"/>
   <polyline points="14400 66000 14400 67000"/>
   <polyline points="14400 66000 14600 66000"/>
   <polyline points="14600 66000 14600 66200"/>
   <polyline points="15000 66500 15000 67500"/>
   <polyline points="16200 67000 16200 66800"/>
   <polyline points="16400 67000 16200 67000"/>
   <polyline points="16400 66500 17000 66500"/>
   <polyline points="16400 66000 16400 67000"/>
   <polyline points="16400 66000 16600 66000"/>
   <polyline points="16600 66000 16600 66200"/>
  </g>
  <g transform="translate(-11970 -64530)" stroke="#840000" stroke-width="60">
   <path d="m13000 66500h-1e3"/>
   <path d="m12640 66380h-280"/>
   <path d="m12500 66380v-500l-50 70-50 50-40 20"/>
   <path d="m17000 66500h1e3"/>
   <path d="m17360 65920 20-20 50-20h120l40 20 30 20 20 50v50l-20 70-290 290h310"/>
   <path d="m15000 67500v1e3"/>
   <path d="m14380 68170v-310l190 170v-80l20-40 20-30 50-20h120l50 20 20 30 30 40v150l-30 40-20 30"/>
  </g>
  <g transform="translate(-11970 -64530)" stroke="#008484" stroke-width="60">
   <path d="m14660 65180v-500h120l70 20 50 50 20 50 20 90v70l-20 100-20 40-50 50-70 30h-120"/>
   <path d="m15230 65130 20 20-20 30-20-30 20-20v50"/>
   <path d="m15140 64700 40-20h120l50 20 20 50v50l-20 40-20 30-50 20-30 20-20 50v30"/>
   <path d="m15590 68070 70 30 20 20 20 50v70l-20 50-20 20-50 30h-190v-500h170l40 20 30 20 20 50v50l-20 50-30 20-40 20h-170"/>
   <path d="m15900 68190h230"/>
   <path d="m15850 68340 160-500 170 500"/>
   <path d="m16330 68310 70 30h120l40-30 30-20 20-50v-50l-20-40-30-30-40-20-100-30-50-20-20-20-20-50v-50l20-50 20-20 50-20h120l70 20"/>
   <path d="m17040 68000v340"/>
   <path d="m16920 67810-110 360h300"/>
   <path d="m17400 67840h50l50 20 20 20 30 50 20 100v120l-20 90-30 50-20 20-50 30h-50l-40-30-30-20-20-50-20-90v-120l20-100 20-50 30-20 40-20"/>
   <path d="m17790 68150h380"/>
   <path d="m18500 67840h50l50 20 20 20 30 50 20 100v120l-20 90-30 50-20 20-50 30h-50l-40-30-30-20-20-50-20-90v-120l20-100 20-50 30-20 40-20"/>
   <path d="m19100 68000v340"/>
   <path d="m18980 67810-110 360h300"/>
  </g>
 </g>
</svg>
