<svg xmlns="http://www.w3.org/2000/svg" height="49" width="96" viewBox="0 0 10666.674 5444.4498"><title>SVG Picture created as qeda-test.svg date 2017/01/28 08:38:22</title><desc>Picture generated by Eeschema-SVG</desc><rect rx="0" height="2000" width="4000" y="30500" x="26000" fill-opacity=".6" transform="translate(-22710 -29626)" fill="#ffffc2"/><rect rx="0" height="2000" width="4000" y="30500" x="26000" fill="none" stroke-linejoin="round" transform="translate(-22710 -29626)" stroke="#840000" stroke-linecap="round" stroke-width="120"/><path fill-rule="evenodd" d="M4690 2374l-800-500 800-500v1000" fill-opacity=".6" fill="#ffffc2"/><path fill="none" d="M4690 2374l-800-500 800-500v1000" stroke-linejoin="round" stroke="#840000" stroke-linecap="round" stroke-width="120"/><path fill-rule="evenodd" d="M5890 1374l800 500-800 500V1374" fill-opacity=".6" fill="#ffffc2"/><path fill="none" d="M5890 1374l800 500-800 500V1374" stroke-linejoin="round" stroke="#840000" stroke-linecap="round" stroke-width="120"/><circle cy="31500" cx="28000" r="120" stroke-linejoin="round" transform="translate(-22710 -29626)" stroke="#840000" stroke-linecap="round" stroke-width="120" fill="#840000"/><g stroke-linejoin="round" stroke-linecap="round" fill-opacity="0" fill="none"><path d="M3290 1874h600m0 500V1374m800 500h1200m-600 0v1000m1400-1000h600m-600-500v1000" stroke="#840000" stroke-width="120"/><g stroke-width="60"><path d="M3290 1874H2290m640-120h-280m140 0v-500l-50 70-50 50-40 20m4640 480h1000m-640-580l20-20 50-20h120l40 20 30 20 20 50v50l-20 70-290 290h310M5290 2874v1000m-620-330v-310l190 170v-80l20-40 20-30 50-20h120l50 20 20 30 30 40v150l-30 40-20 30" stroke="#840000"/><path d="M4950 554V54h120l70 20 50 50 20 50 20 90v70l-20 100-20 40-50 50-70 30h-120m570-50l20 20-20 30-20-30 20-20v50m-90-480l40-20h120l50 20 20 50v50l-20 40-20 30-50 20-30 20-20 50v30" stroke="#008484"/><path d="M650 2294l-50 40-140 50H360l-140-50-90-90-50-100-50-190v-140l50-190 50-90 90-100 140-50h100l140 50 50 50m950 900h-570m290 0V1384l-100 150-90 90-100 50m8570 620l-50 40-140 50h-100l-140-50-90-90-50-100-50-190v-140l50-190 50-90 90-100 140-50h100l140 50 50 50m380 0l50-50 90-50h240l100 50 40 50 50 90v100l-50 140-570 570h620M5050 5134h480m-570 280l330-1000 330 1000" stroke="#840084"/></g></g></svg>