<svg xmlns:rdf="http://www.w3.org/1999/02/22-rdf-syntax-ns#" xmlns="http://www.w3.org/2000/svg" height="35" width="58" version="1.1" xmlns:cc="http://creativecommons.org/ns#" xmlns:dc="http://purl.org/dc/elements/1.1/" viewBox="0 0 6444.449 3888.8927">
 <title>SVG Picture created as qeda-test.svg date 2017/01/28 09:13:29</title>
 <desc>Picture generated by Eeschema-SVG</desc>
 <g fill-opacity=".6" transform="translate(-35970 -23142)" stroke-width="0" fill="#ffffc2">
  <rect rx="0" height="2e3" width="4e3" y="24000" x="37000"/>
 </g>
 <g stroke-linejoin="round" fill-opacity="0" transform="translate(-35970 -23142)" stroke="#840000" stroke-linecap="round" stroke-width="120">
  <rect rx="0" height="2e3" width="4e3" y="24000" x="37000"/>
 </g>
 <g fill-opacity=".6" transform="translate(-35970 -23142)" stroke-width="0" fill="#ffffc2">
  <polyline points="37600 24500 38400 25000 37600 25500 37600 24500" fill-rule="evenodd"/>
 </g>
 <g stroke-linejoin="round" fill-opacity="0" transform="translate(-35970 -23142)" stroke="#840000" stroke-linecap="round" stroke-width="120">
  <polyline points="37600 24500 38400 25000 37600 25500 37600 24500" fill="none;"/>
 </g>
 <g fill-opacity=".6" transform="translate(-35970 -23142)" stroke-width="0" fill="#ffffc2">
  <polyline points="39600 24500 40400 25000 39600 25500 39600 24500" fill-rule="evenodd"/>
 </g>
 <g stroke-linejoin="round" fill-opacity="0" transform="translate(-35970 -23142)" stroke="#840000" stroke-linecap="round" stroke-width="120">
  <polyline points="39600 24500 40400 25000 39600 25500 39600 24500" fill="none;"/>
 </g>
 <g stroke-linejoin="round" transform="translate(-35970 -23142)" stroke="#840000" stroke-linecap="round" stroke-width="120" fill="#840000">
  <circle cy="25000" cx="39000" r="120"/>
 </g>
 <g stroke-linejoin="round" stroke-linecap="round" fill-opacity="0">
  <g transform="translate(-35970 -23142)" stroke="#840000" stroke-width="120" fill="none;">
   <polyline points="37000 25000 37600 25000"/>
   <polyline points="38200 25500 38200 25300"/>
   <polyline points="38400 25500 38200 25500"/>
   <polyline points="38400 25000 39600 25000"/>
   <polyline points="38400 24500 38400 25500"/>
   <polyline points="38400 24500 38600 24500"/>
   <polyline points="38600 24500 38600 24700"/>
   <polyline points="39000 25000 39000 26000"/>
   <polyline points="40200 25500 40200 25300"/>
   <polyline points="40400 25500 40200 25500"/>
   <polyline points="40400 25000 41000 25000"/>
   <polyline points="40400 24500 40400 25500"/>
   <polyline points="40400 24500 40600 24500"/>
   <polyline points="40600 24500 40600 24700"/>
  </g>
  <g transform="translate(-35970 -23142)" stroke="#840000" stroke-width="60">
   <path d="m37000 25000h-1e3"/>
   <path d="m36640 24880h-280"/>
   <path d="m36500 24880v-500l-50 70-50 50-40 20"/>
   <path d="m41000 25000h1e3"/>
   <path d="m41360 24420 20-20 50-20h120l40 20 30 20 20 50v50l-20 70-290 290h310"/>
   <path d="m39000 26000v1e3"/>
   <path d="m38380 26670v-310l190 170v-80l20-40 20-30 50-20h120l50 20 20 30 30 40v150l-30 40-20 30"/>
  </g>
  <g transform="translate(-35970 -23142)" stroke="#008484" stroke-width="60">
   <path d="m38660 23680v-500h120l70 20 50 50 20 50 20 90v70l-20 100-20 40-50 50-70 30h-120"/>
   <path d="m39230 23630 20 20-20 30-20-30 20-20v50"/>
   <path d="m39140 23200 40-20h120l50 20 20 50v50l-20 40-20 30-50 20-30 20-20 50v30"/>
   <path d="m39400 26810 40 30h100l50-30 20-50v-20l-20-50-50-20h-70l-50-20-20-50v-30l20-40 50-30h70l50 30"/>
   <path d="m40030 26810-40 30h-100l-50-30-20-20-20-50v-140l20-50 20-20 50-30h100l40 30"/>
   <path d="m40250 26840v-500"/>
   <path d="m40460 26840v-270l-20-40-50-30h-70l-50 30-20 20"/>
   <path d="m40770 26840-50-30-20-20-20-50v-140l20-50 20-20 50-30h70l50 30 20 20 30 50v140l-30 50-20 20-50 30h-70"/>
   <path d="m41080 26500h190"/>
   <path d="m41150 26340v420l20 50 50 30h50"/>
   <path d="m41370 26500h190"/>
   <path d="m41440 26340v420l20 50 50 30h50"/>
   <path d="m41730 26840v-500"/>
   <path d="m41780 26650 140 190"/>
   <path d="m41920 26500-190 190"/>
   <path d="m42080 26500 120 340"/>
   <path d="m42320 26500-120 340-50 120-20 20-50 20"/>
  </g>
 </g>
</svg>
