<svg xmlns="http://www.w3.org/2000/svg" height="35" width="58" viewBox="0 0 6444.449 3888.8927"><title>SVG Picture created as qeda-test.svg date 2017/01/28 09:13:29</title><desc>Picture generated by Eeschema-SVG</desc><rect rx="0" height="2000" width="4000" y="24000" x="37000" fill-opacity=".6" transform="translate(-35970 -23142)" fill="#ffffc2"/><rect rx="0" height="2000" width="4000" y="24000" x="37000" fill="none" stroke-linejoin="round" transform="translate(-35970 -23142)" stroke="#840000" stroke-linecap="round" stroke-width="120"/><path fill-rule="evenodd" d="M1630 1358l800 500-800 500V1358" fill-opacity=".6" fill="#ffffc2"/><path fill="none" d="M1630 1358l800 500-800 500V1358" stroke-linejoin="round" stroke="#840000" stroke-linecap="round" stroke-width="120"/><path fill-rule="evenodd" d="M3630 1358l800 500-800 500V1358" fill-opacity=".6" fill="#ffffc2"/><path fill="none" d="M3630 1358l800 500-800 500V1358" stroke-linejoin="round" stroke="#840000" stroke-linecap="round" stroke-width="120"/><circle cy="25000" cx="39000" r="120" stroke-linejoin="round" transform="translate(-35970 -23142)" stroke="#840000" stroke-linecap="round" stroke-width="120" fill="#840000"/><g stroke-linejoin="round" stroke-linecap="round" fill-opacity="0" fill="none"><path d="M1030 1858h600m600 500v-200m200 200h-200m200-500h1200m-1200-500v1000m0-1000h200m0 0v200m400 300v1000m1200-500v-200m200 200h-200m200-500h600m-600-500v1000m0-1000h200m0 0v200" stroke="#840000" stroke-width="120"/><path d="M1030 1858H30m640-120H390m140 0v-500l-50 70-50 50-40 20m4640 480h1000m-640-580l20-20 50-20h120l40 20 30 20 20 50v50l-20 70-290 290h310M3030 2858v1000m-620-330v-310l190 170v-80l20-40 20-30 50-20h120l50 20 20 30 30 40v150l-30 40-20 30" stroke="#840000" stroke-width="60"/><path d="M2690 538V38h120l70 20 50 50 20 50 20 90v70l-20 100-20 40-50 50-70 30h-120m570-50l20 20-20 30-20-30 20-20v50m-90-480l40-20h120l50 20 20 50v50l-20 40-20 30-50 20-30 20-20 50v30m170 3320l40 30h100l50-30 20-50v-20l-20-50-50-20h-70l-50-20-20-50v-30l20-40 50-30h70l50 30m440 280l-40 30h-100l-50-30-20-20-20-50v-140l20-50 20-20 50-30h100l40 30m220 310v-500m210 500v-270l-20-40-50-30h-70l-50 30-20 20m520 290l-50-30-20-20-20-50v-140l20-50 20-20 50-30h70l50 30 20 20 30 50v140l-30 50-20 20-50 30h-70m310-340h190m-120-160v420l20 50 50 30h50m100-340h190m-120-160v420l20 50 50 30h50m170 0v-500m50 310l140 190m0-340l-190 190m350-190l120 340m120-340l-120 340-50 120-20 20-50 20" stroke="#008484" stroke-width="60"/></g></svg>