<svg xmlns="http://www.w3.org/2000/svg" height="35" width="73" viewBox="0 0 8111.1168 3888.8927"><title>SVG Picture created as qeda-test.svg date 2017/01/28 09:12:19</title><desc>Picture generated by Eeschema-SVG</desc><rect rx="0" height="2000" width="6000" y="29500" x="37000" fill-opacity=".6" transform="translate(-35970 -28642)" fill="#ffffc2"/><rect rx="0" height="2000" width="6000" y="29500" x="37000" fill="none" stroke-linejoin="round" transform="translate(-35970 -28642)" stroke="#840000" stroke-linecap="round" stroke-width="120"/><path fill-rule="evenodd" d="M1730 1358l800 500-800 500V1358" fill-opacity=".6" fill="#ffffc2"/><path fill="none" d="M1730 1358l800 500-800 500V1358" stroke-linejoin="round" stroke="#840000" stroke-linecap="round" stroke-width="120"/><path fill-rule="evenodd" d="M3330 1358l-800 500 800 500V1358" fill-opacity=".6" fill="#ffffc2"/><path fill="none" d="M3330 1358l-800 500 800 500V1358" stroke-linejoin="round" stroke="#840000" stroke-linecap="round" stroke-width="120"/><path fill-rule="evenodd" d="M4730 1358l800 500-800 500V1358" fill-opacity=".6" fill="#ffffc2"/><path fill="none" d="M4730 1358l800 500-800 500V1358" stroke-linejoin="round" stroke="#840000" stroke-linecap="round" stroke-width="120"/><path fill-rule="evenodd" d="M6330 1358l-800 500 800 500V1358" fill-opacity=".6" fill="#ffffc2"/><path fill="none" d="M6330 1358l-800 500 800 500V1358" stroke-linejoin="round" stroke="#840000" stroke-linecap="round" stroke-width="120"/><circle cy="30500" cx="40000" r="120" stroke-linejoin="round" transform="translate(-35970 -28642)" stroke="#840000" stroke-linecap="round" stroke-width="120" fill="#840000"/><g stroke-linejoin="round" stroke-linecap="round" fill-opacity="0" fill="none"><path d="M1030 1858h700m800 500l200 200m-200-1200l-200-200m200 200v1000m800-500h1400m-700 0v1000m1500-500l200 200m-200-1200l-200-200m200 200v1000m800-500h700" stroke="#840000" stroke-width="120"/><path d="M1030 1858H30m640-120H390m140 0v-500l-50 70-50 50-40 20m6640 480h1000m-640-580l20-20 50-20h120l40 20 30 20 20 50v50l-20 70-290 290h310M4030 2858v1000m-620-330v-310l190 170v-80l20-40 20-30 50-20h120l50 20 20 30 30 40v150l-30 40-20 30" stroke="#840000" stroke-width="60"/><path d="M3690 538V38h120l70 20 50 50 20 50 20 90v70l-20 100-20 40-50 50-70 30h-120m570-50l20 20-20 30-20-30 20-20v50m-90-480l40-20h120l50 20 20 50v50l-20 40-20 30-50 20-30 20-20 50v30m120 3010h190m-120-160v420l20 50 50 30h50m120-340l120 340 120-340m170 310l40 30h100l50-30 20-50v-20l-20-50-50-20h-70l-50-20-20-50v-30l20-40 50-30h70l50 30" stroke="#008484" stroke-width="60"/></g></svg>