<svg xmlns:rdf="http://www.w3.org/1999/02/22-rdf-syntax-ns#" xmlns="http://www.w3.org/2000/svg" height="35" width="73" version="1.1" xmlns:cc="http://creativecommons.org/ns#" xmlns:dc="http://purl.org/dc/elements/1.1/" viewBox="0 0 8111.1168 3888.8927">
 <title>SVG Picture created as qeda-test.svg date 2017/01/28 09:12:19</title>
 <desc>Picture generated by Eeschema-SVG</desc>
 <g fill-opacity=".6" transform="translate(-35970 -28642)" stroke-width="0" fill="#ffffc2">
  <rect rx="0" height="2e3" width="6e3" y="29500" x="37000"/>
 </g>
 <g stroke-linejoin="round" fill-opacity="0" transform="translate(-35970 -28642)" stroke="#840000" stroke-linecap="round" stroke-width="120">
  <rect rx="0" height="2e3" width="6e3" y="29500" x="37000"/>
 </g>
 <g fill-opacity=".6" transform="translate(-35970 -28642)" stroke-width="0" fill="#ffffc2">
  <polyline points="37700 3e4 38500 30500 37700 31000 37700 3e4" fill-rule="evenodd"/>
 </g>
 <g stroke-linejoin="round" fill-opacity="0" transform="translate(-35970 -28642)" stroke="#840000" stroke-linecap="round" stroke-width="120">
  <polyline points="37700 3e4 38500 30500 37700 31000 37700 3e4" fill="none;"/>
 </g>
 <g fill-opacity=".6" transform="translate(-35970 -28642)" stroke-width="0" fill="#ffffc2">
  <polyline points="39300 3e4 38500 30500 39300 31000 39300 3e4" fill-rule="evenodd"/>
 </g>
 <g stroke-linejoin="round" fill-opacity="0" transform="translate(-35970 -28642)" stroke="#840000" stroke-linecap="round" stroke-width="120">
  <polyline points="39300 3e4 38500 30500 39300 31000 39300 3e4" fill="none;"/>
 </g>
 <g fill-opacity=".6" transform="translate(-35970 -28642)" stroke-width="0" fill="#ffffc2">
  <polyline points="40700 3e4 41500 30500 40700 31000 40700 3e4" fill-rule="evenodd"/>
 </g>
 <g stroke-linejoin="round" fill-opacity="0" transform="translate(-35970 -28642)" stroke="#840000" stroke-linecap="round" stroke-width="120">
  <polyline points="40700 3e4 41500 30500 40700 31000 40700 3e4" fill="none;"/>
 </g>
 <g fill-opacity=".6" transform="translate(-35970 -28642)" stroke-width="0" fill="#ffffc2">
  <polyline points="42300 3e4 41500 30500 42300 31000 42300 3e4" fill-rule="evenodd"/>
 </g>
 <g stroke-linejoin="round" fill-opacity="0" transform="translate(-35970 -28642)" stroke="#840000" stroke-linecap="round" stroke-width="120">
  <polyline points="42300 3e4 41500 30500 42300 31000 42300 3e4" fill="none;"/>
 </g>
 <g stroke-linejoin="round" transform="translate(-35970 -28642)" stroke="#840000" stroke-linecap="round" stroke-width="120" fill="#840000">
  <circle cy="30500" cx="4e4" r="120"/>
 </g>
 <g stroke-linejoin="round" stroke-linecap="round" fill-opacity="0">
  <g transform="translate(-35970 -28642)" stroke="#840000" stroke-width="120" fill="none;">
   <polyline points="37000 30500 37700 30500"/>
   <polyline points="38500 31000 38700 31200"/>
   <polyline points="38500 3e4 38300 29800"/>
   <polyline points="38500 3e4 38500 31000"/>
   <polyline points="39300 30500 40700 30500"/>
   <polyline points="4e4 30500 4e4 31500"/>
   <polyline points="41500 31000 41700 31200"/>
   <polyline points="41500 3e4 41300 29800"/>
   <polyline points="41500 3e4 41500 31000"/>
   <polyline points="42300 30500 43000 30500"/>
  </g>
  <g transform="translate(-35970 -28642)" stroke="#840000" stroke-width="60">
   <path d="m37000 30500h-1e3"/>
   <path d="m36640 30380h-280"/>
   <path d="m36500 30380v-500l-50 70-50 50-40 20"/>
   <path d="m43000 30500h1e3"/>
   <path d="m43360 29920 20-20 50-20h120l40 20 30 20 20 50v50l-20 70-290 290h310"/>
   <path d="m4e4 31500v1e3"/>
   <path d="m39380 32170v-310l190 170v-80l20-40 20-30 50-20h120l50 20 20 30 30 40v150l-30 40-20 30"/>
  </g>
  <g transform="translate(-35970 -28642)" stroke="#008484" stroke-width="60">
   <path d="m39660 29180v-500h120l70 20 50 50 20 50 20 90v70l-20 100-20 40-50 50-70 30h-120"/>
   <path d="m40230 29130 20 20-20 30-20-30 20-20v50"/>
   <path d="m40140 28700 40-20h120l50 20 20 50v50l-20 40-20 30-50 20-30 20-20 50v30"/>
   <path d="m40350 32000h190"/>
   <path d="m40420 31840v420l20 50 50 30h50"/>
   <path d="m40660 32000 120 340 120-340"/>
   <path d="m41070 32310 40 30h100l50-30 20-50v-20l-20-50-50-20h-70l-50-20-20-50v-30l20-40 50-30h70l50 30"/>
  </g>
 </g>
</svg>
