<svg xmlns:rdf="http://www.w3.org/1999/02/22-rdf-syntax-ns#" xmlns="http://www.w3.org/2000/svg" height="35" width="55" version="1.1" xmlns:cc="http://creativecommons.org/ns#" xmlns:dc="http://purl.org/dc/elements/1.1/" viewBox="0 0 6111.1154 3888.8927">
 <title>SVG Picture created as qeda-test.svg date 2017/01/28 09:14:51</title>
 <desc>Picture generated by Eeschema-SVG</desc>
 <g fill-opacity=".6" transform="translate(-18470 -32642)" stroke-width="0" fill="#ffffc2">
  <rect rx="0" height="2e3" width="4e3" y="33500" x="19500"/>
 </g>
 <g stroke-linejoin="round" fill-opacity="0" transform="translate(-18470 -32642)" stroke="#840000" stroke-linecap="round" stroke-width="120">
  <rect rx="0" height="2e3" width="4e3" y="33500" x="19500"/>
 </g>
 <g fill-opacity=".6" transform="translate(-18470 -32642)" stroke-width="0" fill="#ffffc2">
  <polyline points="20100 34000 20900 34500 20100 35000 20100 34000" fill-rule="evenodd"/>
 </g>
 <g stroke-linejoin="round" fill-opacity="0" transform="translate(-18470 -32642)" stroke="#840000" stroke-linecap="round" stroke-width="120">
  <polyline points="20100 34000 20900 34500 20100 35000 20100 34000" fill="none;"/>
 </g>
 <g fill-opacity=".6" transform="translate(-18470 -32642)" stroke-width="0" fill="#ffffc2">
  <polyline points="22100 34000 22900 34500 22100 35000 22100 34000" fill-rule="evenodd"/>
 </g>
 <g stroke-linejoin="round" fill-opacity="0" transform="translate(-18470 -32642)" stroke="#840000" stroke-linecap="round" stroke-width="120">
  <polyline points="22100 34000 22900 34500 22100 35000 22100 34000" fill="none;"/>
 </g>
 <g stroke-linejoin="round" transform="translate(-18470 -32642)" stroke="#840000" stroke-linecap="round" stroke-width="120" fill="#840000">
  <circle cy="34500" cx="21500" r="120"/>
 </g>
 <g stroke-linejoin="round" stroke-linecap="round" fill-opacity="0">
  <g transform="translate(-18470 -32642)" stroke="#840000" stroke-width="120" fill="none;">
   <polyline points="19500 34500 20100 34500"/>
   <polyline points="20900 35000 21100 35200"/>
   <polyline points="20900 34500 22100 34500"/>
   <polyline points="20900 34000 20700 33800"/>
   <polyline points="20900 34000 20900 35000"/>
   <polyline points="21500 34500 21500 35500"/>
   <polyline points="22900 35000 23100 35200"/>
   <polyline points="22900 34500 23500 34500"/>
   <polyline points="22900 34000 22700 33800"/>
   <polyline points="22900 34000 22900 35000"/>
  </g>
  <g transform="translate(-18470 -32642)" stroke="#840000" stroke-width="60">
   <path d="m19500 34500h-1e3"/>
   <path d="m19140 34380h-280"/>
   <path d="m19000 34380v-500l-50 70-50 50-40 20"/>
   <path d="m23500 34500h1e3"/>
   <path d="m23860 33920 20-20 50-20h120l40 20 30 20 20 50v50l-20 70-290 290h310"/>
   <path d="m21500 35500v1e3"/>
   <path d="m20880 36170v-310l190 170v-80l20-40 20-30 50-20h120l50 20 20 30 30 40v150l-30 40-20 30"/>
  </g>
  <g transform="translate(-18470 -32642)" stroke="#008484" stroke-width="60">
   <path d="m21160 33180v-500h120l70 20 50 50 20 50 20 90v70l-20 100-20 40-50 50-70 30h-120"/>
   <path d="m21730 33130 20 20-20 30-20-30 20-20v50"/>
   <path d="m21640 32700 40-20h120l50 20 20 50v50l-20 40-20 30-50 20-30 20-20 50v30"/>
   <path d="m21870 36000h260l-260 340h260"/>
   <path d="m22510 36310-50 30h-90l-50-30-20-50v-190l20-40 50-30h90l50 30 20 40v50l-230 50"/>
   <path d="m22750 36000v340"/>
   <path d="m22750 36050 20-20 50-30h70l50 30 20 40v270"/>
   <path d="m23390 36310-50 30h-90l-50-30-20-50v-190l20-40 50-30h90l50 30 20 40v50l-230 50"/>
   <path d="m23630 36340v-340"/>
   <path d="m23630 36100 20-50 30-20 40-30h50"/>
  </g>
 </g>
</svg>
