<svg xmlns="http://www.w3.org/2000/svg" height="35" width="55" viewBox="0 0 6111.1154 3888.8927"><title>SVG Picture created as qeda-test.svg date 2017/01/28 09:14:51</title><desc>Picture generated by Eeschema-SVG</desc><rect rx="0" height="2000" width="4000" y="33500" x="19500" fill-opacity=".6" transform="translate(-18470 -32642)" fill="#ffffc2"/><rect rx="0" height="2000" width="4000" y="33500" x="19500" fill="none" stroke-linejoin="round" transform="translate(-18470 -32642)" stroke="#840000" stroke-linecap="round" stroke-width="120"/><path fill-rule="evenodd" d="M1630 1358l800 500-800 500V1358" fill-opacity=".6" fill="#ffffc2"/><path fill="none" d="M1630 1358l800 500-800 500V1358" stroke-linejoin="round" stroke="#840000" stroke-linecap="round" stroke-width="120"/><path fill-rule="evenodd" d="M3630 1358l800 500-800 500V1358" fill-opacity=".6" fill="#ffffc2"/><path fill="none" d="M3630 1358l800 500-800 500V1358" stroke-linejoin="round" stroke="#840000" stroke-linecap="round" stroke-width="120"/><circle cy="34500" cx="21500" r="120" stroke-linejoin="round" transform="translate(-18470 -32642)" stroke="#840000" stroke-linecap="round" stroke-width="120" fill="#840000"/><g stroke-linejoin="round" stroke-linecap="round" fill-opacity="0" fill="none"><path d="M1030 1858h600m800 500l200 200m-200-700h1200m-1200-500l-200-200m200 200v1000m600-500v1000m1400-500l200 200m-200-700h600m-600-500l-200-200m200 200v1000" stroke="#840000" stroke-width="120"/><path d="M1030 1858H30m640-120H390m140 0v-500l-50 70-50 50-40 20m4640 480h1000m-640-580l20-20 50-20h120l40 20 30 20 20 50v50l-20 70-290 290h310M3030 2858v1000m-620-330v-310l190 170v-80l20-40 20-30 50-20h120l50 20 20 30 30 40v150l-30 40-20 30" stroke="#840000" stroke-width="60"/><path d="M2690 538V38h120l70 20 50 50 20 50 20 90v70l-20 100-20 40-50 50-70 30h-120m570-50l20 20-20 30-20-30 20-20v50m-90-480l40-20h120l50 20 20 50v50l-20 40-20 30-50 20-30 20-20 50v30m140 3010h260l-260 340h260m380-30l-50 30h-90l-50-30-20-50v-190l20-40 50-30h90l50 30 20 40v50l-230 50m450-170v340m0-290l20-20 50-30h70l50 30 20 40v270m430-30l-50 30h-90l-50-30-20-50v-190l20-40 50-30h90l50 30 20 40v50l-230 50m450 170v-340m0 100l20-50 30-20 40-30h50" stroke="#008484" stroke-width="60"/></g></svg>