<svg xmlns="http://www.w3.org/2000/svg" height="25" width="28" viewBox="0 0 3111.1133 2777.7805"><title>SVG Picture created as qeda-test.svg date 2017/01/22 23:38:36</title><desc>Picture generated by Eeschema-SVG</desc><path fill-rule="evenodd" d="M1130 907l800 500-800 500V907" fill-opacity=".6" fill="#ffffc2"/><g stroke-linejoin="round" stroke-linecap="round" fill-opacity="0" fill="none"><path d="M1130 907l800 500-800 500V907m600 1000v-200m200 200h-200m200-1000v1000m0-1000h200m0 0v200" stroke="#840000" stroke-width="120"/><path d="M1130 1407H30m690-120H440m140 0V787l-50 70-50 50-40 20m1490 480h1100m-720-620h310l-170 190h80l40 20 30 20 20 50v120l-20 50-30 20-40 30h-150l-40-30-30-20" stroke="#840000" stroke-width="60"/><path d="M1190 587V87h120l70 20 50 50 20 50 20 90v70l-20 100-20 40-50 50-70 30h-120m570-50l20 20-20 30-20-30 20-20v50m-90-480l40-20h120l50 20 20 50v50l-20 40-20 30-50 20-30 20-20 50v30M440 2477l70 30 20 20 20 50v70l-20 50-20 20-50 30H270v-500h170l40 20 30 20 20 50v50l-20 50-30 20-40 20H270m480 120h230m-280 150l160-500 170 500m150-30l70 30h120l40-30 30-20 20-50v-50l-20-40-30-30-40-20-100-30-50-20-20-20-20-50v-50l20-50 20-20 50-20h120l70 20m430 140v340m-120-530l-110 360h300m290-330h50l50 20 20 20 30 50 20 100v120l-20 90-30 50-20 20-50 30h-50l-40-30-30-20-20-50-20-90v-120l20-100 20-50 30-20 40-20m630 500h-240v-500" stroke="#008484" stroke-width="60"/></g></svg>