<svg xmlns="http://www.w3.org/2000/svg" height="26" width="23" viewBox="0 0 2555.5573 2888.8918"><title>SVG Picture created as qeda-test.svg date 2017/01/22 23:41:58</title><desc>Picture generated by Eeschema-SVG</desc><path fill-rule="evenodd" d="M630 1018l800 500-800 500V1018" fill-opacity=".6" fill="#ffffc2"/><g stroke-linejoin="round" stroke="#840000" stroke-linecap="round"><path d="M630 1018l800 500-800 500V1018m800 0v1000m100-1300l600-600m-300 900l600-600" stroke-width="120" fill="none"/><path d="M1760 348l370-230-230 370m160 160l370-230-230 370" fill-rule="evenodd" stroke-width="120" fill="#840000"/><path d="M1430 1518h600m-1400 0H30" stroke-width="60" fill="none"/></g><path d="M690 698V198h120l70 20 50 50 20 50 20 90v70l-20 100-20 40-50 50-70 30H690m570-50l20 20-20 30-20-30 20-20v50m-90-480l40-20h120l50 20 20 50v50l-20 40-20 30-50 20-30 20-20 50v30M650 2858l-50-30-20-50v-420m450 470l-50 30h-90l-50-30-20-50v-190l20-40 50-30h90l50 30 20 40v50l-230 50m660 170v-500m0 470l-40 30h-100l-50-30-20-20-20-50v-140l20-50 20-20 50-30h100l40 30" stroke-linejoin="round" stroke="#008484" stroke-linecap="round" stroke-width="60" fill="none"/></svg>