<svg xmlns="http://www.w3.org/2000/svg" height="26" width="27" viewBox="0 0 3000.0021 2888.8918"><title>SVG Picture created as qeda-test.svg date 2017/01/22 23:44:32</title><desc>Picture generated by Eeschema-SVG</desc><path fill-rule="evenodd" d="M1070 859l800 500-800 500V859" fill-opacity=".6" fill="#ffffc2"/><g stroke-linejoin="round" stroke-linecap="round" fill-opacity="0" fill="none"><path d="M1070 859l800 500-800 500V859m600 1000v-200m200 200h-200m200-1000v1000m0-1000h200m0 0v200" stroke="#840000" stroke-width="120"/><path d="M1870 1359h600m-1400 0H470" stroke="#840000" stroke-width="60"/><path d="M1130 539V39h120l70 20 50 50 20 50 20 90v70l-20 100-20 40-50 50-70 30h-120m570-50l20 20-20 30-20-30 20-20v50m-90-480l40-20h120l50 20 20 50v50l-20 40-20 30-50 20-30 20-20 50v30M30 2669l40 30h100l50-30 20-50v-20l-20-50-50-20h-70l-50-20-20-50v-30l20-40 50-30h70l50 30m440 280l-40 30H520l-50-30-20-20-20-50v-140l20-50 20-20 50-30h100l40 30m220 310v-500m210 500v-270l-20-40-50-30h-70l-50 30-20 20m520 290l-50-30-20-20-20-50v-140l20-50 20-20 50-30h70l50 30 20 20 30 50v140l-30 50-20 20-50 30h-70m310-340h190m-120-160v420l20 50 50 30h50m100-340h190m-120-160v420l20 50 50 30h50m170 0v-500m50 310l140 190m0-340l-190 190m350-190l120 340m120-340l-120 340-50 120-20 20-50 20" stroke="#008484" stroke-width="60"/></g></svg>