<svg xmlns="http://www.w3.org/2000/svg" height="25" width="28" viewBox="0 0 3111.1133 2777.7805"><title>SVG Picture created as qeda-test.svg date 2017/01/22 23:40:56</title><desc>Picture generated by Eeschema-SVG</desc><path fill-rule="evenodd" d="M730 908l800 500-800 500V908" fill-opacity=".6" fill="#ffffc2"/><path fill="none" d="M730 908l800 500-800 500V908" stroke-linejoin="round" stroke="#840000" stroke-linecap="round" stroke-width="120"/><path fill-rule="evenodd" d="M2330 908l-800 500 800 500V908" fill-opacity=".6" fill="#ffffc2"/><g stroke-linejoin="round" stroke-linecap="round" fill-opacity="0" fill="none"><path d="M2330 908l-800 500 800 500V908m-800 1000l200 200M1530 908l-200-200m200 200v1000" stroke="#840000" stroke-width="120"/><path d="M2330 1408h700m-2300 0H30" stroke="#840000" stroke-width="60"/><path d="M1190 588V88h120l70 20 50 50 20 50 20 90v70l-20 100-20 40-50 50-70 30h-120m570-50l20 20-20 30-20-30 20-20v50m-90-480l40-20h120l50 20 20 50v50l-20 40-20 30-50 20-30 20-20 50v30m-710 2010h190m-120-160v420l20 50 50 30h50m120-340l120 340 120-340m170 310l40 30h100l50-30 20-50v-20l-20-50-50-20h-70l-50-20-20-50v-30l20-40 50-30h70l50 30" stroke="#008484" stroke-width="60"/></g></svg>