<svg xmlns="http://www.w3.org/2000/svg" height="25" width="19" viewBox="0 0 2111.1126 2777.7805"><title>SVG Picture created as qeda-test.svg date 2017/01/22 23:43:22</title><desc>Picture generated by Eeschema-SVG</desc><path fill-rule="evenodd" d="M630 907l800 500-800 500V907" fill-opacity=".6" fill="#ffffc2"/><g stroke-linejoin="round" stroke-linecap="round" fill-opacity="0" fill="none"><path d="M630 907l800 500-800 500V907m800 1000l200 200M1430 907l-200-200m200 200v1000" stroke="#840000" stroke-width="120"/><path d="M1430 1407h600m-1400 0H30" stroke="#840000" stroke-width="60"/><path d="M690 587V87h120l70 20 50 50 20 50 20 90v70l-20 100-20 40-50 50-70 30H690m570-50l20 20-20 30-20-30 20-20v50m-90-480l40-20h120l50 20 20 50v50l-20 40-20 30-50 20-30 20-20 50v30M90 2407h260L90 2747h260m380-30l-50 30h-90l-50-30-20-50v-190l20-40 50-30h90l50 30 20 40v50l-230 50m450-170v340m0-290l20-20 50-30h70l50 30 20 40v270m430-30l-50 30h-90l-50-30-20-50v-190l20-40 50-30h90l50 30 20 40v50l-230 50m450 170v-340m0 100l20-50 30-20 40-30h50" stroke="#008484" stroke-width="60"/></g></svg>