<svg xmlns="http://www.w3.org/2000/svg" width="46" height="20" viewBox="0 0 5111.1147 2222.2244"><title>SVG Picture created as qeda-test.svg date 2017/01/22 09:03:54</title><desc>Picture generated by Eeschema-SVG</desc><path d="M1530.407 1352.228a500 500 0 0 0-1000 0m2000 0a500 500 0 0 0-1000 0m2000 0a500 500 0 0 0-1000 0m2000 0a500 500 0 0 0-1000 0" fill="none" stroke="#840000" stroke-width="120" stroke-linecap="round" stroke-linejoin="round"/><path d="M530.407 1352.228h-500m4500 0h500" fill="none" stroke="#840000" stroke-width="60" stroke-linecap="round" stroke-linejoin="round"/><path d="M2480.407 532.228h-240v-500m470 450l20 20-20 30-20-30 20-20v50m-90-480l40-20h120l50 20 20 50v50l-20 40-20 30-50 20-30 20-20 50v30m-980 1850h-240v-500m490 0h50l50 20 20 20 30 50 20 100v120l-20 90-30 50-20 20-50 30h-50l-40-30-30-20-20-50-20-90v-120l20-100 20-50 30-20 40-20m460 210l-50-20-20-30-20-40v-30l20-50 20-20 50-20h100l40 20 30 20 20 50v30l-20 40-30 30-40 20h-100l-50 20-20 30-20 50v90l20 50 20 20 50 30h100l40-30 30-20 20-50v-90l-20-50-30-30-40-20m400-210h50l50 20 20 20 30 50 20 100v120l-20 90-30 50-20 20-50 30h-50l-40-30-30-20-20-50-20-90v-120l20-100 20-50 30-20 40-20m630 0h-240l-20 230 20-20 50-20h120l40 20 30 20 20 50v120l-20 50-30 20-40 30h-120l-50-30-20-20" fill="none" stroke="#008484" stroke-width="60" stroke-linecap="round" stroke-linejoin="round"/></svg>