<svg xmlns="http://www.w3.org/2000/svg" height="30" width="28" viewBox="0 0 3111.1133 3333.3366"><title>SVG Picture created as qeda-test.svg date 2017/01/22 10:45:41</title><desc>Picture generated by Eeschema-SVG</desc><rect rx="0" height="1600" width="600" y="20700" x="56700" fill-opacity=".6" transform="translate(-55470 -19837)" fill="#ffffc2"/><g stroke-linejoin="round" stroke-linecap="round" fill-opacity="0" fill="none"><g stroke="#840000" stroke-width="120" transform="translate(-55470 -19837)"><rect rx="0" height="1600" width="600" y="20700" x="56700"/><path d="M56400 21100v800m1200-800v800"/></g><path d="M930 1663H30m2100 0h900" stroke="#840000" stroke-width="60"/><path d="M1310 303v240M1150 43l160 260 170-260m240 450l20 20-20 30-20-30 20-20v50m-90-480l40-20h120l50 20 20 50v50l-20 40-20 30-50 20-30 20-20 50v30M610 3253l-20 20-70 30h-50l-70-30-50-50-20-40-20-100v-70l20-90 20-50 50-50 70-20h50l70 20 20 20m200 430l70 30h120l40-30 30-20 20-50v-50l-20-40-30-30-40-20-100-30-50-20-20-20-20-50v-50l20-50 20-20 50-20h120l70 20m220 480v-500l170 350 160-350v500m240-190h380m190-310h330l-210 500" stroke="#008484" stroke-width="60"/></g></svg>