<svg xmlns:rdf="http://www.w3.org/1999/02/22-rdf-syntax-ns#" xmlns="http://www.w3.org/2000/svg" height="76" width="82" version="1.1" xmlns:cc="http://creativecommons.org/ns#" xmlns:dc="http://purl.org/dc/elements/1.1/" viewBox="0 0 9111.1175 8444.4528">
 <title>SVG Picture created as qeda-test.svg date 2017/01/22 16:04:48</title>
 <desc>Picture generated by Eeschema-SVG</desc>
 <g fill-opacity=".6" transform="translate(-29970 -31586)" stroke-width="0" fill="#ffffc2">
  <rect rx="0" height="5500" width="5e3" y="32500" x="32000"/>
 </g>
 <g stroke-linejoin="round" fill-opacity="0" transform="translate(-29970 -31586)" stroke="#840000" stroke-linecap="round" stroke-width="120">
  <rect rx="0" height="5500" width="5e3" y="32500" x="32000"/>
 </g>
 <g fill-opacity=".6" transform="translate(-29970 -31586)" stroke-width="0" fill="#ffffc2">
  <rect rx="0" height="1600" width="600" y="33200" x="34200"/>
 </g>
 <g stroke-linejoin="round" stroke-linecap="round" fill-opacity="0">
  <g transform="translate(-29970 -31586)" stroke="#840000" stroke-width="120">
   <rect rx="0" height="1600" width="600" y="33200" x="34200"/>
   <polyline points="33900 33600 33900 34400" fill="none;"/>
   <polyline points="35100 33600 35100 34400" fill="none;"/>
  </g>
  <g stroke-width="60">
   <g transform="translate(-29970 -31586)" stroke="#840000">
    <path d="m32000 34000h-2e3"/>
   </g>
   <g transform="translate(-29970 -31586)" stroke="#008484">
    <path d="m32470 33730 330 500"/>
    <path d="m32800 33730-330 500"/>
    <path d="m33260 34230h-280"/>
    <path d="m33120 34230v-500l-50 70-50 50-40 20"/>
   </g>
   <g transform="translate(-29970 -31586)" stroke="#840000">
    <path d="m31140 33880h-280"/>
    <path d="m31000 33880v-500l-50 70-50 50-40 20"/>
    <path d="m34000 38000v2e3"/>
   </g>
   <g transform="translate(-29970 -31586)" stroke="#008484">
    <path d="m34180 37200 20 20 30 70v50l-30 70-50 50-40 20-100 20h-70l-90-20-50-20-50-50-20-70v-50l20-70 20-20"/>
    <path d="m34080 37000v-230"/>
    <path d="m34230 37050-500-160 500-170"/>
    <path d="m34200 36570 30-70v-120l-30-40-20-30-50-20h-50l-40 20-30 30-20 40-30 100-20 50-20 20-50 20h-50l-50-20-20-20-20-50v-120l20-70"/>
    <path d="m33960 36070v-170"/>
    <path d="m34230 35830v240h-500v-240"/>
   </g>
   <g transform="translate(-29970 -31586)" stroke="#840000">
    <path d="m33420 39140-20-20-20-50v-120l20-40 20-30 50-20h50l70 20 290 290v-310"/>
    <path d="m37000 34000h2e3"/>
   </g>
   <g transform="translate(-29970 -31586)" stroke="#008484">
    <path d="m35710 33730 330 500"/>
    <path d="m36040 33730-330 500"/>
    <path d="m36220 33770 20-20 50-20h120l40 20 30 20 20 50v50l-20 70-290 290h310"/>
   </g>
   <g transform="translate(-29970 -31586)" stroke="#840000">
    <path d="m37830 33380h310l-170 190h80l40 20 30 20 20 50v120l-20 50-30 20-40 30h-150l-40-30-30-20"/>
    <path d="m35000 38000v2e3"/>
   </g>
   <g transform="translate(-29970 -31586)" stroke="#008484">
    <path d="m35180 37200 20 20 30 70v50l-30 70-50 50-40 20-100 20h-70l-90-20-50-20-50-50-20-70v-50l20-70 20-20"/>
    <path d="m35080 37000v-230"/>
    <path d="m35230 37050-500-160 500-170"/>
    <path d="m35200 36570 30-70v-120l-30-40-20-30-50-20h-50l-40 20-30 30-20 40-30 100-20 50-20 20-50 20h-50l-50-20-20-20-20-50v-120l20-70"/>
    <path d="m34960 36070v-170"/>
    <path d="m35230 35830v240h-500v-240"/>
   </g>
   <g transform="translate(-29970 -31586)" stroke="#840000">
    <path d="m34540 38910h340"/>
    <path d="m34350 39030 360 110v-300"/>
   </g>
   <g transform="translate(-29970 -31586)" stroke="#008484">
    <path d="m34280 31940v240"/>
    <path d="m34120 31680 160 260 170-260"/>
    <path d="m34690 32130 20 20-20 30-20-30 20-20v50"/>
    <path d="m34600 31700 40-20h120l50 20 20 50v50l-20 40-20 30-50 20-30 20-20 50v30"/>
    <path d="m35420 38570h170"/>
    <path d="m35660 38840h-240v-500h240"/>
    <path d="m36150 38790-20 20-70 30h-50l-70-30-50-50-20-40-20-100v-70l20-90 20-50 50-50 70-20h50l70 20 20 20"/>
    <path d="m36320 38340 330 500"/>
    <path d="m36650 38340-330 500"/>
    <path d="m36850 38650h380"/>
    <path d="m37420 38340h310l-170 190h80l40 20 30 20 20 50v120l-20 50-30 20-40 30h-150l-40-30-30-20"/>
    <path d="m37900 38340h310l-170 190h80l40 20 30 20 20 50v120l-20 50-30 20-40 30h-150l-40-30-30-20"/>
    <path d="m38760 38880-50-20-40-50-70-70-50-20h-50"/>
    <path d="m38520 38840-40-30-50-50-20-90v-170l20-90 50-50 40-20h100l50 20 40 50 30 90v170l-30 90-40 50-50 30h-100"/>
   </g>
  </g>
 </g>
</svg>
