<svg xmlns="http://www.w3.org/2000/svg" width="91" height="136" viewBox="0 0 10111.118 15111.126"><title>SVG Picture created as qeda-test.svg date 2017/01/21 20:55:11</title><desc>Picture generated by Eeschema-SVG</desc><rect x="27000" y="23000" width="5000" height="11000" rx="0" transform="translate(-24969.593 -20919.295)" fill="#ffffc2" fill-opacity=".6"/><rect x="27000" y="23000" width="5000" height="11000" rx="0" fill="none" transform="translate(-24969.593 -20919.295)" stroke="#840000" stroke-width="120" stroke-linecap="round" stroke-linejoin="round"/><g transform="translate(-24969.593 -20919.295)" fill="#840000" stroke="#840000" stroke-width="120" stroke-linecap="round" stroke-linejoin="round"><circle cx="27500" cy="32000" r="250"/><circle cx="27500" cy="31000" r="250"/><circle cx="27500" cy="30000" r="250"/><circle cx="27500" cy="29000" r="250"/><circle cx="27500" cy="28000" r="250"/><circle cx="27500" cy="27000" r="250"/><circle cx="27500" cy="26000" r="250"/><circle cx="27500" cy="25000" r="250"/><circle cx="29500" cy="33500" r="250"/><circle cx="29500" cy="23500" r="250"/><circle cx="31500" cy="31500" r="250"/><circle cx="31500" cy="30500" r="250"/><circle cx="31500" cy="29500" r="250"/><circle cx="31500" cy="28500" r="250"/><circle cx="31500" cy="27500" r="250"/><circle cx="31500" cy="26500" r="250"/><circle cx="31500" cy="25500" r="250"/></g><path d="M2030.407 4080.705h-2000m1140-120h-280m140 0v-500l-50 70-50 50-40 20m1140 1480h-2000m860-580l20-20 50-20h120l40 20 30 20 20 50v50l-20 70-290 290h310m860 1120h-2000m830-620h310l-170 190h80l40 20 30 20 20 50v120l-20 50-30 20-40 30h-150l-40-30-30-20m1170 1170h-2000m1090-460v340m-120-530l-110 360h300m840 1290h-2000m1120-620h-240l-20 230 20-20 50-20h120l40 20 30 20 20 50v120l-20 50-30 20-40 30h-120l-50-30-20-20m1140 1170h-2000m1090-620h-90l-50 20-20 20-50 80-20 90v190l20 50 20 20 50 30h100l40-30 30-20 20-50v-120l-20-50-30-20-40-20h-100l-50 20-20 20-20 50m1140 1340h-2000m830-620h330l-210 500m1050 1120h-2000m950-410l-50-20-20-30-20-40v-30l20-50 20-20 50-20h100l40 20 30 20 20 50v30l-20 40-30 30-40 20h-100l-50 20-20 30-20 50v90l20 50 20 20 50 30h100l40-30 30-20 20-50v-90l-20-50-30-30-40-20m5950-6090h2000m-1100-120h100l50-30 20-20 50-70 20-100v-190l-20-50-30-20-40-20h-100l-50 20-20 20-20 50v120l20 50 20 20 50 30h100l40-30 30-20 20-50m-1140 1410h2000m-1100-120h-280m140 0v-500l-50 70-50 50-40 20m590-140h50l50 20 20 20 30 50 20 100v120l-20 90-30 50-20 20-50 30h-50l-40-30-30-20-20-50-20-90v-120l20-100 20-50 30-20 40-20m-1210 1620h2000m-1100-120h-280m140 0v-500l-50 70-50 50-40 20m760 360h-280m140 0v-500l-50 70-50 50-40 20m-1100 1480h2000m-1100-120h-280m140 0v-500l-50 70-50 50-40 20m480-100l20-20 50-20h120l40 20 30 20 20 50v50l-20 70-290 290h310m-1380 1120h2000m-1100-120h-280m140 0v-500l-50 70-50 50-40 20m450-140h310l-170 190h80l40 20 30 20 20 50v120l-20 50-30 20-40 30h-150l-40-30-30-20m-1070 1170h2000m-1100-120h-280m140 0v-500l-50 70-50 50-40 20m710 20v340m-120-530l-110 360h300m-1400 1290h2000m-1100-120h-280m140 0v-500l-50 70-50 50-40 20m740-140h-240l-20 230 20-20 50-20h120l40 20 30 20 20 50v120l-20 50-30 20-40 30h-120l-50-30-20-20m-3600-8330v-2000m-120 1100v280m0-140h-500l70 50 50 50 20 40m-140-710v90l20 50 20 20 80 50 90 20h190l50-20 20-20 30-50v-100l-30-40-20-30-50-20h-120l-50 20-20 30-20 40v100l20 50 20 20 50 20m340 12100v2000m-120-900v280m0-140h-500l70 50 50 50 20 40m-140-450v-330l500 210" fill="none" stroke="#840000" stroke-width="60" stroke-linecap="round" stroke-linejoin="round"/><path d="M2290.407 1260.705v350l-20 70-50 50-70 30h-50m500-50l20 20-20 30-20-30 20-20v50m-90-480l40-20h120l50 20 20 50v50l-20 40-20 30-50 20-30 20-20 50v30m2440 11850h50l50 20 20 20 30 50 20 100v120l-20 90-30 50-20 20-50 30h-50l-40-30-30-20-20-50-20-90v-120l20-100 20-50 30-20 40-20m410 500h100l50-30 20-20 50-70 20-100v-190l-20-50-30-20-40-20h-100l-50 20-20 20-20 50v120l20 50 20 20 50 30h100l40-30 30-20 20-50m430-210h-90l-50 20-20 20-50 80-20 90v190l20 50 20 20 50 30h100l40-30 30-20 20-50v-120l-20-50-30-20-40-20h-100l-50 20-20 20-20 50m570-70l-50-20-20-30-20-40v-30l20-50 20-20 50-20h100l40 20 30 20 20 50v30l-20 40-30 30-40 20h-100l-50 20-20 30-20 50v90l20 50 20 20 50 30h100l40-30 30-20 20-50v-90l-20-50-30-30-40-20m290-170l20-20 50-20h120l40 20 30 20 20 50v50l-20 70-290 290h310m460-500h-240l-20 230 20-20 50-20h120l40 20 30 20 20 50v120l-20 50-30 20-40 30h-120l-50-30-20-20m450-450h310l-170 190h80l40 20 30 20 20 50v120l-20 50-30 20-40 30h-150l-40-30-30-20m480-450h330l-210 500m620-500h-90l-50 20-20 20-50 80-20 90v190l20 50 20 20 50 30h100l40-30 30-20 20-50v-120l-20-50-30-20-40-20h-100l-50 20-20 20-20 50m760 220h-280m140 0v-500l-50 70-50 50-40 20m450-140h310l-170 190h80l40 20 30 20 20 50v120l-20 50-30 20-40 30h-150l-40-30-30-20" fill="none" stroke="#008484" stroke-width="60" stroke-linecap="round" stroke-linejoin="round"/></svg>