<svg xmlns="http://www.w3.org/2000/svg" width="64" height="70" viewBox="0 0 7111.116 7777.7851"><title>SVG Picture created as qeda-test.svg date 2017/01/21 20:41:14</title><desc>Picture generated by Eeschema-SVG</desc><rect x="43500" y="20000" width="3000" height="6000" rx="0" transform="translate(-41469.593 -19092.21)" fill="#ffffc2" fill-opacity=".6"/><rect x="43500" y="20000" width="3000" height="6000" rx="0" fill="none" transform="translate(-41469.593 -19092.21)" stroke="#840000" stroke-width="120" stroke-linecap="round" stroke-linejoin="round"/><g transform="translate(-41469.593 -19092.21)" fill="#840000" stroke="#840000" stroke-width="120" stroke-linecap="round" stroke-linejoin="round"><circle cx="44000" cy="25000" r="250"/><circle cx="44000" cy="24000" r="250"/><circle cx="44000" cy="23000" r="250"/><circle cx="44000" cy="22000" r="250"/><circle cx="44000" cy="21000" r="250"/><circle cx="46000" cy="25000" r="250"/><circle cx="46000" cy="24000" r="250"/><circle cx="46000" cy="23000" r="250"/><circle cx="46000" cy="22000" r="250"/><circle cx="46000" cy="21000" r="250"/></g><path d="M5030.407 1907.79h2000m-860-120h-280m140 0v-500l-50 70-50 50-40 20m-860 1480h2000m-1140-580l20-20 50-20h120l40 20 30 20 20 50v50l-20 70-290 290h310m-1140 1120h2000m-1170-620h310l-170 190h80l40 20 30 20 20 50v120l-20 50-30 20-40 30h-150l-40-30-30-20m-830 1170h2000m-910-460v340m-120-530l-110 360h300m-1160 1290h2000m-880-620h-240l-20 230 20-20 50-20h120l40 20 30 20 20 50v120l-20 50-30 20-40 30h-120l-50-30-20-20m-3860 170h-2000m1090-620h-90l-50 20-20 20-50 80-20 90v190l20 50 20 20 50 30h100l40-30 30-20 20-50v-120l-20-50-30-20-40-20h-100l-50 20-20 20-20 50m1140-660h-2000m830-620h330l-210 500m1050-880h-2000m950-410l-50-20-20-30-20-40v-30l20-50 20-20 50-20h100l40 20 30 20 20 50v30l-20 40-30 30-40 20h-100l-50 20-20 30-20 50v90l20 50 20 20 50 30h100l40-30 30-20 20-50v-90l-20-50-30-30-40-20m950-590h-2000m900-120h100l50-30 20-20 50-70 20-100v-190l-20-50-30-20-40-20h-100l-50 20-20 20-20 50v120l20 50 20 20 50 30h100l40-30 30-20 20-50m860-590h-2000m900-120h-280m140 0v-500l-50 70-50 50-40 20m590-140h50l50 20 20 20 30 50 20 100v120l-20 90-30 50-20 20-50 30h-50l-40-30-30-20-20-50-20-90v-120l20-100 20-50 30-20 40-20" fill="none" stroke="#840000" stroke-width="60" stroke-linecap="round" stroke-linejoin="round"/><path d="M3390.407 87.79v350l-20 70-50 50-70 30h-50m500-50l20 20-20 30-20-30 20-20v50m-90-480l40-20h120l50 20 20 50v50l-20 40-20 30-50 20-30 20-20 50v30m-310 7320l-40 30h-100l-50-30-20-20-20-50v-140l20-50 20-20 50-30h100l40 30m170-30l100 340 90-240 100 240 90-340" fill="none" stroke="#008484" stroke-width="60" stroke-linecap="round" stroke-linejoin="round"/></svg>