<svg xmlns="http://www.w3.org/2000/svg" width="64" height="70" viewBox="0 0 7111.1161 7777.7855"><title>SVG Picture created as qeda-test.svg date 2017/01/21 20:26:39</title><desc>Picture generated by Eeschema-SVG</desc><rect x="53500" y="28500" width="3000" height="6000" rx="0" transform="translate(-51469.593 -27592.635)" fill="#ffffc2" fill-opacity=".6"/><rect x="53500" y="28500" width="3000" height="6000" rx="0" fill="none" transform="translate(-51469.593 -27592.635)" stroke="#840000" stroke-width="120" stroke-linecap="round" stroke-linejoin="round"/><g transform="translate(-51469.593 -27592.635)" fill="#840000" stroke="#840000" stroke-width="120" stroke-linecap="round" stroke-linejoin="round"><circle cx="54000" cy="33500" r="250"/><circle cx="54000" cy="32500" r="250"/><circle cx="54000" cy="31500" r="250"/><circle cx="54000" cy="30500" r="250"/><circle cx="54000" cy="29500" r="250"/><circle cx="56000" cy="33500" r="250"/><circle cx="56000" cy="32500" r="250"/><circle cx="56000" cy="31500" r="250"/><circle cx="56000" cy="30500" r="250"/><circle cx="56000" cy="29500" r="250"/></g><path d="M5030.407 1907.365h2000m-860-120h-280m140 0v-500l-50 70-50 50-40 20m-3860 480h-2000m860-580l20-20 50-20h120l40 20 30 20 20 50v50l-20 70-290 290h310m3860 1120h2000m-1170-620h310l-170 190h80l40 20 30 20 20 50v120l-20 50-30 20-40 30h-150l-40-30-30-20m-3830 170h-2000m1090-460v340m-120-530l-110 360h300m3840 1290h2000m-880-620h-240l-20 230 20-20 50-20h120l40 20 30 20 20 50v120l-20 50-30 20-40 30h-120l-50-30-20-20m-3860 170h-2000m1090-620h-90l-50 20-20 20-50 80-20 90v190l20 50 20 20 50 30h100l40-30 30-20 20-50v-120l-20-50-30-20-40-20h-100l-50 20-20 20-20 50m4140 1340h2000m-1170-620h330l-210 500m-3950 120h-2000m950-410l-50-20-20-30-20-40v-30l20-50 20-20 50-20h100l40 20 30 20 20 50v30l-20 40-30 30-40 20h-100l-50 20-20 30-20 50v90l20 50 20 20 50 30h100l40-30 30-20 20-50v-90l-20-50-30-30-40-20m3950 1410h2000m-1100-120h100l50-30 20-20 50-70 20-100v-190l-20-50-30-20-40-20h-100l-50 20-20 20-20 50v120l20 50 20 20 50 30h100l40-30 30-20 20-50m-4140 410h-2000m900-120h-280m140 0v-500l-50 70-50 50-40 20m590-140h50l50 20 20 20 30 50 20 100v120l-20 90-30 50-20 20-50 30h-50l-40-30-30-20-20-50-20-90v-120l20-100 20-50 30-20 40-20" fill="none" stroke="#840000" stroke-width="60" stroke-linecap="round" stroke-linejoin="round"/><path d="M3390.407 87.365v350l-20 70-50 50-70 30h-50m500-50l20 20-20 30-20-30 20-20v50m-90-480l40-20h120l50 20 20 50v50l-20 40-20 30-50 20-30 20-20 50v30m-1190 7350v-340m0 50l20-20 50-30h70l50 30 20 40v270m0-270l30-40 40-30h80l40 30 30 40v270m240 0v-340m0-160l-20 20 20 20 20-20-20-20v40m240 460v-340m0 100l20-50 30-20 40-30h50m170 340v-340m0 100l20-50 30-20 40-30h50m240 340l-50-30-20-20-20-50v-140l20-50 20-20 50-30h70l50 30 20 20 30 50v140l-30 50-20 20-50 30h-70m380 0v-340m0 100l20-50 30-20 40-30h50" fill="none" stroke="#008484" stroke-width="60" stroke-linecap="round" stroke-linejoin="round"/></svg>