<svg xmlns="http://www.w3.org/2000/svg" width="37" height="116" viewBox="0 0 4111.114 12888.902"><title>SVG Picture created as qeda-test.svg date 2017/01/21 20:25:10</title><desc>Picture generated by Eeschema-SVG</desc><rect x="48500" y="33000" width="2000" height="11000" rx="0" transform="translate(-48440.02 -32141.092)" fill="#ffffc2" fill-opacity=".6"/><rect x="48500" y="33000" width="2000" height="11000" rx="0" fill="none" transform="translate(-48440.02 -32141.092)" stroke="#840000" stroke-width="120" stroke-linecap="round" stroke-linejoin="round"/><g transform="translate(-48440.02 -32141.092)" fill="#840000" stroke="#840000" stroke-width="120" stroke-linecap="round" stroke-linejoin="round"><circle cx="50000" cy="43000" r="250"/><circle cx="50000" cy="42000" r="250"/><circle cx="50000" cy="41000" r="250"/><circle cx="50000" cy="40000" r="250"/><circle cx="50000" cy="39000" r="250"/><circle cx="50000" cy="38000" r="250"/><circle cx="50000" cy="37000" r="250"/><circle cx="50000" cy="36000" r="250"/><circle cx="50000" cy="35000" r="250"/><circle cx="50000" cy="34000" r="250"/></g><path d="M2059.98 1858.908h2000m-860-120h-280m140 0v-500l-50 70-50 50-40 20m-860 1480h2000m-1140-580l20-20 50-20h120l40 20 30 20 20 50v50l-20 70-290 290h310m-1140 1120h2000m-1170-620h310l-170 190h80l40 20 30 20 20 50v120l-20 50-30 20-40 30h-150l-40-30-30-20m-830 1170h2000m-910-460v340m-120-530l-110 360h300m-1160 1290h2000m-880-620h-240l-20 230 20-20 50-20h120l40 20 30 20 20 50v120l-20 50-30 20-40 30h-120l-50-30-20-20m-860 1170h2000m-910-620h-90l-50 20-20 20-50 80-20 90v190l20 50 20 20 50 30h100l40-30 30-20 20-50v-120l-20-50-30-20-40-20h-100l-50 20-20 20-20 50m-860 1340h2000m-1170-620h330l-210 500m-950 1120h2000m-1050-410l-50-20-20-30-20-40v-30l20-50 20-20 50-20h100l40 20 30 20 20 50v30l-20 40-30 30-40 20h-100l-50 20-20 30-20 50v90l20 50 20 20 50 30h100l40-30 30-20 20-50v-90l-20-50-30-30-40-20m-1050 1410h2000m-1100-120h100l50-30 20-20 50-70 20-100v-190l-20-50-30-20-40-20h-100l-50 20-20 20-20 50v120l20 50 20 20 50 30h100l40-30 30-20 20-50m-1140 1410h2000m-1100-120h-280m140 0v-500l-50 70-50 50-40 20m590-140h50l50 20 20 20 30 50 20 100v120l-20 90-30 50-20 20-50 30h-50l-40-30-30-20-20-50-20-90v-120l20-100 20-50 30-20 40-20" fill="none" stroke="#840000" stroke-width="60" stroke-linecap="round" stroke-linejoin="round"/><g fill="none" fill-opacity="0" stroke="#008484" stroke-width="60" stroke-linecap="round" stroke-linejoin="round"><path d="M919.98 38.908v350l-20 70-50 50-70 30h-50m500-50l20 20-20 30-20-30 20-20v50m-90-480l40-20h120l50 20 20 50v50l-20 40-20 30-50 20-30 20-20 50v30m-1180 12320l40 30h100l50-30 20-50v-20l-20-50-50-20h-70l-50-20-20-50v-30l20-40 50-30h70l50 30m230 310v-340m0-160l-20 20 20 20 20-20-20-20v40m240 120v340m0-290l20-20 50-30h70l50 30 20 40v270m450-340v410l-20 50-20 20-50 20h-70l-50-20"/><path d="M1369.98 12668.908l-40 30h-100l-50-30-20-20-20-50v-140l20-50 20-20 50-30h100l40 30m310 310l-50-30-20-50v-420m450 470l-50 30h-90l-50-30-20-50v-190l20-40 50-30h90l50 30 20 40v50l-230 50"/></g></svg>