<svg xmlns="http://www.w3.org/2000/svg" width="64" height="71" viewBox="0 0 7111.1161 7888.8967"><title>SVG Picture created as qeda-test.svg date 2017/01/21 20:21:42</title><desc>Picture generated by Eeschema-SVG</desc><rect x="34000" y="18500" width="3000" height="6000" rx="0" transform="translate(-31969.593 -17641.524)" fill="#ffffc2" fill-opacity=".6"/><rect x="34000" y="18500" width="3000" height="6000" rx="0" fill="none" transform="translate(-31969.593 -17641.524)" stroke="#840000" stroke-width="120" stroke-linecap="round" stroke-linejoin="round"/><path d="M2280.407 5608.476h500v500h-500v-500m0-1000h500v500h-500v-500m0-1000h500v500h-500v-500m0-1000h500v500h-500v-500m0-1000h500v500h-500v-500m2000 4000h500v500h-500v-500m0-1000h500v500h-500v-500m0-1000h500v500h-500v-500m0-1000h500v500h-500v-500m0-1000h500v500h-500v-500" fill="#840000" stroke="#840000" stroke-width="120" stroke-linecap="round" stroke-linejoin="round" fill-rule="evenodd"/><path d="M2030.407 1858.476h-2000m1140-120h-280m140 0v-500l-50 70-50 50-40 20m4140 480h2000m-1140-580l20-20 50-20h120l40 20 30 20 20 50v50l-20 70-290 290h310m-4140 1120h-2000m830-620h310l-170 190h80l40 20 30 20 20 50v120l-20 50-30 20-40 30h-150l-40-30-30-20m4170 170h2000m-910-460v340m-120-530l-110 360h300m-4160 1290h-2000m1120-620h-240l-20 230 20-20 50-20h120l40 20 30 20 20 50v120l-20 50-30 20-40 30h-120l-50-30-20-20m4140 170h2000m-910-620h-90l-50 20-20 20-50 80-20 90v190l20 50 20 20 50 30h100l40-30 30-20 20-50v-120l-20-50-30-20-40-20h-100l-50 20-20 20-20 50m-3860 1340h-2000m830-620h330l-210 500m4050 120h2000m-1050-410l-50-20-20-30-20-40v-30l20-50 20-20 50-20h100l40 20 30 20 20 50v30l-20 40-30 30-40 20h-100l-50 20-20 30-20 50v90l20 50 20 20 50 30h100l40-30 30-20 20-50v-90l-20-50-30-30-40-20m-4050 1410h-2000m900-120h100l50-30 20-20 50-70 20-100v-190l-20-50-30-20-40-20h-100l-50 20-20 20-20 50v120l20 50 20 20 50 30h100l40-30 30-20 20-50m3860 410h2000m-1100-120h-280m140 0v-500l-50 70-50 50-40 20m590-140h50l50 20 20 20 30 50 20 100v120l-20 90-30 50-20 20-50 30h-50l-40-30-30-20-20-50-20-90v-120l20-100 20-50 30-20 40-20" fill="none" stroke="#840000" stroke-width="60" stroke-linecap="round" stroke-linejoin="round"/><g fill="none" fill-opacity="0" stroke="#008484" stroke-width="60" stroke-linecap="round" stroke-linejoin="round"><path d="M3390.407 38.476v350l-20 70-50 50-70 30h-50m500-50l20 20-20 30-20-30 20-20v50m-90-480l40-20h120l50 20 20 50v50l-20 40-20 30-50 20-30 20-20 50v30m-2190 7320l40 30h100l50-30 20-50v-20l-20-50-50-20h-70l-50-20-20-50v-30l20-40 50-30h70l50 30m440-30v500m0-190l-40 30h-100l-50-30-20-20-20-50v-140l20-50 20-20 50-30h100l40 30m450-30v340m-210-340v260l20 50 50 30h70l50-30 20-20m450 50v-270l-20-40-50-30h-90l-50 30"/><path d="M3040.407 7668.476l-40 30h-120l-50-30-20-50v-40l20-50 50-20h120l40-30m240 220v-340m0 100l20-50 30-20 40-30h50m360 310l-50 30h-90l-50-30-20-50v-190l20-40 50-30h90l50 30 20 40v50l-230 50m450-20h380m240-150v500m0-470l50-30h90l50 30 20 20 30 50v140l-30 50-20 20-50 30h-90l-50-30m450 30v-340m0-160l-20 20 20 20 20-20-20-20v40m240 120v340m0-290l20-20 50-30h70l50 30 20 40v270"/></g></svg>