<svg viewBox="0.0 0.0 400.8005249343832 604.1994750656168" fill="none" stroke-linecap="square" stroke-miterlimit="10" xmlns="http://www.w3.org/2000/svg"><clipPath id="a"><path d="M0 0h400.8v604.2H0V0z"/></clipPath><g clip-path="url(#a)"><path d="M0 0h400.8v604.2H0z"/><path fill="#2b4b76" d="M8 382.6c0-8.064 6.536-14.6 14.6-14.6h274.8a14.6 14.6 0 0 1 14.6 14.6v178.8c0 8.064-6.536 14.6-14.6 14.6H22.6C14.536 576 8 569.464 8 561.4z"/><path fill="#60a5d4" d="M24 400c0-8.837 7.163-16 16-16a16 16 0 0 1 16 16c0 8.837-7.163 16-16 16s-16-7.163-16-16zm48 0c0-8.837 7.163-16 16-16a16 16 0 0 1 16 16c0 8.837-7.163 16-16 16s-16-7.163-16-16zm48 0c0-8.837 7.163-16 16-16a16 16 0 0 1 16 16c0 8.837-7.163 16-16 16s-16-7.163-16-16zm48 0c0-8.837 7.163-16 16-16a16 16 0 0 1 16 16c0 8.837-7.163 16-16 16s-16-7.163-16-16z"/><path fill="#fff" d="M144 120a8 8 0 1 1 16 0 8 8 0 0 1-16 0z"/><path fill="#60a5d4" d="M24 40c0-8.837 7.163-16 16-16a16 16 0 0 1 16 16c0 8.837-7.163 16-16 16s-16-7.163-16-16zm48 0c0-8.837 7.163-16 16-16a16 16 0 0 1 16 16c0 8.837-7.163 16-16 16s-16-7.163-16-16zm48 0c0-8.837 7.163-16 16-16a16 16 0 0 1 16 16c0 8.837-7.163 16-16 16s-16-7.163-16-16zm48 0c0-8.837 7.163-16 16-16a16 16 0 0 1 16 16c0 8.837-7.163 16-16 16s-16-7.163-16-16z"/><path d="M8 112V80"/><path stroke="#000" stroke-linejoin="round" stroke-linecap="butt" d="M8 112V80"/><path d="M312 112V80"/><path stroke="#000" stroke-linejoin="round" stroke-linecap="butt" d="M312 112V80"/><path d="M8 88h304"/><path stroke="#000" stroke-linejoin="round" stroke-linecap="butt" d="M12.381 88H307.62"/><path fill="#000" stroke="#000" stroke-linecap="butt" d="M12.381 88l1.67-1.67L9.462 88l4.59 1.67zm295.238 0l-1.67 1.67 4.59-1.67-4.59-1.67z" fill-rule="evenodd"/><path d="M336 104h-32"/><path stroke="#000" stroke-linejoin="round" stroke-linecap="butt" d="M336 104h-32"/><path d="M336 312h-32"/><path stroke="#000" stroke-linejoin="round" stroke-linecap="butt" d="M336 312h-32"/><path d="M328 104v208"/><path stroke="#000" stroke-linejoin="round" stroke-linecap="butt" d="M328 108.381V307.62"/><path fill="#000" stroke="#000" stroke-linecap="butt" d="M328 108.381l1.67 1.67-1.67-4.59-1.67 4.59zm0 199.238l-1.67-1.67 1.67 4.59 1.67-4.59z" fill-rule="evenodd"/><path d="M280 56h56"/><path stroke="#000" stroke-linejoin="round" stroke-linecap="butt" d="M280 56h56"/><path d="M304 8h32"/><path stroke="#000" stroke-linejoin="round" stroke-linecap="butt" d="M304 8h32"/><path d="M99.307 555.314L120 576.007"/><path stroke="#fff" stroke-linejoin="round" stroke-linecap="butt" d="M99.307 555.314L120 576.007"/><path d="M120 576l24 24"/><path stroke="#000" stroke-linejoin="round" stroke-linecap="butt" d="M120 576l24 24"/><path fill="#60a5d4" d="M216 400c0-8.837 7.163-16 16-16a16 16 0 0 1 16 16c0 8.837-7.163 16-16 16s-16-7.163-16-16zm48 0c0-8.837 7.163-16 16-16a16 16 0 0 1 16 16c0 8.837-7.163 16-16 16s-16-7.163-16-16zM24 448c0-8.837 7.163-16 16-16a16 16 0 0 1 16 16c0 8.837-7.163 16-16 16s-16-7.163-16-16zm48 0c0-8.837 7.163-16 16-16a16 16 0 0 1 16 16c0 8.837-7.163 16-16 16s-16-7.163-16-16zm48 0c0-8.837 7.163-16 16-16a16 16 0 0 1 16 16c0 8.837-7.163 16-16 16s-16-7.163-16-16zm48 0c0-8.837 7.163-16 16-16a16 16 0 0 1 16 16c0 8.837-7.163 16-16 16s-16-7.163-16-16zm48 0c0-8.837 7.163-16 16-16a16 16 0 0 1 16 16c0 8.837-7.163 16-16 16s-16-7.163-16-16zm48 0c0-8.837 7.163-16 16-16a16 16 0 0 1 16 16c0 8.837-7.163 16-16 16s-16-7.163-16-16zM24 496c0-8.837 7.163-16 16-16a16 16 0 0 1 16 16c0 8.837-7.163 16-16 16s-16-7.163-16-16zm48 0c0-8.837 7.163-16 16-16a16 16 0 0 1 16 16c0 8.837-7.163 16-16 16s-16-7.163-16-16zm48 0c0-8.837 7.163-16 16-16a16 16 0 0 1 16 16c0 8.837-7.163 16-16 16s-16-7.163-16-16zm48 0c0-8.837 7.163-16 16-16a16 16 0 0 1 16 16c0 8.837-7.163 16-16 16s-16-7.163-16-16zm48 0c0-8.837 7.163-16 16-16a16 16 0 0 1 16 16c0 8.837-7.163 16-16 16s-16-7.163-16-16zm48 0c0-8.837 7.163-16 16-16a16 16 0 0 1 16 16c0 8.837-7.163 16-16 16s-16-7.163-16-16zM72 544c0-8.837 7.163-16 16-16a16 16 0 0 1 16 16c0 8.837-7.163 16-16 16s-16-7.163-16-16zm48 0c0-8.837 7.163-16 16-16a16 16 0 0 1 16 16c0 8.837-7.163 16-16 16s-16-7.163-16-16zm48 0c0-8.837 7.163-16 16-16a16 16 0 0 1 16 16c0 8.837-7.163 16-16 16s-16-7.163-16-16zm48 0c0-8.837 7.163-16 16-16a16 16 0 0 1 16 16c0 8.837-7.163 16-16 16s-16-7.163-16-16zm48 0c0-8.837 7.163-16 16-16a16 16 0 0 1 16 16c0 8.837-7.163 16-16 16s-16-7.163-16-16zm-240 0c0-8.837 7.163-16 16-16a16 16 0 0 1 16 16c0 8.837-7.163 16-16 16s-16-7.163-16-16z"/><path d="M76.686 532.686L99.3 555.3"/><path stroke="#fff" stroke-linejoin="round" stroke-linecap="butt" d="M79.784 535.784l16.419 16.419"/><path fill="#fff" stroke="#fff" stroke-linecap="butt" d="M79.784 535.784h2.363l-4.427-2.064 2.064 4.427zm16.419 16.419H93.84l4.427 2.064-2.064-4.427z" fill-rule="evenodd"/><path fill="#2b4b76" d="M8 118.6c0-8.064 6.536-14.6 14.6-14.6h274.8a14.6 14.6 0 0 1 14.6 14.6v178.8c0 8.064-6.536 14.6-14.6 14.6H22.6C14.536 312 8 305.464 8 297.4z"/><path d="M144 600h72"/><path stroke="#000" stroke-linejoin="round" stroke-linecap="butt" d="M144 600h72"/><path d="M88 368v-24"/><path stroke="#000" stroke-linejoin="round" stroke-linecap="butt" d="M88 368v-24"/><path d="M40 368v-24"/><path stroke="#000" stroke-linejoin="round" stroke-linecap="butt" d="M40 368v-24"/><path d="M40 352h48"/><path stroke="#000" stroke-linejoin="round" stroke-linecap="butt" d="M44.381 352H83.62"/><path fill="#000" stroke="#000" stroke-linecap="butt" d="M44.381 352l1.67-1.67-4.59 1.67 4.59 1.67zm39.238 0l-1.67 1.67 4.59-1.67-4.59-1.67z" fill-rule="evenodd"/><path d="M40 368v32"/><path stroke="#fff" stroke-linejoin="round" stroke-linecap="butt" d="M40 368v32"/><path d="M88 368v32"/><path stroke="#fff" stroke-linejoin="round" stroke-linecap="butt" d="M88 368v32"/><path d="M312 400h-32"/><path stroke="#fff" stroke-linejoin="round" stroke-linecap="butt" d="M312 400h-32"/><path d="M312 448h-32"/><path stroke="#fff" stroke-linejoin="round" stroke-linecap="butt" d="M312 448h-32"/><path d="M312 400h24"/><path stroke="#000" stroke-linejoin="round" stroke-linecap="butt" d="M312 400h24"/><path d="M328 400v48"/><path stroke="#000" stroke-linejoin="round" stroke-linecap="butt" d="M328 404.381v39.238"/><path fill="#000" stroke="#000" stroke-linecap="butt" d="M328 404.381l1.67 1.67-1.67-4.59-1.67 4.59zm0 39.238l-1.67-1.67 1.67 4.59 1.67-4.59z" fill-rule="evenodd"/><path d="M312 448h24"/><path stroke="#000" stroke-linejoin="round" stroke-linecap="butt" d="M312 448h24"/><path d="M312 496H40"/><path stroke="#fff" stroke-linejoin="round" stroke-linecap="butt" stroke-dasharray="4.0,3.0" d="M312 496H40"/><path d="M312 496h16"/><path stroke="#000" stroke-linejoin="round" stroke-linecap="butt" d="M312 496h16"/><path d="M232 544V368"/><path stroke="#fff" stroke-linejoin="round" stroke-linecap="butt" stroke-dasharray="4.0,3.0" d="M232 544V368"/><path d="M232 368v-16"/><path stroke="#000" stroke-linejoin="round" stroke-linecap="butt" d="M232 368v-16"/><path d="M24 312h80v40H24z"/><path fill="#000" d="M42.236 322.757l.782.094q-.125.812-.657 1.265-.53.453-1.296.453-.954 0-1.532-.625-.578-.625-.578-1.797 0-.765.25-1.328.25-.562.75-.843.516-.282 1.125-.282.75 0 1.235.391.484.375.625 1.078l-.766.125q-.11-.469-.39-.703-.282-.25-.673-.25-.609 0-.984.437-.36.422-.36 1.344 0 .953.36 1.375.36.422.938.422.468 0 .78-.281.313-.281.391-.875zm1.32-.625q0-1.297.72-1.922.609-.516 1.468-.516.97 0 1.578.625.61.625.61 1.735 0 .906-.281 1.422-.266.515-.782.812-.515.281-1.125.281-.984 0-1.593-.625-.594-.64-.594-1.812zm.813 0q0 .89.39 1.344.392.437.985.437.594 0 .985-.437.39-.454.39-1.375 0-.86-.39-1.313-.39-.453-.985-.453-.593 0-.984.453-.39.438-.39 1.344zm4.657 2.328v-6.438h.781v6.438h-.781zm5.15 0v-.688q-.546.797-1.484.797-.406 0-.766-.156-.359-.172-.546-.406-.172-.235-.235-.578-.047-.235-.047-.75v-2.89h.782v2.593q0 .625.062.828.063.312.297.5.25.172.61.172.359 0 .671-.172.313-.188.438-.5.125-.313.125-.922v-2.5h.797v4.672h-.704zm2.126 0v-4.672h.703v.656q.219-.343.578-.547.375-.203.844-.203.515 0 .844.22.328.202.468.593.563-.813 1.438-.813.703 0 1.078.391.375.375.375 1.172v3.203h-.797v-2.938q0-.484-.078-.687-.063-.203-.266-.328-.203-.14-.484-.14-.484 0-.813.327-.328.328-.328 1.047v2.719h-.797v-3.031q0-.532-.187-.797-.188-.266-.625-.266-.344 0-.625.188-.281.172-.406.515-.125.328-.125.97v2.421h-.797zm7.77 0v-4.672h.719v.672q.5-.766 1.484-.766.422 0 .766.157.36.14.531.39.172.235.25.578.047.22.047.766v2.875h-.797v-2.844q0-.484-.094-.719-.093-.234-.328-.375-.234-.156-.547-.156-.5 0-.875.328-.359.313-.359 1.22v2.546h-.797zm5.282 0v-6.438h2.437q.641 0 .985.063.468.078.781.297.328.219.516.625.203.39.203.875 0 .828-.532 1.39-.515.563-1.875.563h-1.656v2.625h-.86zm.86-3.375h1.671q.813 0 1.156-.313.36-.312.36-.859 0-.406-.203-.687-.204-.297-.547-.391-.203-.063-.797-.063h-1.64v2.313zm5.268-2.156v-.907h.797v.907h-.797zm0 5.531v-4.672h.797v4.672h-.797zm3.807-.703l.109.687q-.344.078-.594.078-.437 0-.672-.14-.234-.14-.343-.36-.094-.218-.094-.921v-2.688h-.578v-.625h.578v-1.156l.797-.469v1.625h.797v.625h-.797v2.719q0 .344.031.437.047.094.14.157.094.062.266.062.14 0 .36-.031zm3.904-1l.781.094q-.125.812-.656 1.265-.531.453-1.297.453-.953 0-1.531-.625t-.578-1.797q0-.765.25-1.328.25-.562.75-.843.515-.282 1.125-.282.75 0 1.234.391.484.375.625 1.078l-.766.125q-.109-.469-.39-.703-.282-.25-.672-.25-.61 0-.985.437-.359.422-.359 1.344 0 .953.36 1.375.359.422.937.422.469 0 .781-.281.313-.281.39-.875zm1.617 1.703v-6.438h.797v2.313q.547-.64 1.39-.64.516 0 .891.202.39.204.547.563.172.36.172 1.047v2.953h-.781v-2.953q0-.594-.266-.86-.25-.28-.719-.28-.36 0-.672.187-.312.172-.437.484-.125.313-.125.875v2.547h-.797zm-24.52 9.234q0-1.375.813-2.265.656-.735 1.734-.735.844 0 1.36.532.515.515.515 1.406 0 .812-.328 1.5-.328.687-.922 1.062-.593.375-1.265.375-.547 0-1-.234-.438-.234-.672-.656-.235-.438-.235-.985zm.797-.078q0 .656.313 1 .328.328.812.328.25 0 .5-.093.25-.11.469-.313.219-.219.36-.484.156-.266.25-.578.14-.438.14-.844 0-.625-.328-.969-.313-.36-.797-.36-.375 0-.687.188-.297.172-.547.516-.25.344-.375.797-.11.453-.11.812zm4.25 1.844l.985-4.672h.703l-.203.953q.36-.531.703-.781.344-.266.703-.266.235 0 .594.172l-.328.735q-.203-.157-.453-.157-.422 0-.86.47-.437.468-.687 1.671l-.39 1.875h-.766zm-10.595 12.781v-6.453h.719v.61q.25-.36.562-.532.328-.172.797-.172.594 0 1.047.313.453.297.687.86.235.562.235 1.218 0 .719-.266 1.297-.25.578-.734.89-.485.297-1.032.297-.39 0-.703-.172-.312-.171-.515-.421v2.265h-.797zm.719-4.094q0 .907.359 1.344.375.422.89.422.516 0 .891-.437.39-.454.39-1.391 0-.89-.374-1.328-.36-.453-.875-.453-.5 0-.89.484-.391.469-.391 1.36zm4.469-3.218v-.907h.797v.907h-.797zm0 5.531v-4.672h.797v4.672h-.797zm3.806-.703l.11.687q-.344.078-.594.078-.437 0-.672-.14-.234-.14-.344-.36-.093-.218-.093-.921v-2.688h-.578v-.625h.578v-1.156l.797-.469v1.625h.796v.625h-.796v2.719q0 .344.03.437.048.094.141.157.094.062.266.062.14 0 .36-.031zm3.905-1l.78.094q-.124.812-.655 1.265-.532.453-1.297.453-.953 0-1.531-.625-.579-.625-.579-1.797 0-.765.25-1.328.25-.562.75-.843.516-.282 1.125-.282.75 0 1.235.391.484.375.625 1.078l-.766.125q-.11-.469-.39-.703-.282-.25-.672-.25-.61 0-.985.437-.36.422-.36 1.344 0 .953.36 1.375.36.422.938.422.469 0 .781-.281.313-.281.39-.875zm1.617 1.703v-6.438h.797v2.313q.547-.64 1.39-.64.516 0 .89.202.392.204.548.563.172.36.172 1.047v2.953h-.782v-2.953q0-.594-.265-.86-.25-.28-.719-.28-.36 0-.672.187-.312.172-.437.484-.125.313-.125.875v2.547h-.797z"/><path d="M328 400h80v48h-80z"/><path fill="#000" d="M337.578 416.46v-4.672h.719v.719q.265-.5.5-.656.234-.157.515-.157.391 0 .813.25l-.281.735q-.282-.172-.578-.172-.25 0-.47.156-.202.156-.296.438-.125.421-.125.921v2.438h-.797zm2.825-2.328q0-1.297.719-1.922.61-.516 1.469-.516.968 0 1.578.625.61.625.61 1.735 0 .906-.282 1.422-.266.515-.781.812-.516.281-1.125.281-.985 0-1.594-.625-.594-.64-.594-1.812zm.813 0q0 .89.39 1.344.39.437.985.437.593 0 .984-.437.39-.454.39-1.375 0-.86-.39-1.313-.39-.453-.984-.453t-.985.453q-.39.438-.39 1.344zm5.531 2.328l-1.422-4.672h.813l.75 2.703.266 1q.015-.078.25-.969l.734-2.734h.812l.704 2.719.234.89.266-.906.796-2.703h.766l-1.453 4.672h-.813l-.75-2.797-.187-.797-.938 3.594h-.828zm5.971 0v-6.438h2.438q.64 0 .984.063.469.078.781.297.328.219.516.625.203.39.203.875 0 .828-.531 1.39-.516.563-1.875.563h-1.656v2.625h-.86zm.86-3.375h1.671q.813 0 1.157-.313.36-.312.36-.859 0-.406-.204-.687-.203-.297-.547-.391-.203-.063-.797-.063h-1.64v2.313zm5.268-2.156v-.906h.797v.906h-.797zm0 5.531v-4.672h.797v4.672h-.797zm3.807-.703l.11.687q-.344.078-.594.078-.438 0-.672-.14-.235-.14-.344-.36-.094-.218-.094-.921v-2.688h-.578v-.625h.578v-1.156l.797-.469v1.625h.797v.625h-.797v2.719q0 .344.031.437.047.094.141.157.094.062.266.062.14 0 .359-.031zm3.904-1l.781.094q-.125.812-.656 1.265-.531.453-1.297.453-.953 0-1.53-.625-.58-.625-.58-1.797 0-.765.25-1.328.25-.562.75-.843.517-.282 1.126-.282.75 0 1.234.391.485.375.625 1.078l-.765.125q-.11-.469-.39-.703-.282-.25-.673-.25-.61 0-.984.438-.36.421-.36 1.343 0 .953.36 1.375.36.422.937.422.47 0 .782-.281.312-.281.39-.875zm1.617 1.703v-6.438h.797v2.313q.547-.64 1.39-.64.516 0 .891.202.391.204.547.563.172.36.172 1.047v2.953h-.781v-2.953q0-.594-.266-.86-.25-.28-.718-.28-.36 0-.672.187-.313.172-.438.484-.125.313-.125.875v2.547h-.797zm-30.736 9.234q0-1.375.812-2.265.656-.735 1.734-.735.844 0 1.36.532.515.515.515 1.406 0 .812-.328 1.5-.328.687-.922 1.062-.593.375-1.265.375-.547 0-1-.234-.438-.234-.672-.656-.235-.438-.235-.985zm.796-.078q0 .656.313 1 .328.328.812.328.25 0 .5-.093.25-.11.47-.313.218-.219.358-.484.157-.266.25-.578.141-.438.141-.844 0-.625-.328-.969-.313-.36-.797-.36-.375 0-.687.188-.297.172-.547.516-.25.344-.375.797-.11.453-.11.812zm4.25 1.844l.985-4.672h.703l-.203.953q.36-.531.703-.781.344-.266.703-.266.235 0 .594.172l-.328.735q-.203-.157-.453-.157-.422 0-.86.47-.437.468-.687 1.671l-.39 1.875h-.766zm-4.89 12.781v-6.453h.719v.61q.25-.36.562-.532.328-.172.797-.172.594 0 1.047.313.453.297.687.86.235.562.235 1.218 0 .719-.266 1.297-.25.578-.734.89-.485.297-1.032.297-.39 0-.703-.172-.312-.171-.515-.421v2.265h-.797zm.719-4.094q0 .907.359 1.344.375.422.89.422.516 0 .891-.437.39-.454.39-1.391 0-.89-.374-1.328-.36-.453-.875-.453-.5 0-.89.484-.392.469-.392 1.36zm4.469-3.218v-.907h.796v.907h-.796zm0 5.531v-4.672h.796v4.672h-.796zm3.806-.703l.11.687q-.344.078-.594.078-.437 0-.672-.14-.234-.14-.344-.36-.093-.218-.093-.921v-2.688h-.578v-.625h.578v-1.156l.797-.469v1.625h.796v.625h-.796v2.719q0 .344.03.437.048.094.141.157.094.062.266.062.14 0 .36-.031zm3.905-1l.78.094q-.124.812-.655 1.265-.532.453-1.297.453-.953 0-1.532-.625-.578-.625-.578-1.797 0-.765.25-1.328.25-.562.75-.843.516-.282 1.125-.282.75 0 1.235.391.484.375.625 1.078l-.766.125q-.11-.469-.39-.703-.282-.25-.672-.25-.61 0-.985.437-.36.422-.36 1.344 0 .953.36 1.375.36.422.938.422.468 0 .78-.281.313-.281.392-.875zm1.617 1.703v-6.438h.797v2.313q.546-.64 1.39-.64.516 0 .89.202.391.204.548.563.172.36.172 1.047v2.953h-.782v-2.953q0-.594-.265-.86-.25-.28-.719-.28-.36 0-.672.187-.312.172-.437.484-.125.313-.125.875v2.547h-.797z"/><path d="M328 488h80v16h-80z"/><path fill="#000" d="M340.64 497.757l.782.094q-.125.812-.656 1.265-.532.453-1.297.453-.953 0-1.532-.625-.578-.625-.578-1.797 0-.765.25-1.328.25-.562.75-.843.516-.282 1.125-.282.75 0 1.235.391.484.375.625 1.078l-.766.125q-.11-.469-.39-.703-.282-.25-.672-.25-.61 0-.985.437-.36.422-.36 1.344 0 .953.36 1.375.36.422.938.422.468 0 .781-.281.312-.281.39-.875zm1.32-.625q0-1.297.72-1.922.61-.516 1.468-.516.97 0 1.579.625t.609 1.735q0 .906-.281 1.422-.266.515-.782.812-.515.281-1.125.281-.984 0-1.593-.625-.594-.64-.594-1.812zm.813 0q0 .89.391 1.344.39.437.984.437t.985-.437q.39-.454.39-1.375 0-.86-.39-1.313-.39-.453-.985-.453-.593 0-.984.453-.39.438-.39 1.344zm4.657 2.328v-6.438h.781v6.438h-.781zm5.15 0v-.688q-.546.797-1.484.797-.406 0-.765-.156-.36-.172-.547-.406-.172-.235-.235-.578-.047-.235-.047-.75v-2.89h.782v2.593q0 .625.062.828.063.312.297.5.25.172.61.172.359 0 .671-.172.313-.188.438-.5.125-.313.125-.922v-2.5h.797v4.672h-.703zm2.126 0v-4.672h.703v.656q.219-.343.578-.547.375-.203.844-.203.516 0 .844.22.328.202.468.593.563-.813 1.438-.813.703 0 1.078.391.375.375.375 1.172v3.203h-.797v-2.938q0-.484-.078-.687-.062-.203-.266-.328-.203-.14-.484-.14-.484 0-.812.327-.329.328-.329 1.047v2.719h-.796v-3.031q0-.532-.188-.797-.187-.266-.625-.266-.344 0-.625.188-.281.172-.406.515-.125.328-.125.97v2.421h-.797zm7.77 0v-4.672h.72v.672q.5-.766 1.483-.766.422 0 .766.157.36.14.531.39.172.235.25.578.047.22.047.766v2.875h-.797v-2.844q0-.484-.093-.719-.094-.234-.329-.375-.234-.156-.546-.156-.5 0-.875.328-.36.313-.36 1.22v2.546h-.797zm9.891-2.266l.844.22q-.266 1.046-.969 1.608-.687.547-1.703.547-1.031 0-1.687-.422-.657-.421-1-1.218-.328-.813-.328-1.735 0-1.015.375-1.765.39-.75 1.093-1.125.72-.39 1.563-.39.969 0 1.625.5.672.483.922 1.374l-.844.188q-.219-.704-.64-1.016-.423-.328-1.079-.328-.734 0-1.234.36-.5.359-.703.968-.203.594-.203 1.219 0 .828.234 1.453.25.61.75.906.5.297 1.094.297.718 0 1.203-.406.5-.422.687-1.235zm1.737-.062q0-1.297.719-1.922.609-.516 1.468-.516.97 0 1.578.625.61.625.61 1.735 0 .906-.281 1.422-.266.515-.782.812-.515.281-1.125.281-.984 0-1.593-.625-.594-.64-.594-1.812zm.812 0q0 .89.39 1.344.392.437.985.437.594 0 .985-.437.39-.454.39-1.375 0-.86-.39-1.313-.39-.453-.985-.453-.593 0-.984.453-.39.438-.39 1.344zm7.735 2.328v-.688q-.547.797-1.484.797-.407 0-.766-.156-.36-.172-.547-.406-.172-.235-.234-.578-.047-.235-.047-.75v-2.89h.781v2.593q0 .625.063.828.062.312.297.5.25.172.609.172.36 0 .672-.172.312-.188.437-.5.125-.313.125-.922v-2.5h.797v4.672h-.703zm2.125 0v-4.672h.72v.672q.5-.766 1.484-.766.421 0 .765.157.36.14.531.39.172.235.25.578.047.22.047.766v2.875h-.797v-2.844q0-.484-.093-.719-.094-.234-.328-.375-.235-.156-.547-.156-.5 0-.875.328-.36.313-.36 1.22v2.546h-.797zm6.923-.703l.109.687q-.344.078-.594.078-.437 0-.672-.14-.234-.14-.343-.36-.094-.218-.094-.921v-2.688h-.578v-.625h.578v-1.156l.797-.469v1.625h.797v.625h-.797v2.719q0 .344.031.437.047.094.14.157.094.062.266.062.14 0 .36-.031z"/><path d="M144 584h80v16h-80z"/><path fill="#000" d="M153.578 595.46v-6.438h.781v6.438h-.78zm5.276-1.5l.828.094q-.203.719-.735 1.125-.515.39-1.328.39-1.015 0-1.625-.625-.593-.64-.593-1.78 0-1.173.609-1.813.61-.657 1.578-.657.938 0 1.516.641.593.625.593 1.781v.219h-3.484q.047.766.438 1.172.39.406.984.406.437 0 .734-.219.313-.234.485-.734zm-2.594-1.281h2.61q-.048-.594-.298-.89-.375-.454-.984-.454-.547 0-.922.375-.36.36-.406.969zm7.64 2.203q-.437.375-.843.531-.406.156-.875.156-.765 0-1.187-.375-.407-.375-.407-.968 0-.344.157-.625.156-.282.406-.453.25-.172.562-.266.235-.047.704-.11.968-.109 1.421-.28v-.204q0-.484-.218-.672-.313-.281-.907-.281-.562 0-.828.203-.265.188-.39.688l-.766-.094q.094-.5.328-.797.25-.313.703-.469.469-.172 1.063-.172.61 0 .969.141.375.14.546.36.188.202.25.53.047.204.047.72v1.062q0 1.094.047 1.39.047.297.203.563h-.828q-.125-.25-.156-.578zm-.062-1.766q-.437.172-1.296.297-.485.078-.688.172-.203.078-.312.25-.11.172-.11.375 0 .313.235.531.234.203.703.203.453 0 .812-.203.36-.203.531-.547.125-.265.125-.78v-.298zm5.235 2.344v-.594q-.453.703-1.312.703-.547 0-1.016-.312-.469-.313-.734-.86-.25-.546-.25-1.265 0-.703.234-1.266.234-.578.688-.875.468-.297 1.046-.297.422 0 .75.172.329.172.532.469v-2.313h.797v6.438h-.735zm-2.5-2.328q0 .89.375 1.344.375.437.89.437.516 0 .876-.422.375-.422.375-1.297 0-.953-.375-1.406-.375-.453-.906-.453-.532 0-.891.438-.344.437-.344 1.359zm4.75 2.328v-6.438h2.22q.765 0 1.156.094.546.125.937.453.516.438.766 1.11.25.656.25 1.531 0 .734-.172 1.297-.172.562-.438.937-.265.375-.593.594-.313.203-.766.313-.438.109-1.031.109h-2.328zm.86-.766h1.375q.64 0 1-.109.36-.125.578-.344.297-.297.469-.812.172-.516.172-1.235 0-1.015-.328-1.546-.329-.547-.813-.735-.344-.14-1.094-.14h-1.36v4.921zm5.783-4.765v-.906h.797v.906h-.797zm0 5.531v-4.672h.797v4.672h-.797zm5.12-.578q-.438.375-.844.531-.406.156-.875.156-.766 0-1.188-.375-.406-.375-.406-.968 0-.344.156-.625.157-.282.407-.453.25-.172.562-.266.234-.047.703-.11.969-.109 1.422-.28v-.204q0-.484-.219-.672-.312-.281-.906-.281-.562 0-.828.203-.266.188-.39.688l-.766-.094q.093-.5.328-.797.25-.313.703-.469.469-.172 1.062-.172.61 0 .97.141.374.14.546.36.188.202.25.53.047.204.047.72v1.062q0 1.094.047 1.39.047.297.203.563h-.828q-.125-.25-.156-.578zm-.063-1.766q-.437.172-1.297.297-.484.078-.687.172-.203.078-.313.25-.11.172-.11.375 0 .313.235.531.235.203.703.203.453 0 .813-.203.36-.203.531-.547.125-.265.125-.78v-.298zm2.204 2.344v-4.672h.703v.656q.218-.343.578-.546.375-.204.844-.204.515 0 .843.22.328.202.469.593.563-.813 1.438-.813.703 0 1.078.391.375.375.375 1.172v3.203h-.797v-2.938q0-.484-.078-.687-.063-.203-.266-.328-.203-.14-.484-.14-.485 0-.813.327-.328.329-.328 1.047v2.719h-.797v-3.031q0-.531-.187-.797-.188-.266-.625-.266-.344 0-.625.188-.282.172-.407.515-.125.329-.125.97v2.421h-.796zm10.957-1.5l.829.094q-.204.719-.735 1.125-.515.39-1.328.39-1.016 0-1.625-.625-.594-.64-.594-1.78 0-1.173.61-1.813.61-.657 1.578-.657.937 0 1.515.641.594.625.594 1.781v.219h-3.484q.047.766.437 1.172.39.406.985.406.437 0 .734-.219.313-.234.484-.734zm-2.593-1.281h2.61q-.048-.594-.298-.89-.375-.454-.984-.454-.547 0-.922.375-.36.36-.406.969zm6.328 2.078l.11.687q-.344.079-.594.079-.438 0-.672-.141-.234-.14-.344-.36-.094-.218-.094-.921v-2.688h-.578v-.625h.578v-1.156l.797-.469v1.625h.797v.625h-.797v2.719q0 .344.032.437.046.094.14.157.094.062.266.062.14 0 .36-.031zm4.045-.797l.828.094q-.203.719-.734 1.125-.516.39-1.328.39-1.016 0-1.625-.625-.594-.64-.594-1.78 0-1.173.61-1.813.609-.657 1.577-.657.938 0 1.516.641.594.625.594 1.781v.219h-3.485q.047.766.438 1.172.39.406.984.406.438 0 .735-.219.312-.234.484-.734zm-2.594-1.281h2.61q-.047-.594-.297-.89-.375-.454-.985-.454-.547 0-.922.375-.359.36-.406.969zm4.579 2.781v-4.672h.718v.719q.266-.5.5-.656.235-.157.516-.157.39 0 .813.25l-.282.735q-.28-.172-.578-.172-.25 0-.469.156-.203.156-.296.438-.125.422-.125.922v2.437h-.797z"/><path d="M200 336h64v16h-64z"/><path fill="#000" d="M212.617 347.46v-4.672h.719v.719q.265-.5.5-.656.234-.157.515-.157.39 0 .813.25l-.281.735q-.282-.172-.579-.172-.25 0-.468.156-.203.156-.297.438-.125.421-.125.921v2.438h-.797zm2.825-2.328q0-1.297.719-1.922.61-.516 1.468-.516.97 0 1.579.625t.609 1.735q0 .906-.281 1.422-.266.515-.782.812-.515.281-1.125.281-.984 0-1.593-.625-.594-.64-.594-1.812zm.812 0q0 .89.391 1.344.39.437.984.437t.985-.437q.39-.454.39-1.375 0-.86-.39-1.313-.39-.453-.985-.453-.593 0-.984.453-.39.438-.39 1.344zm5.532 2.328l-1.422-4.672h.813l.75 2.703.265 1q.016-.078.25-.969l.735-2.734h.812l.703 2.719.235.89.265-.906.797-2.703h.766l-1.453 4.672h-.813l-.75-2.797-.187-.797-.938 3.594h-.828zm10.58-2.266l.844.22q-.266 1.046-.969 1.608-.687.547-1.703.547-1.031 0-1.687-.422-.657-.421-1-1.218-.328-.813-.328-1.735 0-1.015.375-1.765.39-.75 1.093-1.125.72-.39 1.563-.39.969 0 1.625.5.672.483.922 1.374l-.844.188q-.219-.704-.64-1.016-.423-.328-1.079-.328-.734 0-1.234.36-.5.359-.703.968-.203.594-.203 1.219 0 .828.234 1.453.25.61.75.906.5.297 1.094.297.718 0 1.203-.406.5-.422.687-1.235zm1.737-.062q0-1.297.719-1.922.609-.516 1.468-.516.97 0 1.578.625.61.625.61 1.735 0 .906-.281 1.422-.266.515-.782.812-.515.281-1.125.281-.984 0-1.593-.625-.594-.64-.594-1.812zm.812 0q0 .89.391 1.344.39.437.984.437t.985-.437q.39-.454.39-1.375 0-.86-.39-1.313-.39-.453-.985-.453-.593 0-.984.453-.39.438-.39 1.344zm7.735 2.328v-.688q-.547.797-1.484.797-.407 0-.766-.156-.36-.172-.547-.406-.172-.235-.234-.578-.047-.235-.047-.75v-2.89h.781v2.593q0 .625.063.828.062.313.297.5.25.172.609.172.36 0 .672-.172.312-.188.437-.5.125-.313.125-.922v-2.5h.797v4.672h-.703zm2.125 0v-4.672h.72v.672q.5-.766 1.484-.766.421 0 .765.157.36.14.531.39.172.235.25.578.047.22.047.766v2.875h-.797v-2.844q0-.484-.093-.719-.094-.234-.328-.375-.235-.156-.547-.156-.5 0-.875.328-.36.313-.36 1.22v2.546h-.797zm6.923-.703l.109.687q-.344.078-.594.078-.437 0-.672-.14-.234-.14-.343-.36-.094-.218-.094-.921v-2.688h-.578v-.625h.578v-1.156l.797-.469v1.625h.797v.625h-.797v2.719q0 .344.031.437.047.094.14.157.094.062.266.062.14 0 .36-.031z"/><path d="M328 24h56v16h-56z"/><path fill="#000" d="M337.594 35.46v-6.438h.797v2.313q.546-.64 1.39-.64.516 0 .89.203.392.203.548.562.172.36.172 1.047v2.953h-.782v-2.953q0-.594-.265-.86-.25-.28-.719-.28-.36 0-.672.187-.312.172-.437.484-.125.313-.125.875v2.547h-.797zm8.375-1.5l.828.094q-.203.718-.734 1.125-.516.39-1.328.39-1.016 0-1.625-.625-.594-.64-.594-1.78 0-1.173.61-1.813.609-.657 1.577-.657.938 0 1.516.641.594.625.594 1.781v.219h-3.485q.047.766.438 1.172.39.406.984.406.438 0 .735-.219.312-.234.484-.734zm-2.594-1.281h2.61q-.047-.594-.297-.89-.375-.454-.985-.454-.546 0-.921.375-.36.36-.407.969zm4.594-2.75v-.906h.797v.906h-.797zm0 5.531v-4.672h.797v4.672h-.797zm1.932.39l.766.11q.047.36.266.516.296.218.812.218.547 0 .844-.218.297-.22.406-.61.063-.25.047-1.015-.516.609-1.281.609-.97 0-1.5-.688-.516-.703-.516-1.671 0-.672.234-1.235.25-.562.704-.86.453-.312 1.078-.312.828 0 1.359.657v-.563h.734v4.031q0 1.094-.234 1.547-.219.453-.703.719-.469.266-1.172.266-.844 0-1.36-.375-.5-.375-.484-1.125zm.657-2.812q0 .922.359 1.344.36.422.906.422.547 0 .922-.422t.375-1.313q0-.859-.39-1.297-.376-.437-.907-.437t-.906.438q-.36.421-.36 1.265zm4.672 2.422v-6.438h.797v2.313q.547-.64 1.39-.64.516 0 .89.203.392.203.548.562.172.36.172 1.047v2.953h-.782v-2.953q0-.594-.265-.86-.25-.28-.719-.28-.36 0-.672.187-.312.172-.437.484-.125.313-.125.875v2.547h-.797zm6.922-.703l.11.687q-.344.078-.594.078-.438 0-.672-.14-.235-.14-.344-.36-.094-.218-.094-.921v-2.688h-.578v-.625h.578v-1.156l.797-.469v1.625h.797v.625h-.797v2.719q0 .344.031.437.047.094.141.157.094.062.266.062.14 0 .359-.031z"/><path fill="#fff" d="M16 124c0-6.627 5.373-12 12-12a12 12 0 0 1 12 12c0 6.627-5.373 12-12 12s-12-5.373-12-12z"/><path d="M8 72h304v16H8z"/><path fill="#000" d="M139.292 83.46h-.734v-6.438h.781v2.297q.5-.625 1.281-.625.438 0 .813.172.39.172.64.485.25.312.391.765.14.438.14.938 0 1.203-.593 1.86-.594.655-1.422.655t-1.297-.687v.578zm-.015-2.375q0 .844.234 1.219.375.61 1 .61.531 0 .906-.454.375-.453.375-1.344 0-.906-.36-1.344-.359-.437-.874-.437-.531 0-.906.453t-.375 1.297zm4.172.047q0-1.297.719-1.922.609-.516 1.468-.516.97 0 1.578.625.61.625.61 1.735 0 .906-.281 1.422-.266.515-.782.812-.515.281-1.125.281-.984 0-1.593-.625-.594-.64-.594-1.812zm.812 0q0 .89.391 1.344.39.437.984.437t.985-.437q.39-.454.39-1.375 0-.86-.39-1.313-.39-.453-.985-.453-.593 0-.984.453-.39.438-.39 1.344zm7.704 2.328v-.594q-.453.703-1.313.703-.547 0-1.015-.312-.469-.313-.735-.86-.25-.546-.25-1.265 0-.703.235-1.266.234-.578.687-.875.469-.297 1.047-.297.422 0 .75.172t.531.469v-2.313h.797v6.438h-.734zm-2.5-2.328q0 .89.375 1.344.375.437.89.437.516 0 .875-.422.375-.422.375-1.297 0-.953-.375-1.406-.375-.453-.906-.453t-.89.438q-.344.437-.344 1.359zm4.625 4.125l-.094-.735q.266.063.454.063.265 0 .421-.094.157-.078.266-.234.063-.125.234-.594.032-.062.079-.187l-1.782-4.688h.86l.968 2.703q.188.516.344 1.078.125-.53.313-1.062l1-2.719h.797l-1.782 4.75q-.28.766-.437 1.063-.219.39-.485.562-.265.188-.656.188-.219 0-.5-.094zm5.914-1.797l-1.703-6.438h.875l.985 4.22q.156.655.265 1.312.25-1.032.297-1.188l1.219-4.344h1.031l.922 3.25q.344 1.22.5 2.282.125-.61.328-1.39l1-4.142h.86l-1.766 6.438h-.813l-1.36-4.906q-.171-.625-.202-.766-.11.453-.188.766l-1.375 4.906h-.875zm7.586-5.531v-.907h.797v.907h-.797zm0 5.531v-4.672h.797v4.672h-.797zm5.104 0v-.594q-.454.703-1.313.703-.547 0-1.016-.312-.468-.313-.734-.86-.25-.546-.25-1.265 0-.703.234-1.266.235-.578.688-.875.469-.297 1.047-.297.422 0 .75.172t.531.469v-2.313h.797v6.438h-.734zm-2.5-2.328q0 .89.375 1.344.375.437.89.437.516 0 .875-.422.375-.422.375-1.297 0-.953-.375-1.406-.375-.453-.906-.453t-.89.438q-.344.437-.344 1.359zm6.39 1.625l.11.687q-.344.078-.594.078-.437 0-.672-.14-.234-.14-.343-.36-.094-.218-.094-.921v-2.688h-.578v-.625h.578v-1.156l.797-.469v1.625h.797v.625h-.797v2.719q0 .344.03.437.048.094.142.157.093.062.265.062.14 0 .36-.031zm.858.703v-6.438h.797v2.313q.547-.64 1.39-.64.516 0 .89.203.392.203.548.562.172.36.172 1.047v2.953h-.782v-2.953q0-.594-.265-.86-.25-.28-.719-.28-.36 0-.672.187-.312.172-.437.484-.125.313-.125.875v2.547h-.797z"/><path d="M328 200h72v16h-72z"/><path fill="#000" d="M338.328 211.46h-.734v-6.438h.781v2.297q.5-.625 1.281-.625.438 0 .813.172.39.172.64.485.25.312.391.765.14.438.14.938 0 1.203-.593 1.86-.594.655-1.422.655t-1.297-.687v.578zm-.016-2.375q0 .844.235 1.219.375.61 1 .61.531 0 .906-.454.375-.453.375-1.344 0-.906-.36-1.344-.359-.437-.874-.437-.532 0-.907.453t-.375 1.297zm4.173.047q0-1.297.718-1.922.61-.516 1.47-.516.968 0 1.577.625.61.625.61 1.735 0 .906-.282 1.422-.265.515-.78.812-.516.281-1.126.281-.984 0-1.594-.625-.593-.64-.593-1.812zm.812 0q0 .89.39 1.344.391.437.985.437t.985-.437q.39-.454.39-1.375 0-.86-.39-1.313-.391-.453-.985-.453t-.984.453q-.39.438-.39 1.344zm7.704 2.328v-.594q-.453.703-1.313.703-.547 0-1.015-.312-.47-.313-.735-.86-.25-.546-.25-1.265 0-.703.235-1.266.234-.578.687-.875.469-.297 1.047-.297.422 0 .75.172t.531.469v-2.313h.797v6.438h-.734zm-2.5-2.328q0 .89.375 1.344.375.437.89.437.516 0 .875-.422.375-.422.375-1.297 0-.953-.375-1.406-.375-.453-.906-.453t-.89.437q-.344.438-.344 1.36zm4.625 4.125l-.094-.735q.266.063.453.063.266 0 .422-.094.157-.078.266-.234.062-.125.234-.594.032-.062.078-.187l-1.78-4.688h.859l.968 2.703q.188.516.344 1.078.125-.53.313-1.062l1-2.719h.796l-1.78 4.75q-.282.766-.438 1.063-.219.39-.485.562-.265.188-.656.188-.219 0-.5-.094zm4.758-1.797v-6.438h.86v5.672h3.171v.766h-4.031zm8.313-1.5l.828.094q-.203.718-.734 1.125-.516.39-1.329.39-1.015 0-1.625-.625-.593-.64-.593-1.78 0-1.173.609-1.813.61-.657 1.578-.657.938 0 1.516.641.594.625.594 1.781v.219h-3.485q.047.766.438 1.172.39.406.984.406.438 0 .734-.219.313-.234.485-.734zm-2.594-1.281h2.61q-.047-.594-.297-.89-.375-.454-.985-.454-.547 0-.922.375-.36.36-.406.969zm4.594 2.781v-4.672h.719v.672q.5-.766 1.484-.766.422 0 .766.157.36.14.531.39.172.235.25.578.047.22.047.766v2.875h-.797v-2.844q0-.484-.094-.719-.093-.234-.328-.375-.234-.156-.547-.156-.5 0-.875.328-.359.313-.359 1.22v2.546h-.797zm5.047.39l.766.11q.047.36.266.516.297.218.812.218.547 0 .844-.218.297-.22.406-.61.063-.25.047-1.015-.516.609-1.281.609-.969 0-1.5-.688-.516-.703-.516-1.671 0-.672.235-1.235.25-.562.703-.86.453-.312 1.078-.312.828 0 1.36.657v-.563h.734v4.031q0 1.094-.235 1.547-.219.453-.703.719-.469.266-1.172.266-.844 0-1.36-.375-.5-.375-.484-1.125zm.657-2.812q0 .922.359 1.344.36.422.906.422.547 0 .922-.422t.375-1.313q0-.859-.39-1.297-.375-.437-.907-.437-.531 0-.906.437-.36.422-.36 1.266zm6.406 1.719l.11.687q-.344.078-.594.078-.438 0-.672-.14-.234-.14-.344-.36-.094-.218-.094-.921v-2.688h-.578v-.625h.578v-1.156l.797-.469v1.625h.797v.625h-.797v2.719q0 .344.032.437.046.094.14.157.094.062.266.062.14 0 .36-.031zm.858.703v-6.438h.796v2.313q.547-.64 1.391-.64.516 0 .89.202.391.204.548.563.171.36.171 1.047v2.953h-.78v-2.953q0-.594-.266-.86-.25-.28-.72-.28-.359 0-.671.187-.313.172-.438.484-.125.313-.125.875v2.547h-.796z"/><path d="M24 536h32v16H24z"/><path fill="#fff" d="M40.507 547.46h-1.422l-.563-1.469h-2.578l-.531 1.469h-1.375l2.515-6.438h1.375l2.579 6.438zm-2.407-2.547l-.875-2.39-.875 2.39h1.75zm6.221 2.547h-1.234v-4.656q-.688.64-1.594.937v-1.125q.484-.156 1.047-.593.562-.438.781-1.032h1v6.469z"/><path fill="#60a5d4" d="M216 40c0-8.837 7.163-16 16-16a16 16 0 0 1 16 16c0 8.837-7.163 16-16 16s-16-7.163-16-16zm48 0c0-8.837 7.163-16 16-16a16 16 0 0 1 16 16c0 8.837-7.163 16-16 16s-16-7.163-16-16z"/><path fill="#2b4b76" d="M8 18.75C8 12.813 12.813 8 18.75 8h282.5A10.75 10.75 0 0 1 312 18.75v10.5c0 5.937-4.813 10.75-10.75 10.75H18.75C12.813 40 8 35.187 8 29.25z"/><path d="M328 8v48"/><path stroke="#000" stroke-linejoin="round" stroke-linecap="butt" d="M328 12.381V51.62"/><path fill="#000" stroke="#000" stroke-linecap="butt" d="M328 12.381l1.67 1.67-1.67-4.59-1.67 4.59zm0 39.238l-1.67-1.67 1.67 4.59 1.67-4.59z" fill-rule="evenodd"/><path fill="#fff" d="M224 400a8 8 0 1 1 16 0 8 8 0 0 1-16 0zm0 48a8 8 0 1 1 16 0 8 8 0 0 1-16 0zm0 48a8 8 0 1 1 16 0 8 8 0 0 1-16 0zm0 48a8 8 0 1 1 16 0 8 8 0 0 1-16 0zm48-48a8 8 0 1 1 16 0 8 8 0 0 1-16 0zm-96 0a8 8 0 1 1 16 0 8 8 0 0 1-16 0zm-48 0a8 8 0 1 1 16 0 8 8 0 0 1-16 0zm-48 0a8 8 0 1 1 16 0 8 8 0 0 1-16 0zm-48 0a8 8 0 1 1 16 0 8 8 0 0 1-16 0z"/><path d="M8 16h304v16H8z"/><path fill="#fff" d="M139.222 27.46v-6.438h4.344v.75h-3.484v2h3.015v.766h-3.015v2.922h-.86zm5.542 0v-4.672h.719v.719q.265-.5.5-.656.234-.157.515-.157.391 0 .813.25l-.281.735q-.282-.172-.578-.172-.25 0-.47.156-.202.156-.296.438-.125.422-.125.922v2.437h-.797zm2.825-2.328q0-1.297.719-1.922.61-.516 1.469-.516.968 0 1.578.625.61.625.61 1.735 0 .906-.282 1.422-.266.515-.781.812-.516.281-1.125.281-.985 0-1.594-.625-.594-.64-.594-1.812zm.813 0q0 .89.39 1.344.39.437.985.437.593 0 .984-.437.39-.453.39-1.375 0-.86-.39-1.313-.39-.453-.984-.453t-.985.453q-.39.438-.39 1.344zm4.672 2.328v-4.672h.719v.672q.5-.766 1.484-.766.422 0 .766.157.359.14.53.39.173.235.25.578.048.22.048.766v2.875h-.797v-2.844q0-.484-.094-.718-.094-.235-.328-.375-.234-.157-.547-.157-.5 0-.875.328-.36.313-.36 1.22v2.546h-.796zm6.922-.703l.11.687q-.344.079-.594.079-.438 0-.672-.141-.235-.14-.344-.36-.094-.218-.094-.921v-2.688h-.578v-.625h.578v-1.156l.797-.469v1.625h.797v.625h-.797v2.719q0 .344.031.437.047.094.141.157.094.062.266.062.14 0 .36-.031zm4.746.703l-1.781-4.672h.843l1 2.797q.157.453.297.938.11-.36.297-.875l1.031-2.86h.813l-1.766 4.672h-.734zm3.367-5.531v-.906h.797v.906h-.797zm0 5.531v-4.672h.797v4.672h-.797zm5.26-1.5l.828.094q-.203.719-.734 1.125-.516.39-1.328.39-1.016 0-1.625-.625-.594-.64-.594-1.78 0-1.173.61-1.813.609-.657 1.577-.657.938 0 1.516.641.594.625.594 1.781v.219h-3.485q.047.766.438 1.172.39.406.984.406.438 0 .735-.219.312-.234.484-.734zm-2.594-1.281h2.61q-.047-.594-.297-.89-.375-.454-.985-.454-.546 0-.921.375-.36.36-.407.969zm5.454 2.781l-1.422-4.672h.812l.75 2.703.266 1q.016-.078.25-.968l.734-2.735h.813l.703 2.719.234.89.266-.906.797-2.703h.765l-1.453 4.672h-.812l-.75-2.797-.188-.797-.937 3.594h-.828z"/><path d="M8 200h304v16H8z"/><path fill="#fff" d="M143.665 211.46v-5.688h-2.11v-.75h5.094v.75h-2.125v5.688h-.859zm3.667-2.328q0-1.297.719-1.922.609-.516 1.468-.516.969 0 1.578.625.61.625.61 1.735 0 .906-.281 1.422-.266.515-.782.812-.515.281-1.125.281-.984 0-1.593-.625-.594-.64-.594-1.812zm.812 0q0 .89.39 1.344.392.437.985.437.594 0 .985-.437.39-.454.39-1.375 0-.86-.39-1.313-.391-.453-.985-.453-.593 0-.984.453-.39.438-.39 1.344zm4.672 4.11v-6.454h.72v.61q.25-.36.562-.532.328-.172.797-.172.593 0 1.046.313.454.297.688.86.234.562.234 1.218 0 .719-.265 1.297-.25.578-.735.89-.484.297-1.03.297-.392 0-.704-.172-.313-.171-.516-.421v2.265h-.797zm.72-4.095q0 .907.359 1.344.375.422.89.422.516 0 .89-.437.391-.454.391-1.391 0-.89-.375-1.328-.359-.453-.875-.453-.5 0-.89.484-.39.469-.39 1.36zm8.357 2.313l-1.781-4.672h.843l1 2.797q.157.453.297.937.11-.359.297-.875l1.031-2.859h.813l-1.766 4.672h-.734zm3.367-5.531v-.907h.797v.907h-.797zm0 5.531v-4.672h.797v4.672h-.797zm5.26-1.5l.828.094q-.203.718-.734 1.125-.516.39-1.328.39-1.016 0-1.625-.625-.594-.64-.594-1.78 0-1.173.61-1.813.609-.657 1.577-.657.938 0 1.516.641.594.625.594 1.781v.219h-3.485q.047.766.438 1.172.39.406.984.406.438 0 .735-.219.312-.234.484-.734zm-2.594-1.281h2.61q-.047-.594-.297-.89-.375-.454-.985-.454-.546 0-.921.375-.36.36-.407.969zm5.454 2.781l-1.422-4.672h.812l.75 2.703.266 1q.016-.078.25-.969l.734-2.734h.813l.703 2.719.234.89.266-.906.797-2.703h.765l-1.453 4.672h-.812l-.75-2.797-.188-.797-.937 3.594h-.828z"/><path d="M112 464h96v16h-96z"/><path fill="#fff" d="M135.254 475.46v-6.438h2.422q.735 0 1.172.204.453.187.703.593.266.407.266.844 0 .422-.234.781-.22.36-.672.594.578.172.89.578.328.406.328.969 0 .453-.203.844-.187.39-.468.61-.282.202-.704.312-.421.109-1.046.109h-2.454zm.86-3.734h1.39q.563 0 .813-.079.328-.093.484-.312.172-.234.172-.563 0-.328-.156-.562-.156-.25-.438-.344-.28-.094-.984-.094h-1.281v1.954zm0 2.968h1.594q.421 0 .593-.03.282-.048.485-.173.203-.125.328-.36.125-.233.125-.546 0-.36-.188-.625-.187-.266-.515-.36-.328-.109-.938-.109h-1.484v2.203zm5.003-1.562q0-1.297.719-1.922.609-.516 1.468-.516.969 0 1.578.625.61.625.61 1.735 0 .906-.281 1.422-.266.515-.782.812-.515.281-1.125.281-.984 0-1.593-.625-.594-.64-.594-1.812zm.812 0q0 .89.39 1.344.392.437.985.437.594 0 .985-.437.39-.454.39-1.375 0-.86-.39-1.313-.391-.453-.985-.453-.593 0-.984.453-.39.438-.39 1.344zm6.407 1.625l.11.687q-.344.078-.594.078-.438 0-.672-.14-.235-.14-.344-.36-.094-.218-.094-.921v-2.688h-.578v-.625h.578v-1.156l.797-.469v1.625h.797v.625h-.797v2.719q0 .344.031.437.047.094.14.157.095.062.267.062.14 0 .359-.031zm2.592 0l.109.687q-.344.078-.594.078-.437 0-.672-.14-.234-.14-.343-.36-.094-.218-.094-.921v-2.688h-.578v-.625h.578v-1.156l.797-.469v1.625h.797v.625h-.797v2.719q0 .344.031.437.047.094.14.157.094.062.266.062.14 0 .36-.031zm.56-1.625q0-1.297.719-1.922.61-.516 1.468-.516.97 0 1.579.625t.609 1.735q0 .906-.281 1.422-.266.515-.782.812-.515.281-1.125.281-.984 0-1.593-.625-.594-.64-.594-1.812zm.812 0q0 .89.391 1.344.39.437.984.437t.985-.437q.39-.454.39-1.375 0-.86-.39-1.313-.39-.453-.985-.453-.593 0-.984.453-.39.438-.39 1.344zm4.673 2.328v-4.672h.703v.656q.219-.343.578-.547.375-.203.844-.203.515 0 .843.22.329.202.47.593.562-.813 1.437-.813.703 0 1.078.391.375.375.375 1.172v3.203h-.797v-2.938q0-.484-.078-.687-.063-.203-.266-.328-.203-.14-.484-.14-.485 0-.813.327-.328.328-.328 1.047v2.719h-.797v-3.031q0-.531-.187-.797-.188-.266-.625-.266-.344 0-.625.188-.281.172-.406.515-.125.328-.125.97v2.421h-.797zm11.659 0l-1.782-4.672h.844l1 2.797q.156.453.297.938.11-.36.297-.876l1.031-2.859h.813l-1.766 4.672h-.734zm3.367-5.531v-.906h.797v.906h-.797zm0 5.531v-4.672h.797v4.672h-.797zm5.26-1.5l.828.094q-.203.719-.734 1.125-.516.39-1.329.39-1.015 0-1.625-.625-.593-.64-.593-1.78 0-1.173.609-1.813.61-.657 1.578-.657.938 0 1.516.641.594.625.594 1.781v.219h-3.485q.047.766.438 1.172.39.406.984.406.438 0 .734-.219.313-.234.485-.734zm-2.594-1.281h2.61q-.047-.594-.297-.89-.375-.454-.985-.454-.547 0-.922.375-.36.36-.406.969zm5.454 2.781l-1.422-4.672h.812l.75 2.703.266 1q.015-.078.25-.969l.734-2.734h.813l.703 2.719.234.89.266-.906.797-2.703h.765l-1.453 4.672h-.812l-.75-2.797-.188-.797-.937 3.594h-.828z"/></g></svg>