<svg xmlns="http://www.w3.org/2000/svg" height="55" width="46" viewBox="0 0 5111.1147 6111.1172"><title>SVG Picture created as qeda-test.svg date 2017/01/28 13:59:37</title><desc>Picture generated by Eeschema-SVG</desc><circle cy="42000" cx="22000" r="1500" transform="translate(-18470 -38919)" fill="#ffffc2"/><g stroke-linejoin="round" stroke="#840000" stroke-linecap="round"><g fill-opacity="0" stroke-width="120" fill="none" transform="translate(-18470 -38919)"><circle cy="42000" cx="22000" r="1500"/><path d="M20500 42000h1200m0-1000v2000m300-500l1500 500m-1500-1500l1500-500m-1500 0v2000"/></g><path fill-rule="evenodd" d="M4280 3831l-330-270-90 290" stroke-width="120" fill="#840000"/><path d="M2030 3081H30m1140-120H890m140 0v-500l-50 70-50 50-40 20m4140 1480v2000m-580-860l-20-20-20-50v-120l20-40 20-30 50-20h50l70 20 290 290v-310m120-2860V81m-620 1170V941l190 170v-80l20-40 20-30 50-20h120l50 20 20 30 30 40v150l-30 40-20 30" stroke-width="60" fill="none"/></g><g stroke-linejoin="round" fill-opacity="0" stroke="#008484" stroke-linecap="round" stroke-width="60" fill="none"><path d="M3040 761l160 500 170-500m100 0h280m-140 500V761m380 450l20 20-20 30-20-30 20-20v50m-90-480l40-20h120l50 20 20 50v50l-20 40-20 30-50 20-30 20-20 50v30M2920 5421v-340m0-160l-20 20 20 20 20-20-20-20v40m450 120v410l-20 50-20 20-50 20h-70l-50-20"/><path d="M3370 5391l-40 30h-100l-50-30-20-20-20-50v-140l20-50 20-20 50-30h100l40 30m240 310v-500m0 190l50-30h90l50 30 20 20 30 50v140l-30 50-20 20-50 30h-90l-50-30m380-310h190m-120-160v420l20 50 50 30h50"/></g></svg>