<svg xmlns="http://www.w3.org/2000/svg" height="55" width="46" viewBox="0 0 5111.1147 6111.1172"><title>SVG Picture created as qeda-test.svg date 2017/01/29 00:19:33</title><desc>Picture generated by Eeschema-SVG</desc><circle cy="65500" cx="19000" r="1500" transform="translate(-15470 -62419)" fill="#ffffc2"/><g stroke-linejoin="round" stroke="#840000" stroke-linecap="round"><g fill-opacity="0" stroke-width="120" fill="none" transform="translate(-15470 -62419)"><circle cy="65500" cx="19000" r="1500"/><path d="M17500 65500h1500m0 500l1500 500m-1500-1500l1500-500m-1500 0v2000"/></g><path fill-rule="evenodd" d="M3910 3711l430-60-120 360-310-300" stroke-width="120" fill="#840000"/><path d="M2030 3081H30m1140-120H890m140 0v-500l-50 70-50 50-40 20m4140 1480v2000m-580-860l-20-20-20-50v-120l20-40 20-30 50-20h50l70 20 290 290v-310m120-2860V81m-620 1170V941l190 170v-80l20-40 20-30 50-20h120l50 20 20 30 30 40v150l-30 40-20 30" stroke-width="60" fill="none"/></g><path d="M3040 761l160 500 170-500m100 0h280m-140 500V761m380 450l20 20-20 30-20-30 20-20v50m-90-480l40-20h120l50 20 20 50v50l-20 40-20 30-50 20-30 20-20 50v30m-990 4010v500m0-470l50-30h90l50 30 20 20 30 50v140l-30 50-20 20-50 30h-90l-50-30m450-310v340m0-290l20-20 50-30h70l50 30 20 40v270m240-340v500m0-470l50-30h90l50 30 20 20 30 50v140l-30 50-20 20-50 30h-90l-50-30" stroke-linejoin="round" stroke="#008484" stroke-linecap="round" stroke-width="60" fill="none"/></svg>