<svg xmlns="http://www.w3.org/2000/svg" height="80" width="91" viewBox="0 0 10111.118 8888.8977"><title>SVG Picture created as qeda-test.svg date 2017/01/22 16:38:26</title><desc>Picture generated by Eeschema-SVG</desc><rect rx="0" height="6000" width="6000" y="27500" x="33000" fill-opacity=".6" transform="translate(-30970 -26642)" fill="#ffffc2"/><g stroke-linejoin="round" stroke-linecap="round" fill-opacity="0" fill="none"><g stroke="#840000" stroke-width="120" transform="translate(-30970 -26642)"><rect rx="0" height="6000" width="6000" y="27500" x="33000"/><circle cy="30100" cx="35200" r="200"/><circle cy="30100" cx="36800" r="200"/><path d="M35000 29500h2000m-1000 0v-800"/></g><g stroke-width="60"><path d="M2030 2358H30" stroke="#840000"/><path d="M2530 2558l70 30h120l40-30 30-20 20-50v-50l-20-40-30-30-40-20-100-30-50-20-20-20-20-50v-50l20-50 20-20 50-20h120l70 20m480 480h-280m140 0v-500l-50 70-50 50-40 20" stroke="#008484"/><path d="M1170 2238H890m140 0v-500l-50 70-50 50-40 20m1140 1480H30" stroke="#840000"/><path d="M2530 3558l70 30h120l40-30 30-20 20-50v-50l-20-40-30-30-40-20-100-30-50-20-20-20-20-50v-50l20-50 20-20 50-20h120l70 20m480 480h-280m140 0v-500l-50 70-50 50-40 20" stroke="#008484"/><path d="M890 2778l20-20 50-20h120l40 20 30 20 20 50v50l-20 70-290 290h310m6860-880h2000" stroke="#840000"/><path d="M6770 2558l70 30h120l40-30 30-20 20-50v-50l-20-40-30-30-40-20-100-30-50-20-20-20-20-50v-50l20-50 20-20 50-20h120l70 20m200 20l20-20 50-20h120l40 20 30 20 20 50v50l-20 70-290 290h310" stroke="#008484"/><path d="M8860 1738h310l-170 190h80l40 20 30 20 20 50v120l-20 50-30 20-40 30h-150l-40-30-30-20m-830 1170h2000" stroke="#840000"/><path d="M6770 3558l70 30h120l40-30 30-20 20-50v-50l-20-40-30-30-40-20-100-30-50-20-20-20-20-50v-50l20-50 20-20 50-20h120l70 20m200 20l20-20 50-20h120l40 20 30 20 20 50v50l-20 70-290 290h310" stroke="#008484"/><path d="M9120 2898v340m-120-530l-110 360h300M5030 6858v2000" stroke="#840000"/><path d="M5210 6058l20 20 30 70v50l-30 70-50 50-40 20-100 20h-70l-90-20-50-20-50-50-20-70v-50l20-70 20-20m310-200v-230m150 280l-500-160 500-170m-30-150l30-70v-120l-30-40-20-30-50-20h-50l-40 20-30 30-20 40-30 100-20 50-20 20-50 20h-50l-50-20-20-20-20-50v-120l20-70m210-220v-170m270-70v240h-500v-240" stroke="#008484"/><path d="M4410 7738v240l230 20-20-20-20-50v-120l20-40 20-30 50-20h120l50 20 20 30 30 40v120l-30 50-20 20" stroke="#840000"/><path d="M4680 508l70 30h120l40-30 30-20 20-50v-50l-20-40-30-30-40-20-100-30-50-20-20-20-20-50v-50l20-50 20-20 50-20h120l70 20m290 430l20 20-20 30-20-30 20-20v50m-90-480l40-20h120l50 20 20 50v50l-20 40-20 30-50 20-30 20-20 50v30m200 7350v-500m280 500l-210-290m210-210l-280 280m500 220v-500l170 350 160-350v500m520 0l-160-240m-120 240v-500h190l50 20 20 20 20 50v70l-20 50-20 20-50 30h-190m480-220l20-20 50-20h120l40 20 30 20 20 50v50l-20 70-290 290h310" stroke="#008484"/></g></g></svg>