<svg xmlns="http://www.w3.org/2000/svg" height="76" width="91" viewBox="0 0 10111.118 8444.4528"><title>SVG Picture created as qeda-test.svg date 2017/01/22 11:17:03</title><desc>Picture generated by Eeschema-SVG</desc><rect rx="0" height="5500" width="6000" y="19500" x="56500" fill-opacity=".6" transform="translate(-54470 -18586)" fill="#ffffc2"/><g stroke-linejoin="round" stroke-linecap="round" fill-opacity="0" fill="none"><g stroke="#840000" stroke-width="120" transform="translate(-54470 -18586)"><rect rx="0" height="5500" width="6000" y="19500" x="56500"/><circle cy="21600" cx="58700" r="200"/><circle cy="21600" cx="60300" r="200"/><path d="M58500 21000h2000m-1000 0v-800"/></g><g stroke-width="60"><path d="M2030 1914H30" stroke="#840000"/><path d="M2530 2114l70 30h120l40-30 30-20 20-50v-50l-20-40-30-30-40-20-100-30-50-20-20-20-20-50v-50l20-50 20-20 50-20h120l70 20m480 480h-280m140 0v-500l-50 70-50 50-40 20" stroke="#008484"/><path d="M1170 1794H890m140 0v-500l-50 70-50 50-40 20m7140 480h2000" stroke="#840000"/><path d="M6770 2114l70 30h120l40-30 30-20 20-50v-50l-20-40-30-30-40-20-100-30-50-20-20-20-20-50v-50l20-50 20-20 50-20h120l70 20m200 20l20-20 50-20h120l40 20 30 20 20 50v50l-20 70-290 290h310" stroke="#008484"/><path d="M8890 1334l20-20 50-20h120l40 20 30 20 20 50v50l-20 70-290 290h310M2030 2914H30" stroke="#840000"/><path d="M2530 3114l70 30h120l40-30 30-20 20-50v-50l-20-40-30-30-40-20-100-30-50-20-20-20-20-50v-50l20-50 20-20 50-20h120l70 20m480 480h-280m140 0v-500l-50 70-50 50-40 20" stroke="#008484"/><path d="M860 2294h310l-170 190h80l40 20 30 20 20 50v120l-20 50-30 20-40 30H930l-40-30-30-20m7170 170h2000" stroke="#840000"/><path d="M6770 3114l70 30h120l40-30 30-20 20-50v-50l-20-40-30-30-40-20-100-30-50-20-20-20-20-50v-50l20-50 20-20 50-20h120l70 20m200 20l20-20 50-20h120l40 20 30 20 20 50v50l-20 70-290 290h310" stroke="#008484"/><path d="M9120 2454v340m-120-530l-110 360h300M5030 6414v2000" stroke="#840000"/><path d="M5210 5614l20 20 30 70v50l-30 70-50 50-40 20-100 20h-70l-90-20-50-20-50-50-20-70v-50l20-70 20-20m310-200v-230m150 280l-500-160 500-170m-30-150l30-70v-120l-30-40-20-30-50-20h-50l-40 20-30 30-20 40-30 100-20 50-20 20-50 20h-50l-50-20-20-20-20-50v-120l20-70m210-220v-170m270-70v240h-500v-240" stroke="#008484"/><path d="M4410 7294v240l230 20-20-20-20-50v-120l20-40 20-30 50-20h120l50 20 20 30 30 40v120l-30 50-20 20" stroke="#840000"/><path d="M4680 564l70 30h120l40-30 30-20 20-50v-50l-20-40-30-30-40-20-100-30-50-20-20-20-20-50v-50l20-50 20-20 50-20h120l70 20m290 430l20 20-20 30-20-30 20-20v50m-90-480l40-20h120l50 20 20 50v50l-20 40-20 30-50 20-30 20-20 50v30m200 6850v-500m280 500l-210-290m210-210l-280 280m500 220v-500l170 350 160-350v500m520 0l-160-240m-120 240v-500h190l50 20 20 20 20 50v70l-20 50-20 20-50 30h-190m480-220l20-20 50-20h120l40 20 30 20 20 50v50l-20 70-290 290h310" stroke="#008484"/></g></g></svg>