<svg xmlns="http://www.w3.org/2000/svg" height="22" width="13" viewBox="0 0 1444.4455 2444.4469"><title>SVG Picture created as qeda-test.svg date 2017/01/22 09:57:47</title><desc>Picture generated by Eeschema-SVG</desc><circle cy="24000" cx="41500" r="500" transform="translate(-40830 -22586)" fill="#ffffc2"/><g stroke-linejoin="round" stroke-linecap="round" fill-opacity="0" fill="none"><g stroke="#840000" stroke-width="120" transform="translate(-40830 -22586)"><circle cy="24000" cx="41500" r="500"/><circle cy="24000" cx="41500" r="200"/></g><path d="M670 1914v500" stroke="#840000" stroke-width="60"/><path d="M30 594V94l170 350L360 94v500m240 0V94m0 230h280m0 270V94m310 450l20 20-20 30-20-30 20-20v50m-90-480l40-20h120l50 20 20 50v50l-20 40-20 30-50 20-30 20-20 50v30" stroke="#008484" stroke-width="60"/></g></svg>