<svg viewBox="0.0 0.0 351.3333333333333 774.9160104986877" fill="none" stroke-linecap="square" stroke-miterlimit="10" xmlns="http://www.w3.org/2000/svg"><clipPath id="a"><path d="M0 0h351.333v774.916H0V0z"/></clipPath><g clip-path="url(#a)"><path d="M0 0h351.333v774.916H0z"/><path fill="#fff" d="M128 296a8 8 0 1 1 16 0 8 8 0 0 1-16 0z"/><path fill="#60a5d4" d="M88 224c0-8.837 7.163-16 16-16a16 16 0 0 1 16 16c0 8.837-7.163 16-16 16s-16-7.163-16-16zm80 0c0-8.837 7.163-16 16-16a16 16 0 0 1 16 16c0 8.837-7.163 16-16 16s-16-7.163-16-16z"/><path d="M32 344v-88"/><path stroke="#000" stroke-linejoin="round" stroke-linecap="butt" d="M32 344v-88"/><path d="M256 288v-32"/><path stroke="#000" stroke-linejoin="round" stroke-linecap="butt" d="M256 288v-32"/><path d="M32 264h224"/><path stroke="#000" stroke-linejoin="round" stroke-linecap="butt" d="M36.381 264H251.62"/><path fill="#000" stroke="#000" stroke-linecap="butt" d="M36.381 264l1.67-1.67-4.59 1.67 4.59 1.67zm215.238 0l-1.67 1.67 4.59-1.67-4.59-1.67z" fill-rule="evenodd"/><path d="M304 280h-56"/><path stroke="#000" stroke-linejoin="round" stroke-linecap="butt" d="M304 280h-56"/><path d="M304 504h-56"/><path stroke="#000" stroke-linejoin="round" stroke-linecap="butt" d="M304 504h-56"/><path d="M296 280v224"/><path stroke="#000" stroke-linejoin="round" stroke-linecap="butt" d="M296 284.381V499.62"/><path fill="#000" stroke="#000" stroke-linecap="butt" d="M296 284.381l1.67 1.67-1.67-4.59-1.67 4.59zm0 215.238l-1.67-1.67 1.67 4.59 1.67-4.59z" fill-rule="evenodd"/><path d="M280 240h24"/><path stroke="#000" stroke-linejoin="round" stroke-linecap="butt" d="M280 240h24"/><path d="M216 8h88"/><path stroke="#000" stroke-linejoin="round" stroke-linecap="butt" d="M216 8h88"/><path d="M32 248h224v16H32z"/><path fill="#000" d="M120.949 259.46h-.735v-6.438h.782v2.297q.5-.625 1.28-.625.438 0 .813.172.391.172.641.485.25.312.39.765.141.438.141.938 0 1.203-.593 1.86-.594.655-1.422.655t-1.297-.687v.578zm-.016-2.375q0 .844.235 1.219.375.61 1 .61.53 0 .906-.454.375-.453.375-1.344 0-.906-.36-1.344-.359-.437-.875-.437-.53 0-.906.453-.375.453-.375 1.297zm4.172.047q0-1.297.72-1.922.609-.516 1.468-.516.969 0 1.578.625.61.625.61 1.735 0 .906-.282 1.422-.265.515-.781.812-.516.281-1.125.281-.984 0-1.594-.625-.594-.64-.594-1.812zm.813 0q0 .89.39 1.344.391.437.985.437t.984-.437q.39-.454.39-1.375 0-.86-.39-1.313-.39-.453-.984-.453t-.984.453q-.391.438-.391 1.344zm7.703 2.328v-.594q-.453.703-1.312.703-.547 0-1.016-.312-.468-.313-.734-.86-.25-.546-.25-1.265 0-.703.234-1.266.235-.578.688-.875.469-.297 1.047-.297.422 0 .75.172t.53.469v-2.313h.798v6.438h-.735zm-2.5-2.328q0 .89.375 1.344.375.437.891.437t.875-.422q.375-.422.375-1.297 0-.953-.375-1.406-.375-.453-.906-.453t-.89.437q-.345.438-.345 1.36zm4.626 4.125l-.094-.735q.266.063.453.063.266 0 .422-.094.156-.078.266-.234.062-.125.234-.594.031-.062.078-.187l-1.781-4.688h.86l.968 2.703q.188.516.344 1.078.125-.53.312-1.062l1-2.719h.797l-1.781 4.75q-.281.766-.438 1.063-.218.39-.484.562-.266.188-.656.188-.219 0-.5-.094zm4.758-1.797v-6.438h.859v5.672h3.172v.766h-4.031zm8.312-1.5l.829.094q-.204.719-.735 1.125-.515.39-1.328.39-1.016 0-1.625-.625-.594-.64-.594-1.78 0-1.173.61-1.813.61-.657 1.578-.657.937 0 1.515.641.594.625.594 1.781v.219h-3.484q.047.766.437 1.172.39.406.985.406.437 0 .734-.219.313-.234.484-.734zm-2.593-1.281h2.61q-.048-.594-.298-.89-.375-.454-.984-.454-.547 0-.922.375-.36.36-.406.969zm4.594 2.781v-4.672h.719v.672q.5-.766 1.484-.766.422 0 .766.157.359.14.53.39.173.235.25.578.048.22.048.766v2.875h-.797v-2.844q0-.484-.094-.719-.094-.234-.328-.375-.234-.156-.547-.156-.5 0-.875.328-.36.313-.36 1.22v2.546h-.796zm5.047.39l.766.11q.047.36.265.516.297.218.813.218.547 0 .844-.218.296-.22.406-.61.062-.25.047-1.015-.516.609-1.282.609-.968 0-1.5-.688-.515-.703-.515-1.671 0-.672.234-1.235.25-.562.703-.86.453-.312 1.078-.312.829 0 1.36.657v-.563h.734v4.031q0 1.094-.234 1.547-.219.453-.703.719-.47.266-1.172.266-.844 0-1.36-.375-.5-.375-.484-1.125zm.656-2.812q0 .922.36 1.344.36.422.906.422.547 0 .922-.422t.375-1.313q0-.859-.39-1.297-.376-.437-.907-.437t-.906.437q-.36.422-.36 1.266zm6.407 1.719l.11.687q-.344.078-.594.078-.438 0-.672-.14-.235-.14-.344-.36-.094-.218-.094-.921v-2.688h-.578v-.625h.578v-1.156l.797-.469v1.625h.797v.625h-.797v2.719q0 .344.031.437.047.094.14.157.095.062.267.062.14 0 .359-.031zm.857.703v-6.438h.797v2.313q.547-.64 1.39-.64.516 0 .891.202.391.204.547.563.172.36.172 1.047v2.953h-.781v-2.953q0-.594-.266-.86-.25-.28-.719-.28-.359 0-.671.187-.313.172-.438.484-.125.313-.125.875v2.547h-.797z"/><path fill="#2b4b76" d="M32 202.75c0-5.937 4.813-10.75 10.75-10.75h202.5A10.75 10.75 0 0 1 256 202.75v10.5c0 5.937-4.813 10.75-10.75 10.75H42.75C36.813 224 32 219.187 32 213.25z"/><path d="M296 8v232"/><path stroke="#000" stroke-linejoin="round" stroke-linecap="butt" d="M296 12.381V235.62"/><path fill="#000" stroke="#000" stroke-linecap="butt" d="M296 12.381l1.67 1.67-1.67-4.59-1.67 4.59zm0 223.238l-1.67-1.67 1.67 4.59 1.67-4.59z" fill-rule="evenodd"/><path fill="#60a5d4" d="M8 226.667A2.667 2.667 0 0 1 10.667 224h90.666a2.667 2.667 0 0 1 2.667 2.667v10.666a2.667 2.667 0 0 1-2.667 2.667H10.667A2.667 2.667 0 0 1 8 237.333zm176 0a2.667 2.667 0 0 1 2.667-2.667h90.666a2.667 2.667 0 0 1 2.667 2.667v10.666a2.667 2.667 0 0 1-2.667 2.667h-90.666a2.667 2.667 0 0 1-2.667-2.667zM8 381.333A5.333 5.333 0 0 1 13.333 376h21.334A5.333 5.333 0 0 1 40 381.333v21.334A5.333 5.333 0 0 1 34.667 408H13.333A5.333 5.333 0 0 1 8 402.667z"/><path fill="#2b4b76" d="M136 295.5c0-8.56 6.94-15.5 15.5-15.5h89a15.5 15.5 0 0 1 15.5 15.5v193c0 8.56-6.94 15.5-15.5 15.5h-89c-8.56 0-15.5-6.94-15.5-15.5z"/><path fill="#60a5d4" d="M248 381.333a5.333 5.333 0 0 1 5.333-5.333h21.334a5.333 5.333 0 0 1 5.333 5.333v21.334a5.333 5.333 0 0 1-5.333 5.333h-21.334a5.333 5.333 0 0 1-5.333-5.333z"/><path fill="#2b4b76" d="M32 347.308C32 310.135 62.135 280 99.308 280h89.384A67.307 67.307 0 0 1 256 347.308v89.384C256 473.865 225.865 504 188.692 504H99.308C62.135 504 32 473.865 32 436.692z"/><path fill="#60a5d4" d="M64 24.5C64 15.389 71.388 8 80.5 8h127A16.5 16.5 0 0 1 224 24.5v151c0 9.112-7.388 16.5-16.5 16.5h-127c-9.112 0-16.5-7.388-16.5-16.5z"/><path fill="#fff" d="M122.894 103.46l1.344-6.438h4.187l-.156.735h-3.312l-.438 2.047h3.39l-.155.734h-3.391l-.61 2.922h-.859zm5.589 0l.984-4.672h.703l-.203.953q.36-.531.703-.781.344-.266.703-.266.235 0 .594.172l-.328.735q-.203-.157-.453-.157-.422 0-.86.47-.437.468-.687 1.671l-.39 1.875h-.766zm3.247-1.766q0-1.375.812-2.265.656-.735 1.735-.735.843 0 1.359.532.516.515.516 1.406 0 .812-.329 1.5-.328.687-.921 1.062-.594.375-1.266.375-.547 0-1-.234-.438-.234-.672-.656-.234-.438-.234-.985zm.797-.078q0 .656.312 1 .328.328.813.328.25 0 .5-.093.25-.11.468-.313.22-.219.36-.484.156-.266.25-.578.14-.438.14-.844 0-.625-.328-.969-.312-.36-.797-.36-.375 0-.687.188-.297.172-.547.516-.25.344-.375.797-.11.453-.11.812zm4.25 1.844l.984-4.672h.72l-.173.813q.469-.47.875-.688.406-.219.828-.219.578 0 .891.313.328.297.328.812 0 .25-.11.813l-.593 2.828h-.797l.625-2.953q.078-.438.078-.64 0-.235-.156-.376-.156-.156-.469-.156-.61 0-1.094.453-.468.438-.687 1.5l-.453 2.172h-.797zm7.047-.64l-.125.64q-.297.078-.562.078-.469 0-.75-.234-.219-.172-.219-.485 0-.14.125-.703l.562-2.703h-.625l.125-.625h.625l.25-1.14.907-.547-.36 1.687h.782l-.125.625h-.782l-.547 2.578q-.093.485-.093.578 0 .141.078.22.078.077.265.077.266 0 .47-.047zm4.512.64l-.766-4.672h.766l.406 2.578q.062.422.156 1.375.235-.5.578-1.14l1.563-2.813h.844l-2.672 4.672h-.875zm4.601-5.547l.203-.89h.782l-.188.89h-.797zm-1.156 5.547l.984-4.672h.797l-.984 4.672h-.797zm5.541-1.594l.766.094q-.172.563-.766 1.094-.594.515-1.437.515-.516 0-.953-.234-.422-.25-.657-.703-.218-.453-.218-1.047 0-.766.343-1.484.36-.72.922-1.063.563-.344 1.219-.344.828 0 1.328.516.5.516.5 1.406 0 .344-.062.703h-3.438q-.016.141-.016.25 0 .657.297 1 .313.344.75.344.407 0 .797-.266.39-.265.625-.78zm-2.312-1.156h2.609v-.172q0-.594-.297-.906-.297-.328-.765-.328-.5 0-.922.36-.422.343-.625 1.046zm4.953 2.75l-.484-4.672h.765l.204 2.094.093 1.187q0 .125.016.532.14-.454.219-.688.093-.234.297-.687l1.125-2.438h.859l.156 2.344q.031.531.047 1.406.219-.578.703-1.625l1.016-2.125h.781l-2.266 4.672h-.828l-.187-2.734q-.016-.266-.016-1-.187.468-.437 1.015l-1.235 2.719h-.828z"/><path fill="#60a5d4" d="M64 392c0-44.183 35.817-80 80-80a80 80 0 0 1 80 80c0 44.183-35.817 80-80 80s-80-35.817-80-80z"/><path fill="#fff" d="M127.384 353.391l1.187-5.703h-2.11l.157-.734h5.063l-.157.734h-2.093l-1.188 5.703h-.86zm4.088-1.765q0-1.375.813-2.266.656-.734 1.734-.734.844 0 1.36.531.515.516.515 1.406 0 .813-.328 1.5-.328.688-.922 1.063-.593.375-1.265.375-.547 0-1-.235-.438-.234-.672-.656-.235-.437-.235-.984zm.797-.078q0 .656.313 1 .328.328.812.328.25 0 .5-.094.25-.11.469-.312.219-.22.36-.485.156-.265.25-.578.14-.437.14-.844 0-.625-.328-.968-.313-.36-.797-.36-.375 0-.687.188-.297.172-.547.515-.25.344-.375.797-.11.453-.11.813zm3.86 3.625l1.344-6.453h.734l-.125.656q.406-.422.719-.578.328-.172.687-.172.672 0 1.11.484.437.485.437 1.39 0 .72-.25 1.329-.234.594-.594.969-.343.36-.703.531-.359.172-.734.172-.844 0-1.297-.86l-.531 2.532h-.797zm1.578-3.688q0 .516.078.719.11.297.36.469t.578.172q.687 0 1.11-.766.421-.781.421-1.578 0-.594-.297-.906-.281-.329-.703-.329-.297 0-.563.157-.25.156-.484.484-.219.313-.36.781-.14.453-.14.797zm7.78 1.906l-.766-4.671h.766l.406 2.578q.062.422.156 1.375.235-.5.578-1.14l1.563-2.813h.844l-2.672 4.671h-.875zm4.601-5.546l.203-.891h.782l-.188.89h-.797zm-1.156 5.546l.984-4.671h.797l-.984 4.671h-.797zm5.541-1.593l.766.093q-.172.563-.766 1.094-.594.516-1.437.516-.516 0-.953-.235-.422-.25-.657-.703-.218-.453-.218-1.047 0-.765.343-1.484.36-.719.922-1.062.563-.344 1.219-.344.828 0 1.328.515.5.516.5 1.407 0 .343-.062.703h-3.438q-.016.14-.016.25 0 .656.297 1 .313.344.75.344.407 0 .797-.266.39-.266.625-.781zm-2.312-1.157h2.609v-.171q0-.594-.297-.907-.297-.328-.765-.328-.5 0-.922.36-.422.343-.625 1.046zm4.953 2.75l-.484-4.671h.765l.203 2.093.094 1.188q0 .125.016.531.14-.453.219-.687.093-.235.296-.688l1.125-2.437h.86l.156 2.343q.031.532.047 1.407.219-.579.703-1.625l1.016-2.125h.781l-2.266 4.671h-.828l-.187-2.734q-.016-.266-.016-1-.187.469-.437 1.016l-1.235 2.718h-.828z"/><path fill="#2b4b76" d="M187.055 448.54c18.523-13.835 29.215-35.034 28.94-57.379-.275-22.344-11.485-43.301-30.343-56.724z"/><path d="M87.431 335.431l113.134 113.134"/><path stroke="#fff" stroke-linejoin="round" stroke-linecap="butt" d="M90.53 338.53l106.937 106.937"/><path fill="#fff" stroke="#fff" stroke-linecap="butt" d="M90.53 338.53h2.362l-4.427-2.065 2.064 4.427zm106.937 106.937h-2.362l4.427 2.065-2.065-4.427z" fill-rule="evenodd"/><path d="M200.569 448.569l39.433 39.433"/><path stroke="#fff" stroke-linejoin="round" stroke-linecap="butt" d="M200.569 448.569l39.433 39.433"/><path d="M160 488h80"/><path stroke="#fff" stroke-linejoin="round" stroke-linecap="butt" d="M160 488h80"/><path d="M152 472h80v16h-80z"/><path fill="#fff" d="M166.26 483.46h-.735v-6.438h.781v2.297q.5-.625 1.282-.625.437 0 .812.172.39.172.64.485.25.312.391.765.141.438.141.938 0 1.203-.594 1.86-.593.655-1.422.655-.828 0-1.296-.687v.578zm-.016-2.375q0 .844.234 1.219.375.61 1 .61.532 0 .907-.454.375-.453.375-1.344 0-.906-.36-1.344-.36-.437-.875-.437-.531 0-.906.453t-.375 1.297zm4.172.047q0-1.297.719-1.922.61-.516 1.469-.516.968 0 1.578.625.61.625.61 1.735 0 .906-.282 1.422-.266.515-.781.812-.516.281-1.125.281-.985 0-1.594-.625-.594-.64-.594-1.812zm.813 0q0 .89.39 1.344.39.437.985.437.593 0 .984-.437.39-.454.39-1.375 0-.86-.39-1.313-.39-.453-.984-.453t-.985.453q-.39.438-.39 1.344zm7.703 2.328v-.594q-.453.703-1.312.703-.547 0-1.016-.312-.469-.313-.734-.86-.25-.546-.25-1.265 0-.703.234-1.266.234-.578.688-.875.468-.297 1.046-.297.422 0 .75.172.329.172.532.469v-2.313h.797v6.438h-.735zm-2.5-2.328q0 .89.375 1.344.375.437.89.437.516 0 .876-.422.375-.422.375-1.297 0-.953-.375-1.406-.375-.453-.906-.453-.532 0-.891.438-.344.437-.344 1.359zm4.626 4.125l-.094-.735q.265.063.453.063.266 0 .422-.094.156-.078.265-.234.063-.125.235-.594.031-.062.078-.187l-1.781-4.688h.859l.969 2.703q.187.516.344 1.078.125-.53.312-1.062l1-2.719h.797l-1.781 4.75q-.282.766-.438 1.063-.219.39-.484.562-.266.188-.656.188-.22 0-.5-.094zm4.789-1.797v-6.438h2.218q.766 0 1.157.094.546.125.937.453.516.438.766 1.11.25.656.25 1.531 0 .734-.172 1.297-.172.562-.438.937-.265.375-.593.594-.313.203-.766.313-.438.109-1.031.109h-2.328zm.859-.766h1.375q.64 0 1-.109.36-.125.578-.344.297-.297.469-.812.172-.516.172-1.235 0-1.015-.328-1.547-.329-.546-.813-.734-.344-.14-1.094-.14h-1.359v4.921zm5.783-4.765v-.906h.797v.906h-.797zm0 5.531v-4.672h.797v4.672h-.797zm5.12-.578q-.438.375-.844.531-.406.156-.875.156-.766 0-1.188-.375-.406-.375-.406-.968 0-.344.156-.625.157-.282.407-.454.25-.171.562-.265.235-.047.703-.11.969-.109 1.422-.28v-.204q0-.484-.219-.672-.312-.281-.906-.281-.562 0-.828.203-.266.188-.39.688l-.766-.094q.094-.5.328-.797.25-.313.703-.469.469-.172 1.063-.172.609 0 .968.141.375.14.547.36.188.202.25.53.047.204.047.72v1.062q0 1.094.047 1.39.047.297.203.563h-.828q-.125-.25-.156-.578zm-.063-1.766q-.437.172-1.297.297-.484.078-.687.172-.203.078-.313.25-.11.172-.11.375 0 .313.235.531.235.203.703.203.454 0 .813-.203.36-.203.531-.547.125-.265.125-.78v-.298zm2.204 2.344v-4.672h.703v.656q.218-.343.578-.547.375-.203.844-.203.515 0 .843.22.328.202.47.593.562-.813 1.437-.813.703 0 1.078.391.375.375.375 1.172v3.203h-.797v-2.938q0-.484-.078-.687-.063-.203-.266-.328-.203-.14-.484-.14-.485 0-.813.327-.328.328-.328 1.047v2.719h-.797v-3.031q0-.531-.187-.797-.188-.266-.625-.266-.344 0-.625.188-.282.172-.407.515-.125.328-.125.97v2.421h-.796zm10.958-1.5l.828.094q-.203.719-.735 1.125-.515.39-1.328.39-1.015 0-1.625-.625-.594-.64-.594-1.78 0-1.173.61-1.813.61-.657 1.578-.657.937 0 1.516.641.593.625.593 1.781v.219h-3.484q.047.766.437 1.172.391.406.985.406.437 0 .734-.219.313-.234.485-.734zm-2.594-1.281h2.61q-.048-.594-.298-.89-.375-.454-.984-.454-.547 0-.922.375-.36.36-.406.969zm6.328 2.078l.11.687q-.344.078-.594.078-.438 0-.672-.14-.234-.14-.344-.36-.093-.218-.093-.921v-2.688h-.579v-.625h.579v-1.156l.796-.469v1.625h.797v.625h-.797v2.719q0 .344.032.437.047.094.14.157.094.062.266.062.14 0 .36-.031zm4.045-.797l.828.094q-.203.719-.734 1.125-.516.39-1.328.39-1.016 0-1.625-.625-.594-.64-.594-1.78 0-1.173.61-1.813.609-.657 1.577-.657.938 0 1.516.641.594.625.594 1.781v.219h-3.485q.047.766.438 1.172.39.406.984.406.438 0 .735-.219.312-.234.484-.734zm-2.594-1.281h2.61q-.047-.594-.297-.89-.375-.454-.985-.454-.546 0-.921.375-.36.36-.407.969zm4.579 2.781v-4.672h.719v.719q.265-.5.5-.656.234-.157.515-.157.39 0 .813.25l-.282.735q-.28-.172-.578-.172-.25 0-.468.156-.204.156-.297.438-.125.421-.125.921v2.438h-.797z"/><path d="M120 544v-24"/><path stroke="#000" stroke-linejoin="round" stroke-linecap="butt" d="M120 544v-24"/><path d="M168 544v-24"/><path stroke="#000" stroke-linejoin="round" stroke-linecap="butt" d="M168 544v-24"/><path d="M168 512h64v16h-64z"/><path fill="#000" d="M178.535 523.46v-6.438h.782v6.438h-.782zm5.276-1.5l.828.094q-.203.719-.734 1.125-.516.39-1.328.39-1.016 0-1.625-.625-.594-.64-.594-1.78 0-1.173.61-1.813.609-.657 1.577-.657.938 0 1.516.641.594.625.594 1.781v.219h-3.485q.047.766.438 1.172.39.406.984.406.438 0 .735-.219.312-.234.484-.734zm-2.594-1.281h2.61q-.047-.594-.297-.89-.375-.454-.985-.454-.547 0-.922.375-.359.36-.406.969zm7.641 2.203q-.437.375-.844.531-.406.156-.875.156-.765 0-1.187-.375-.406-.375-.406-.968 0-.344.156-.625.156-.282.406-.453.25-.172.563-.266.234-.047.703-.11.969-.109 1.422-.28v-.204q0-.484-.22-.672-.312-.281-.905-.281-.563 0-.828.203-.266.188-.391.688l-.766-.094q.094-.5.328-.797.25-.313.704-.469.468-.172 1.062-.172.61 0 .969.141.375.14.547.36.187.202.25.53.047.204.047.72v1.062q0 1.094.046 1.39.047.297.204.563h-.829q-.125-.25-.156-.578zm-.062-1.766q-.438.172-1.297.297-.485.078-.688.172-.203.078-.312.25-.11.172-.11.375 0 .313.235.531.234.203.703.203.453 0 .812-.203.36-.203.532-.547.125-.265.125-.78v-.298zm5.234 2.344v-.594q-.453.703-1.312.703-.547 0-1.016-.312-.468-.313-.734-.86-.25-.546-.25-1.265 0-.703.234-1.266.235-.578.688-.875.469-.297 1.047-.297.422 0 .75.172t.53.469v-2.313h.798v6.438h-.735zm-2.5-2.328q0 .89.375 1.344.375.437.891.437t.875-.422q.375-.422.375-1.297 0-.953-.375-1.406-.375-.453-.906-.453t-.89.438q-.345.437-.345 1.359zm4.47.266l.796-.079q.063.485.266.797.219.313.656.5.438.188.985.188.484 0 .859-.14.375-.141.563-.391.187-.266.187-.563 0-.297-.187-.516-.172-.234-.579-.39-.25-.11-1.14-.313-.89-.218-1.25-.406-.453-.234-.688-.594-.218-.36-.218-.812 0-.485.265-.906.281-.422.813-.641.53-.219 1.187-.219.719 0 1.266.235.547.218.828.671.297.454.328 1.016l-.828.063q-.063-.61-.438-.922-.375-.313-1.125-.313-.765 0-1.125.281-.359.282-.359.688 0 .344.25.562.25.235 1.281.47 1.047.234 1.438.405.562.25.828.657.266.39.266.922 0 .5-.297.968-.297.453-.844.703-.547.25-1.234.25-.875 0-1.47-.25-.593-.265-.937-.765-.328-.516-.343-1.156zm6.409 3.843v-6.453h.719v.61q.25-.36.562-.532.328-.172.797-.172.594 0 1.047.313.453.297.687.86.235.562.235 1.218 0 .719-.266 1.297-.25.578-.734.89-.485.297-1.032.297-.39 0-.703-.171-.312-.172-.515-.422v2.265h-.797zm.719-4.093q0 .906.359 1.343.375.422.89.422.516 0 .891-.437.39-.453.39-1.391 0-.89-.374-1.328-.36-.453-.875-.453-.5 0-.89.484-.391.469-.391 1.36zm7.516 1.734q-.438.375-.844.531-.406.156-.875.156-.766 0-1.188-.375-.406-.375-.406-.968 0-.344.156-.625.157-.282.407-.453.25-.172.562-.266.234-.047.703-.11.969-.109 1.422-.28v-.204q0-.484-.219-.672-.312-.281-.906-.281-.562 0-.828.203-.266.188-.39.688l-.766-.094q.093-.5.328-.797.25-.313.703-.469.469-.172 1.062-.172.61 0 .97.141.374.14.546.36.188.202.25.53.047.204.047.72v1.062q0 1.094.047 1.39.047.297.203.563h-.828q-.125-.25-.156-.578zm-.063-1.766q-.437.172-1.297.297-.484.078-.687.172-.203.078-.313.25-.11.172-.11.375 0 .313.235.531.235.203.703.203.453 0 .813-.203.36-.203.531-.547.125-.265.125-.78v-.298zm5.25.64l.782.095q-.125.812-.657 1.265-.53.453-1.296.453-.954 0-1.532-.625-.578-.625-.578-1.796 0-.766.25-1.329.25-.562.75-.843.516-.282 1.125-.282.75 0 1.235.391.484.375.625 1.078l-.766.125q-.11-.469-.39-.703-.282-.25-.673-.25-.609 0-.984.438-.36.421-.36 1.343 0 .953.36 1.375.36.422.938.422.468 0 .78-.281.313-.281.391-.875zm4.805.204l.828.094q-.203.719-.734 1.125-.516.39-1.328.39-1.016 0-1.625-.625-.594-.64-.594-1.78 0-1.173.61-1.813.609-.657 1.577-.657.938 0 1.516.641.594.625.594 1.781v.219h-3.485q.047.766.438 1.172.39.406.984.406.438 0 .735-.219.312-.234.484-.734zm-2.594-1.281h2.61q-.047-.594-.297-.89-.375-.454-.985-.454-.546 0-.921.375-.36.36-.407.969z"/><path d="M120 528h48"/><path stroke="#000" stroke-linejoin="round" stroke-linecap="butt" d="M124.381 528h39.238"/><path fill="#000" stroke="#000" stroke-linecap="butt" d="M124.381 528l1.67-1.67-4.59 1.67 4.59 1.67zm39.238 0l-1.67 1.67 4.59-1.67-4.59-1.67z" fill-rule="evenodd"/><path d="M224 528h-56"/><path stroke="#000" stroke-linejoin="round" stroke-linecap="butt" d="M224 528h-56"/><path d="M8 640V520"/><path stroke="#000" stroke-linejoin="round" stroke-linecap="butt" d="M8 640V520"/><path d="M8 528h112"/><path stroke="#000" stroke-linejoin="round" stroke-linecap="butt" d="M12.381 528H115.62"/><path fill="#000" stroke="#000" stroke-linecap="butt" d="M12.381 528l1.67-1.67-4.59 1.67 4.59 1.67zm103.238 0l-1.67 1.67 4.59-1.67-4.59-1.67z" fill-rule="evenodd"/><path d="M24 512h80v16H24z"/><path fill="#000" d="M41.495 523.46v-6.438h.78v6.438h-.78zm5.275-1.5l.828.094q-.203.719-.734 1.125-.516.39-1.328.39-1.016 0-1.625-.625-.594-.64-.594-1.78 0-1.173.61-1.813.609-.657 1.578-.657.937 0 1.515.641.594.625.594 1.781v.219H44.13q.046.766.437 1.172.39.406.984.406.438 0 .735-.219.312-.234.484-.734zm-2.594-1.281h2.61q-.047-.594-.297-.89-.375-.454-.984-.454-.547 0-.922.375-.36.36-.407.969zm7.641 2.203q-.437.375-.843.531-.407.156-.875.156-.766 0-1.188-.375-.406-.375-.406-.968 0-.344.156-.625.156-.282.406-.453.25-.172.563-.266.234-.047.703-.11.969-.109 1.422-.28v-.204q0-.484-.219-.672-.312-.281-.906-.281-.563 0-.828.203-.266.188-.39.688l-.766-.094q.093-.5.328-.797.25-.313.703-.469.469-.172 1.062-.172.61 0 .969.141.375.14.547.36.187.202.25.53.047.204.047.72v1.062q0 1.094.047 1.39.047.297.203.563h-.828q-.125-.25-.157-.578zm-.062-1.766q-.438.172-1.297.297-.484.078-.687.172-.204.078-.313.25-.11.172-.11.375 0 .313.235.531.234.203.703.203.453 0 .813-.203.359-.203.53-.547.126-.265.126-.78v-.298zm5.235 2.344v-.594q-.453.703-1.313.703-.547 0-1.015-.312-.47-.313-.735-.86-.25-.546-.25-1.265 0-.703.235-1.266.234-.578.687-.875.469-.297 1.047-.297.422 0 .75.172t.531.469v-2.313h.797v6.438h-.734zm-2.5-2.328q0 .89.375 1.344.375.437.89.437.516 0 .875-.422.375-.422.375-1.297 0-.953-.375-1.406-.375-.453-.906-.453t-.89.438q-.344.437-.344 1.359zm4.719 2.328v-6.438h.86v5.672h3.171v.766h-4.031zm8.313-1.5l.828.094q-.203.719-.735 1.125-.515.39-1.328.39-1.015 0-1.625-.625-.593-.64-.593-1.78 0-1.173.609-1.813.61-.657 1.578-.657.938 0 1.516.641.593.625.593 1.781v.219h-3.484q.047.766.438 1.172.39.406.984.406.437 0 .734-.219.313-.234.485-.734zm-2.594-1.281h2.61q-.048-.594-.298-.89-.375-.454-.984-.454-.547 0-.922.375-.36.36-.406.969zm4.594 2.781v-4.672h.719v.672q.5-.766 1.484-.766.422 0 .766.157.36.14.531.39.172.235.25.578.047.22.047.766v2.875h-.797v-2.844q0-.484-.094-.718-.094-.235-.328-.375-.234-.157-.547-.157-.5 0-.875.328-.36.313-.36 1.22v2.546h-.796zm5.047.39l.766.11q.047.36.265.516.297.218.813.218.547 0 .844-.218.297-.22.406-.61.062-.25.047-1.015-.516.609-1.281.609-.97 0-1.5-.688-.516-.703-.516-1.671 0-.672.234-1.235.25-.562.703-.86.454-.312 1.079-.312.828 0 1.359.657v-.563h.734v4.031q0 1.094-.234 1.547-.219.453-.703.719-.469.266-1.172.266-.844 0-1.36-.375-.5-.375-.484-1.125zm.656-2.812q0 .922.36 1.344.36.422.906.422.547 0 .922-.422t.375-1.313q0-.859-.39-1.296-.376-.438-.907-.438t-.906.438q-.36.421-.36 1.265zm6.407 1.719l.11.687q-.344.079-.594.079-.438 0-.672-.141-.235-.14-.344-.36-.094-.218-.094-.921v-2.688h-.578v-.625h.578v-1.156l.797-.469v1.625h.797v.625h-.797v2.719q0 .344.031.437.047.094.141.157.094.062.266.062.14 0 .36-.031zm.857.703v-6.438h.797v2.313q.547-.64 1.39-.64.517 0 .892.202.39.204.546.563.172.36.172 1.047v2.953h-.781v-2.953q0-.594-.266-.86-.25-.28-.718-.28-.36 0-.672.187-.313.172-.438.484-.125.313-.125.875v2.547h-.797z"/><path d="M304 640h-24"/><path stroke="#000" stroke-linejoin="round" stroke-linecap="butt" d="M304 640h-24"/><path d="M296 640v32"/><path stroke="#000" stroke-linejoin="round" stroke-linecap="butt" d="M296 644.381v23.238"/><path fill="#000" stroke="#000" stroke-linecap="butt" d="M296 644.381l1.67 1.67-1.67-4.59-1.67 4.59zm0 23.238l-1.67-1.67 1.67 4.59 1.67-4.59z" fill-rule="evenodd"/><path d="M304 672h-24"/><path stroke="#000" stroke-linejoin="round" stroke-linecap="butt" d="M304 672h-24"/><path fill="#2b4b76" d="M32 611.308C32 574.135 62.135 544 99.308 544h89.384A67.307 67.307 0 0 1 256 611.308v89.385C256 737.865 225.865 768 188.692 768H99.308C62.135 768 32 737.865 32 700.693z"/><path fill="#000" d="M63.51 662.92h-1.546v-13.594h1.656v4.844q1.062-1.328 2.703-1.328.906 0 1.719.375.812.36 1.328 1.031.531.656.828 1.594.297.937.297 2 0 2.531-1.25 3.922-1.25 1.375-3 1.375t-2.734-1.453v1.234zm-.015-5q0 1.766.469 2.563.797 1.28 2.14 1.28 1.094 0 1.89-.937.798-.953.798-2.844 0-1.921-.766-2.843-.765-.922-1.844-.922-1.093 0-1.89.953-.797.953-.797 2.75z"/><path fill="#2b4b76" d="M136 559.5c0-8.56 6.94-15.5 15.5-15.5h89a15.5 15.5 0 0 1 15.5 15.5v193c0 8.56-6.94 15.5-15.5 15.5h-89c-8.56 0-15.5-6.94-15.5-15.5z"/><path fill="#60a5d4" d="M168 645.333a5.333 5.333 0 0 1 5.333-5.333h101.334a5.333 5.333 0 0 1 5.333 5.333v21.334a5.333 5.333 0 0 1-5.333 5.333H173.333a5.333 5.333 0 0 1-5.333-5.333zm-160 0A5.333 5.333 0 0 1 13.333 640h101.334a5.333 5.333 0 0 1 5.333 5.333v21.334a5.333 5.333 0 0 1-5.333 5.333H13.333A5.333 5.333 0 0 1 8 666.667z"/><path d="M120 544v96"/><path stroke="#fff" stroke-linejoin="round" stroke-linecap="butt" d="M120 544v96"/><path d="M168 544v96"/><path stroke="#fff" stroke-linejoin="round" stroke-linecap="butt" d="M168 544v96"/><path d="M296 112h48v16h-48z"/><path fill="#000" d="M305.594 123.46v-6.438h.797v2.313q.546-.64 1.39-.64.516 0 .89.203.392.203.548.562.172.36.172 1.047v2.953h-.782v-2.953q0-.594-.265-.86-.25-.28-.719-.28-.36 0-.672.187-.312.172-.437.484-.125.313-.125.875v2.547h-.797zm8.375-1.5l.828.094q-.203.718-.734 1.125-.516.39-1.328.39-1.016 0-1.625-.625-.594-.64-.594-1.78 0-1.173.61-1.813.609-.657 1.577-.657.938 0 1.516.641.594.625.594 1.781v.219h-3.485q.047.766.438 1.172.39.406.984.406.438 0 .735-.219.312-.234.484-.734zm-2.594-1.281h2.61q-.047-.594-.297-.89-.375-.454-.985-.454-.546 0-.921.375-.36.36-.407.969zm4.594-2.75v-.907h.797v.907h-.797zm0 5.531v-4.672h.797v4.672h-.797zm1.932.39l.766.11q.047.36.266.516.296.218.812.218.547 0 .844-.218.297-.22.406-.61.063-.25.047-1.015-.516.609-1.281.609-.97 0-1.5-.688-.516-.703-.516-1.671 0-.672.234-1.235.25-.562.704-.86.453-.312 1.078-.312.828 0 1.359.657v-.563h.734v4.031q0 1.094-.234 1.547-.219.453-.703.719-.469.266-1.172.266-.844 0-1.36-.375-.5-.375-.484-1.125zm.657-2.812q0 .922.359 1.344.36.422.906.422.547 0 .922-.422t.375-1.313q0-.859-.39-1.297-.376-.437-.907-.437t-.906.438q-.36.421-.36 1.265zm4.672 2.422v-6.438h.797v2.313q.547-.64 1.39-.64.516 0 .89.203.392.203.548.562.172.36.172 1.047v2.953h-.782v-2.953q0-.594-.265-.86-.25-.28-.719-.28-.36 0-.672.187-.312.172-.437.484-.125.313-.125.875v2.547h-.797zm6.922-.703l.11.687q-.344.078-.594.078-.438 0-.672-.14-.235-.14-.344-.36-.094-.218-.094-.921v-2.688h-.578v-.625h.578v-1.156l.797-.469v1.625h.797v.625h-.797v2.719q0 .344.031.437.047.094.141.157.094.062.266.062.14 0 .359-.031z"/><path d="M296 384h64v16h-64z"/><path fill="#000" d="M306.328 395.46h-.734v-6.438h.781v2.297q.5-.625 1.281-.625.438 0 .813.172.39.172.64.485.25.312.391.765.14.438.14.938 0 1.203-.593 1.86-.594.655-1.422.655t-1.297-.687v.578zm-.016-2.375q0 .844.235 1.219.375.61 1 .61.531 0 .906-.454.375-.453.375-1.344 0-.906-.36-1.344-.359-.437-.874-.437-.532 0-.907.453t-.375 1.297zm4.173.047q0-1.297.718-1.922.61-.516 1.47-.516.968 0 1.577.625.61.625.61 1.735 0 .906-.282 1.422-.265.515-.78.812-.516.281-1.126.281-.984 0-1.594-.625-.593-.64-.593-1.812zm.812 0q0 .89.39 1.344.391.437.985.437t.985-.437q.39-.454.39-1.375 0-.86-.39-1.313-.391-.453-.985-.453t-.984.453q-.39.438-.39 1.344zm7.704 2.328v-.594q-.453.703-1.313.703-.547 0-1.015-.312-.47-.313-.735-.86-.25-.546-.25-1.265 0-.703.235-1.266.234-.578.687-.875.469-.297 1.047-.297.422 0 .75.172t.531.469v-2.313h.797v6.438h-.734zm-2.5-2.328q0 .89.375 1.344.375.437.89.437.516 0 .875-.422.375-.422.375-1.297 0-.953-.375-1.406-.375-.453-.906-.453t-.89.438q-.344.437-.344 1.359zm4.625 4.125l-.094-.735q.266.063.453.063.266 0 .422-.094.157-.078.266-.234.062-.125.234-.594.032-.062.078-.187l-1.78-4.688h.859l.968 2.703q.188.516.344 1.078.125-.53.313-1.062l1-2.719h.796l-1.78 4.75q-.282.766-.438 1.063-.219.39-.485.562-.265.188-.656.188-.219 0-.5-.094zm5.914-1.797l-1.703-6.438h.875l.984 4.22q.157.655.266 1.312.25-1.031.297-1.188l1.219-4.344h1.03l.923 3.25q.344 1.22.5 2.282.125-.61.328-1.39l1-4.142h.86l-1.766 6.438h-.813l-1.36-4.906q-.171-.625-.202-.766-.11.453-.188.766l-1.375 4.906h-.875zm7.586-5.531v-.906h.797v.906h-.797zm0 5.531v-4.672h.797v4.672h-.797zm5.103 0v-.594q-.453.703-1.312.703-.547 0-1.016-.312-.468-.313-.734-.86-.25-.546-.25-1.265 0-.703.234-1.266.235-.578.688-.875.469-.297 1.047-.297.422 0 .75.172t.53.469v-2.313h.798v6.438h-.735zm-2.5-2.328q0 .89.375 1.344.375.437.891.437t.875-.422q.375-.422.375-1.297 0-.953-.375-1.406-.375-.453-.906-.453t-.89.438q-.345.437-.345 1.359zm6.391 1.625l.11.687q-.344.078-.594.078-.437 0-.672-.14-.234-.14-.344-.36-.093-.218-.093-.921v-2.688h-.578v-.625h.578v-1.156l.797-.469v1.625h.796v.625h-.796v2.719q0 .344.03.437.048.094.141.157.094.062.266.062.14 0 .36-.031zm.858.703v-6.438h.797v2.313q.546-.64 1.39-.64.516 0 .89.202.391.204.548.563.172.36.172 1.047v2.953h-.782v-2.953q0-.594-.265-.86-.25-.28-.72-.28-.358 0-.67.187-.313.172-.438.484-.125.313-.125.875v2.547h-.797z"/><path d="M296 648h64v16h-64z"/><path fill="#000" d="M305.578 659.46v-6.438h.781v6.438h-.78zm5.276-1.5l.828.094q-.203.719-.735 1.125-.515.39-1.328.39-1.015 0-1.625-.625-.593-.64-.593-1.78 0-1.173.609-1.813.61-.657 1.578-.657.938 0 1.516.641.593.625.593 1.781v.219h-3.484q.047.766.438 1.172.39.406.984.406.437 0 .734-.219.313-.234.485-.734zm-2.594-1.281h2.61q-.048-.594-.298-.89-.375-.454-.984-.454-.547 0-.922.375-.36.36-.406.969zm7.64 2.203q-.437.375-.843.531-.406.156-.875.156-.765 0-1.187-.375-.407-.375-.407-.968 0-.344.157-.625.156-.282.406-.453.25-.172.562-.266.235-.047.704-.11.968-.109 1.421-.28v-.204q0-.484-.218-.672-.313-.281-.907-.281-.562 0-.828.203-.265.188-.39.688l-.766-.094q.094-.5.328-.797.25-.313.703-.469.469-.172 1.063-.172.61 0 .969.141.375.14.546.36.188.202.25.53.047.204.047.72v1.062q0 1.094.047 1.39.047.297.203.563h-.828q-.125-.25-.156-.578zm-.062-1.766q-.437.172-1.296.297-.485.078-.688.172-.203.078-.312.25-.11.172-.11.375 0 .313.235.531.234.203.703.203.453 0 .812-.203.36-.203.531-.547.125-.265.125-.78v-.298zm5.235 2.344v-.594q-.453.703-1.312.703-.547 0-1.016-.312-.469-.313-.734-.86-.25-.546-.25-1.265 0-.703.234-1.266.234-.578.688-.875.468-.297 1.046-.297.422 0 .75.172.329.172.532.469v-2.313h.797v6.438h-.735zm-2.5-2.328q0 .89.375 1.344.375.437.89.437.516 0 .876-.422.375-.422.375-1.297 0-.953-.375-1.406-.375-.453-.906-.453-.532 0-.891.438-.344.437-.344 1.359zm5.876 2.328l-1.704-6.438h.875l.985 4.22q.156.656.265 1.312.25-1.031.297-1.188l1.219-4.343h1.031l.922 3.25q.344 1.218.5 2.28.125-.609.328-1.39l1-4.14h.86l-1.766 6.437h-.812l-1.36-4.906q-.172-.625-.203-.766l-.187.766-1.375 4.906h-.875zm7.585-5.531v-.906h.797v.906h-.797zm0 5.531v-4.672h.797v4.672h-.797zm5.104 0v-.594q-.453.703-1.313.703-.547 0-1.015-.312-.47-.313-.735-.86-.25-.546-.25-1.265 0-.703.235-1.266.234-.578.687-.875.469-.297 1.047-.297.422 0 .75.172t.531.469v-2.313h.797v6.438h-.734zm-2.5-2.328q0 .89.375 1.344.375.437.89.437.516 0 .875-.422.375-.422.375-1.297 0-.953-.375-1.406-.375-.453-.906-.453t-.89.438q-.344.437-.344 1.359zm6.39 1.625l.11.687q-.344.079-.594.079-.437 0-.672-.141-.234-.14-.343-.36-.094-.218-.094-.921v-2.688h-.578v-.625h.578v-1.156l.797-.469v1.625h.797v.625h-.797v2.719q0 .344.031.437.047.094.14.157.094.062.266.062.141 0 .36-.031zm.858.703v-6.438h.797v2.313q.547-.64 1.39-.64.516 0 .891.202.39.204.547.563.172.36.172 1.047v2.953h-.781v-2.953q0-.594-.266-.86-.25-.28-.719-.28-.36 0-.672.187-.312.172-.437.484-.125.313-.125.875v2.547h-.797z"/><path d="M32 712h224v16H32z"/><path fill="#fff" d="M118.989 723.46l1.344-6.438h2q.546 0 .812.032.422.078.719.265.297.188.453.516.172.328.172.719 0 .531-.297.937-.281.39-.89.61.53.172.78.515.266.344.266.797 0 .547-.312 1.031-.297.485-.813.75-.5.266-1.11.266h-3.124zm1.64-3.688h1.297q.938 0 1.344-.296.422-.313.422-.875 0-.282-.14-.47-.126-.202-.344-.28-.204-.094-.797-.094h-1.36l-.422 2.016zm-.625 2.954h1.47q.577 0 .78-.032.407-.078.657-.234.265-.172.406-.453.156-.281.156-.578 0-.453-.297-.688-.281-.234-1.078-.234h-1.625l-.469 2.219zm5.253-1.032q0-1.375.813-2.265.656-.735 1.734-.735.844 0 1.36.532.515.515.515 1.406 0 .812-.328 1.5-.328.687-.922 1.062-.593.375-1.265.375-.547 0-1-.234-.438-.234-.672-.656-.235-.438-.235-.985zm.797-.078q0 .657.313 1 .328.328.812.328.25 0 .5-.093.25-.11.469-.313.219-.219.36-.484.156-.266.25-.578.14-.438.14-.844 0-.625-.328-.969-.313-.36-.797-.36-.375 0-.687.188-.297.172-.547.516-.25.344-.375.797-.11.453-.11.812zm6.11 1.203l-.125.641q-.297.078-.562.078-.47 0-.75-.234-.22-.172-.22-.485 0-.14.126-.703l.562-2.703h-.625l.125-.625h.625l.25-1.14.907-.547-.36 1.687h.781l-.125.625h-.78l-.548 2.578q-.093.485-.093.578 0 .141.078.22.078.077.265.077.266 0 .469-.047zm2.592 0l-.125.641q-.297.078-.563.078-.469 0-.75-.234-.219-.172-.219-.485 0-.14.125-.703l.563-2.703h-.625l.125-.625h.625l.25-1.14.906-.547-.36 1.687h.782l-.125.625h-.781l-.547 2.578q-.094.485-.094.578 0 .141.078.22.078.077.266.077.266 0 .469-.047zm.873-1.125q0-1.375.812-2.265.656-.735 1.734-.735.844 0 1.36.532.515.515.515 1.406 0 .812-.328 1.5-.328.687-.922 1.062-.593.375-1.265.375-.547 0-1-.234-.438-.234-.672-.656-.234-.438-.234-.985zm.796-.078q0 .657.313 1 .328.328.812.328.25 0 .5-.093.25-.11.47-.313.218-.219.359-.484.156-.266.25-.578.14-.438.14-.844 0-.625-.328-.969-.312-.36-.797-.36-.375 0-.687.188-.297.172-.547.516-.25.344-.375.797-.11.453-.11.812zm4.25 1.844l.97-4.672h.796l-.156.781q.438-.5.781-.687.36-.188.766-.188.438 0 .719.235.297.219.39.64.36-.453.75-.656.391-.219.829-.219.593 0 .875.282.296.265.296.765 0 .219-.093.719l-.64 3h-.798l.64-3.078q.095-.39.095-.547 0-.234-.157-.36-.14-.14-.406-.14-.344 0-.719.219t-.578.578q-.203.344-.36 1.062l-.468 2.266h-.797l.656-3.156q.079-.313.079-.453 0-.235-.157-.375-.14-.141-.359-.141-.344 0-.719.219-.36.219-.594.61-.234.374-.39 1.093l-.453 2.203h-.797zm11.55 0l-.765-4.672h.765l.407 2.578q.062.422.156 1.375.234-.5.578-1.14l1.563-2.813h.843l-2.672 4.672h-.875zm4.602-5.547l.203-.89h.781l-.187.89h-.797zm-1.156 5.547l.984-4.672h.797l-.984 4.672h-.797zm5.54-1.594l.767.094q-.172.563-.766 1.094-.594.515-1.438.515-.515 0-.953-.234-.422-.25-.656-.703-.219-.453-.219-1.047 0-.766.344-1.484.36-.72.922-1.063.562-.344 1.219-.344.828 0 1.328.516.5.516.5 1.406 0 .344-.063.703h-3.437q-.016.141-.016.25 0 .657.297 1 .313.344.75.344.406 0 .797-.265.39-.266.625-.782zm-2.312-1.156h2.61v-.172q0-.594-.297-.906-.297-.328-.766-.328-.5 0-.922.36-.421.343-.625 1.046zm4.954 2.75l-.485-4.672h.766l.203 2.094.094 1.187q0 .125.016.532.14-.453.218-.688.094-.234.297-.687l1.125-2.438h.86l.156 2.344q.031.531.047 1.406.218-.578.703-1.625l1.015-2.125h.782l-2.266 4.672h-.828l-.188-2.734q-.015-.266-.015-1-.188.468-.438 1.015l-1.234 2.719h-.828z"/></g></svg>