<svg viewBox="0.0 0.0 383.0 270.8320209973753" fill="none" stroke-linecap="square" stroke-miterlimit="10" xmlns="http://www.w3.org/2000/svg"><clipPath id="a"><path d="M0 0h383v270.832H0V0z"/></clipPath><g clip-path="url(#a)"><path d="M0 0h383v270.832H0z"/><path fill="#fff" d="M144 40a8 8 0 1 1 16 0 8 8 0 0 1-16 0z"/><path fill="#38761d" d="M8 25.997C8 16.057 16.057 8 25.997 8h332.006A17.997 17.997 0 0 1 376 25.997v220.006c0 9.94-8.057 17.997-17.997 17.997H25.997C16.057 264 8 255.943 8 246.003z"/><path d="M48 80l56-56"/><path stroke="#6aa84f" stroke-linejoin="round" stroke-linecap="butt" d="M48 80l56-56"/><path d="M176 80h64v16h-64z"/><path fill="#fff" d="M187.587 93.241v-6.453h.719v.61q.25-.36.562-.532.329-.172.797-.172.594 0 1.047.313.453.297.688.86.234.562.234 1.218 0 .719-.266 1.297-.25.578-.734.89-.484.297-1.031.297-.39 0-.703-.172-.313-.171-.516-.421v2.265h-.797zm.719-4.094q0 .907.36 1.344.374.422.89.422t.89-.437q.391-.454.391-1.391 0-.89-.375-1.328-.36-.453-.875-.453-.5 0-.89.484-.391.469-.391 1.36zm7.516 1.735q-.438.375-.844.531-.406.156-.875.156-.765 0-1.187-.375-.407-.375-.407-.968 0-.344.157-.625.156-.282.406-.454.25-.171.562-.265.235-.047.704-.11.968-.109 1.421-.28v-.204q0-.484-.218-.672-.313-.281-.907-.281-.562 0-.828.203-.265.188-.39.688l-.766-.094q.094-.5.328-.797.25-.313.703-.469.47-.172 1.063-.172.61 0 .969.141.375.14.546.36.188.203.25.53.047.204.047.72v1.062q0 1.094.047 1.39.047.297.203.563h-.828q-.125-.25-.156-.578zm-.063-1.766q-.437.172-1.296.297-.485.078-.688.172-.203.078-.312.25-.11.172-.11.375 0 .313.235.531.234.203.703.203.453 0 .812-.203.36-.203.531-.547.125-.265.125-.78v-.298zm5.235 2.344v-.594q-.453.703-1.312.703-.547 0-1.016-.312-.469-.313-.734-.86-.25-.546-.25-1.265 0-.703.234-1.266.234-.578.688-.875.468-.297 1.046-.297.422 0 .75.172.329.172.532.469v-2.313h.797v6.438h-.735zm-2.5-2.328q0 .89.375 1.344.375.437.89.437.516 0 .876-.422.375-.422.375-1.297 0-.953-.375-1.406-.375-.453-.906-.453-.532 0-.891.438-.344.437-.344 1.359zm4.47.265l.796-.078q.063.485.266.797.219.313.656.5.438.188.984.188.485 0 .86-.14.375-.142.562-.392.188-.265.188-.562 0-.297-.188-.516-.172-.234-.578-.39-.25-.11-1.14-.313-.891-.219-1.25-.406-.454-.234-.688-.594-.219-.36-.219-.812 0-.485.266-.907.281-.421.812-.64.532-.219 1.188-.219.719 0 1.266.234.546.22.828.672.297.453.328 1.016l-.828.063q-.063-.61-.438-.922-.375-.313-1.125-.313-.765 0-1.125.281-.36.282-.36.688 0 .344.25.562.25.235 1.282.47 1.047.233 1.438.405.562.25.828.657.265.39.265.921 0 .5-.297.97-.296.452-.843.702-.547.25-1.235.25-.875 0-1.468-.25-.594-.265-.938-.765-.328-.516-.344-1.157zm6.409 3.844v-6.453h.718v.61q.25-.36.563-.532.328-.172.797-.172.593 0 1.047.313.453.297.687.86.234.562.234 1.218 0 .719-.265 1.297-.25.578-.735.89-.484.297-1.03.297-.391 0-.704-.172-.312-.171-.516-.421v2.265h-.796zm.718-4.094q0 .907.36 1.344.375.422.89.422.516 0 .891-.437.39-.454.39-1.391 0-.89-.374-1.328-.36-.453-.875-.453-.5 0-.891.484-.39.469-.39 1.36zm7.516 1.735q-.437.375-.843.531-.407.156-.875.156-.766 0-1.188-.375-.406-.375-.406-.968 0-.344.156-.625.156-.282.406-.454.25-.171.563-.265.234-.047.703-.11.969-.109 1.422-.28v-.204q0-.484-.219-.672-.312-.281-.906-.281-.563 0-.828.203-.266.188-.39.688l-.767-.094q.094-.5.329-.797.25-.313.703-.469.468-.172 1.062-.172.61 0 .969.141.375.14.547.36.187.203.25.53.047.204.047.72v1.062q0 1.094.047 1.39.046.297.203.563h-.828q-.125-.25-.157-.578zm-.062-1.766q-.438.172-1.297.297-.484.078-.688.172-.203.078-.312.25-.11.172-.11.375 0 .313.235.531.234.203.703.203.453 0 .813-.203.359-.203.53-.547.126-.265.126-.78v-.298zm5.25.64l.781.095q-.125.812-.656 1.265-.531.453-1.297.453-.953 0-1.53-.625-.579-.625-.579-1.797 0-.765.25-1.328.25-.562.75-.843.516-.282 1.125-.282.75 0 1.234.391.485.375.625 1.078l-.765.125q-.11-.469-.39-.703-.282-.25-.673-.25-.61 0-.984.438-.36.421-.36 1.343 0 .953.36 1.375.36.422.937.422.47 0 .782-.281.312-.281.39-.875zm4.805.204l.828.094q-.203.718-.734 1.125-.516.39-1.328.39-1.016 0-1.625-.625-.594-.64-.594-1.78 0-1.173.61-1.813.609-.657 1.577-.657.938 0 1.516.641.594.625.594 1.781v.219h-3.485q.047.766.438 1.172.39.406.984.406.438 0 .735-.219.312-.234.484-.734zm-2.594-1.281h2.61q-.047-.594-.297-.89-.375-.454-.985-.454-.547 0-.922.375-.359.36-.406.969z"/><path d="M232 96h-56"/><path stroke="#fff" stroke-linejoin="round" stroke-linecap="butt" d="M232 96h-56"/><path d="M16 80h128v16H16z"/><path fill="#fff" d="M60.89 93.241v-6.453h.719v.61q.25-.36.562-.532.328-.172.797-.172.594 0 1.047.313.453.297.687.86.235.562.235 1.218 0 .719-.266 1.297-.25.578-.734.89-.485.297-1.031.297-.391 0-.704-.172-.312-.171-.515-.421v2.265h-.797zm.719-4.094q0 .907.359 1.344.375.422.89.422.516 0 .891-.437.39-.454.39-1.391 0-.89-.374-1.328-.36-.453-.875-.453-.5 0-.89.484-.391.469-.391 1.36zm7.516 1.735q-.438.375-.844.531-.406.156-.875.156-.766 0-1.188-.375-.406-.375-.406-.968 0-.344.156-.625.157-.282.407-.454.25-.171.562-.265.234-.047.703-.11.969-.109 1.422-.28v-.204q0-.484-.219-.672-.312-.281-.906-.281-.562 0-.828.203-.266.188-.39.688l-.766-.094q.093-.5.328-.797.25-.313.703-.469.469-.172 1.062-.172.61 0 .97.141.374.14.546.36.188.203.25.53.047.204.047.72v1.062q0 1.094.047 1.39.047.297.203.563h-.828q-.125-.25-.156-.578zm-.063-1.766q-.437.172-1.297.297-.484.078-.687.172-.203.078-.313.25-.11.172-.11.375 0 .313.235.531.235.203.703.203.453 0 .813-.203.36-.203.531-.547.125-.265.125-.78v-.298zm5.235 2.344v-.594q-.453.703-1.313.703-.547 0-1.015-.312-.469-.313-.735-.86-.25-.546-.25-1.265 0-.703.235-1.266.234-.578.687-.875.469-.297 1.047-.297.422 0 .75.172t.531.469v-2.313h.797v6.438h-.734zm-2.5-2.328q0 .89.375 1.344.375.437.89.437.516 0 .875-.422.375-.422.375-1.297 0-.953-.375-1.406-.375-.453-.906-.453t-.89.438q-.344.437-.344 1.359zm5.875 2.328l-1.703-6.438h.875l.984 4.22q.157.655.266 1.312.25-1.032.297-1.188l1.219-4.344h1.031l.922 3.25q.344 1.22.5 2.282.125-.61.328-1.39l1-4.142h.86l-1.766 6.438h-.813l-1.36-4.906q-.171-.625-.202-.766-.11.453-.188.766l-1.375 4.906h-.875zm7.586-5.531v-.907h.797v.907h-.797zm0 5.531v-4.672h.797v4.672h-.797zm5.103 0v-.594q-.453.703-1.312.703-.547 0-1.016-.312-.468-.313-.734-.86-.25-.546-.25-1.265 0-.703.234-1.266.235-.578.688-.875.469-.297 1.047-.297.422 0 .75.172t.531.469v-2.313h.797v6.438h-.735zm-2.5-2.328q0 .89.375 1.344.375.437.891.437t.875-.422q.375-.422.375-1.297 0-.953-.375-1.406-.375-.453-.906-.453t-.89.438q-.345.437-.345 1.359zm6.391 1.625l.11.687q-.344.078-.594.078-.437 0-.672-.14-.234-.14-.344-.36-.093-.218-.093-.921v-2.688h-.578v-.625h.578v-1.156l.797-.469v1.625h.796v.625h-.796v2.719q0 .344.03.437.048.094.141.157.094.062.266.062.14 0 .36-.031zm.858.703v-6.438h.797v2.313q.547-.64 1.39-.64.516 0 .89.203.392.203.548.562.172.36.172 1.047v2.953h-.782v-2.953q0-.594-.265-.86-.25-.28-.719-.28-.36 0-.672.187-.312.172-.437.484-.125.313-.125.875v2.547h-.797z"/><path d="M328 112h-32"/><path stroke="#fff" stroke-linejoin="round" stroke-linecap="butt" d="M328 112h-32"/><path d="M320 112v48"/><path stroke="#fff" stroke-linejoin="round" stroke-linecap="butt" d="M320 116.381v39.238"/><path fill="#fff" stroke="#fff" stroke-linecap="butt" d="M320 116.381l1.67 1.67-1.67-4.59-1.67 4.59zm0 39.238l-1.67-1.67 1.67 4.59 1.67-4.59z" fill-rule="evenodd"/><path d="M328 160h-32"/><path stroke="#fff" stroke-linejoin="round" stroke-linecap="butt" d="M328 160h-32"/><path d="M320 128h64v16h-64z"/><path fill="#fff" d="M329.594 141.241v-6.453h.719v.61q.25-.36.562-.532.328-.172.797-.172.594 0 1.047.313.453.297.687.86.235.562.235 1.218 0 .719-.266 1.297-.25.578-.734.89-.485.297-1.032.297-.39 0-.703-.172-.312-.171-.515-.421v2.265h-.797zm.719-4.094q0 .907.359 1.344.375.422.89.422.516 0 .891-.437.39-.454.39-1.391 0-.89-.374-1.328-.36-.453-.875-.453-.5 0-.89.484-.392.469-.392 1.36zm7.515 1.735q-.437.375-.843.531-.407.156-.875.156-.766 0-1.188-.375-.406-.375-.406-.968 0-.344.156-.625.156-.282.406-.454.25-.171.563-.265.234-.047.703-.11.969-.109 1.422-.28v-.204q0-.484-.219-.672-.312-.281-.906-.281-.563 0-.828.203-.266.188-.39.688l-.766-.094q.093-.5.328-.797.25-.313.703-.469.469-.172 1.062-.172.61 0 .97.141.374.14.546.36.187.202.25.53.047.204.047.72v1.062q0 1.094.047 1.39.047.297.203.563h-.828q-.125-.25-.157-.578zm-.062-1.766q-.438.172-1.297.297-.484.078-.687.172-.204.078-.313.25-.11.172-.11.375 0 .312.235.531.234.203.703.203.453 0 .813-.203.36-.203.531-.547.125-.265.125-.78v-.298zm5.235 2.344v-.594q-.453.703-1.313.703-.547 0-1.015-.312-.47-.313-.735-.86-.25-.546-.25-1.265 0-.703.235-1.266.234-.578.687-.875.469-.297 1.047-.297.422 0 .75.172t.531.469v-2.313h.797v6.438h-.734zm-2.5-2.328q0 .89.375 1.344.375.437.89.437.516 0 .875-.422.375-.422.375-1.297 0-.953-.375-1.406-.375-.453-.906-.453t-.89.437q-.344.438-.344 1.36zm4.781 2.328v-6.438h.86v2.641h3.343v-2.64h.86v6.437h-.86v-3.031h-3.343v3.031h-.86zm9.8-1.5l.827.094q-.203.718-.734 1.125-.516.39-1.328.39-1.016 0-1.625-.625-.594-.64-.594-1.78 0-1.173.61-1.813.609-.657 1.578-.657.937 0 1.515.641.594.625.594 1.781v.219h-3.484q.047.766.437 1.172.39.406.985.406.437 0 .734-.219.312-.234.484-.734zm-2.594-1.281h2.609q-.047-.594-.297-.89-.375-.454-.984-.454-.547 0-.922.375-.36.36-.406.969zm4.594-2.75v-.907h.797v.907h-.797zm0 5.531v-4.672h.797v4.672h-.797zm1.931.39l.766.11q.047.36.266.516.297.218.812.218.547 0 .844-.218.297-.22.406-.61.063-.25.047-1.015-.516.609-1.281.609-.969 0-1.5-.688-.516-.703-.516-1.671 0-.672.235-1.235.25-.562.703-.86.453-.312 1.078-.312.828 0 1.36.657v-.563h.734v4.031q0 1.094-.235 1.547-.219.453-.703.719-.469.266-1.172.266-.844 0-1.36-.375-.5-.375-.484-1.125zm.657-2.812q0 .922.36 1.344.358.422.905.422t.922-.422q.375-.422.375-1.313 0-.859-.39-1.297-.375-.437-.907-.437-.53 0-.906.437-.36.422-.36 1.266zm4.672 2.422v-6.438h.797v2.313q.547-.64 1.39-.64.516 0 .891.202.39.204.547.563.172.36.172 1.047v2.953h-.781v-2.953q0-.594-.266-.86-.25-.28-.719-.28-.36 0-.672.187-.312.172-.437.484-.125.313-.125.875v2.547h-.797zm6.922-.703l.11.687q-.344.078-.594.078-.438 0-.672-.14-.234-.14-.344-.36-.094-.218-.094-.921v-2.688h-.578v-.625h.578v-1.156l.797-.469v1.625h.797v.625h-.797v2.719q0 .344.032.437.046.094.14.157.094.062.266.062.14 0 .36-.031z"/><path d="M48 456h224v16H48z"/><path fill="#fff" d="M135.254 467.46v-6.438h2.422q.735 0 1.172.204.453.187.703.593.266.407.266.844 0 .422-.234.781-.22.36-.672.594.578.172.89.578.328.406.328.969 0 .453-.203.844-.187.39-.468.61-.282.202-.704.312-.421.109-1.046.109h-2.454zm.86-3.734h1.39q.563 0 .813-.079.328-.093.484-.312.172-.234.172-.563 0-.328-.156-.562-.156-.25-.438-.344-.28-.094-.984-.094h-1.281v1.954zm0 2.968h1.594q.421 0 .593-.03.282-.048.485-.173.203-.125.328-.36.125-.233.125-.546 0-.36-.188-.625-.187-.266-.515-.36-.328-.109-.938-.109h-1.484v2.203zm5.003-1.562q0-1.297.719-1.922.609-.516 1.468-.516.969 0 1.578.625.61.625.61 1.735 0 .906-.281 1.422-.266.515-.782.812-.515.281-1.125.281-.984 0-1.593-.625-.594-.64-.594-1.812zm.812 0q0 .89.39 1.344.392.437.985.437.594 0 .985-.437.39-.454.39-1.375 0-.86-.39-1.313-.391-.453-.985-.453-.593 0-.984.453-.39.438-.39 1.344zm6.407 1.625l.11.687q-.344.078-.594.078-.438 0-.672-.14-.235-.14-.344-.36-.094-.218-.094-.921v-2.688h-.578v-.625h.578v-1.156l.797-.469v1.625h.797v.625h-.797v2.719q0 .344.031.437.047.094.14.157.095.062.267.062.14 0 .359-.031zm2.592 0l.109.687q-.344.078-.594.078-.437 0-.672-.14-.234-.14-.343-.36-.094-.218-.094-.921v-2.688h-.578v-.625h.578v-1.156l.797-.469v1.625h.797v.625h-.797v2.719q0 .344.031.437.047.094.14.157.094.062.266.062.14 0 .36-.031zm.56-1.625q0-1.297.719-1.922.61-.516 1.468-.516.97 0 1.579.625t.609 1.735q0 .906-.281 1.422-.266.515-.782.812-.515.281-1.125.281-.984 0-1.593-.625-.594-.64-.594-1.812zm.812 0q0 .89.391 1.344.39.437.984.437t.985-.437q.39-.454.39-1.375 0-.86-.39-1.313-.39-.453-.985-.453-.593 0-.984.453-.39.438-.39 1.344zm4.673 2.328v-4.672h.703v.656q.219-.343.578-.547.375-.203.844-.203.515 0 .843.22.329.202.47.593.562-.813 1.437-.813.703 0 1.078.391.375.375.375 1.172v3.203h-.797v-2.938q0-.484-.078-.687-.063-.203-.266-.328-.203-.14-.484-.14-.485 0-.813.327-.328.328-.328 1.047v2.719h-.797v-3.031q0-.531-.187-.797-.188-.266-.625-.266-.344 0-.625.188-.281.172-.406.515-.125.328-.125.97v2.421h-.797zm11.659 0l-1.782-4.672h.844l1 2.797q.156.453.297.938.11-.36.297-.876l1.031-2.859h.813l-1.766 4.672h-.734zm3.367-5.531v-.906h.797v.906h-.797zm0 5.531v-4.672h.797v4.672h-.797zm5.26-1.5l.828.094q-.203.719-.734 1.125-.516.39-1.329.39-1.015 0-1.625-.625-.593-.64-.593-1.78 0-1.173.609-1.813.61-.657 1.578-.657.938 0 1.516.641.594.625.594 1.781v.219h-3.485q.047.766.438 1.172.39.406.984.406.438 0 .734-.219.313-.234.485-.734zm-2.594-1.281h2.61q-.047-.594-.297-.89-.375-.454-.985-.454-.547 0-.922.375-.36.36-.406.969zm5.454 2.781l-1.422-4.672h.812l.75 2.703.266 1q.015-.078.25-.969l.734-2.734h.813l.703 2.719.234.89.266-.906.797-2.703h.765l-1.453 4.672h-.812l-.75-2.797-.188-.797-.937 3.594h-.828z"/><path d="M48 192l56 56"/><path stroke="#6aa84f" stroke-linejoin="round" stroke-linecap="butt" d="M48 192l56 56"/><path fill="#f1c232" d="M16 120a8 8 0 0 1 8-8h112a8 8 0 0 1 8 8v32a8 8 0 0 1-8 8H24a8 8 0 0 1-8-8zm160 0a8 8 0 0 1 8-8h112a8 8 0 0 1 8 8v32a8 8 0 0 1-8 8H184a8 8 0 0 1-8-8z"/><path d="M104 24h160"/><path stroke="#6aa84f" stroke-linejoin="round" stroke-linecap="butt" d="M104 24h160"/><path d="M48 80v24"/><path stroke="#6aa84f" stroke-linejoin="round" stroke-linecap="butt" d="M48 80v24"/><path d="M48 168v24"/><path stroke="#6aa84f" stroke-linejoin="round" stroke-linecap="butt" d="M48 168v24"/><path d="M104 248h160"/><path stroke="#6aa84f" stroke-linejoin="round" stroke-linecap="butt" d="M104 248h160"/><path d="M264 24v80"/><path stroke="#6aa84f" stroke-linejoin="round" stroke-linecap="butt" d="M264 24v80"/><path d="M264 168v80"/><path stroke="#6aa84f" stroke-linejoin="round" stroke-linecap="butt" d="M264 168v80"/><path d="M16 96h128"/><path stroke="#fff" stroke-linejoin="round" stroke-linecap="butt" d="M20.381 96H139.62"/><path fill="#fff" stroke="#fff" stroke-linecap="butt" d="M20.381 96l1.67-1.67-4.59 1.67 4.59 1.67zm119.238 0l-1.67 1.67 4.59-1.67-4.59-1.67z" fill-rule="evenodd"/><path d="M144 96h32"/><path stroke="#fff" stroke-linejoin="round" stroke-linecap="butt" d="M148.381 96h23.238"/><path fill="#fff" stroke="#fff" stroke-linecap="butt" d="M148.381 96l1.67-1.67-4.59 1.67 4.59 1.67zm23.238 0l-1.67 1.67 4.59-1.67-4.59-1.67z" fill-rule="evenodd"/><path d="M24 232h64v16H24z"/><path fill="#fff" d="M33.39 243.46l1.344-6.438h2q.547 0 .813.032.422.078.719.265.297.188.453.516.172.328.172.719 0 .531-.297.937-.282.39-.89.61.53.171.78.515.266.344.266.797 0 .547-.313 1.031-.296.485-.812.75-.5.266-1.11.266h-3.124zm1.641-3.688h1.297q.938 0 1.344-.296.422-.313.422-.875 0-.282-.14-.47-.126-.202-.345-.28-.203-.094-.797-.094h-1.359l-.422 2.015zm-.625 2.954h1.469q.578 0 .781-.032.407-.078.657-.234.265-.172.406-.453.156-.281.156-.578 0-.453-.297-.688-.281-.234-1.078-.234h-1.625l-.469 2.219zm5.253-1.032q0-1.375.813-2.265.656-.735 1.734-.735.844 0 1.36.532.515.515.515 1.406 0 .812-.328 1.5-.328.687-.922 1.062-.594.375-1.265.375-.547 0-1-.234-.438-.234-.672-.656-.235-.438-.235-.985zm.797-.078q0 .656.313 1 .328.328.812.328.25 0 .5-.093.25-.11.469-.313.219-.219.36-.484.156-.266.25-.578.14-.438.14-.844 0-.625-.328-.969-.313-.36-.797-.36-.375 0-.688.188-.296.172-.546.516-.25.344-.375.797-.11.453-.11.812zm7.407 1.266q-.422.36-.813.531-.375.156-.812.156-.64 0-1.047-.375-.39-.39-.39-.984 0-.39.171-.688.188-.296.485-.484.296-.187.718-.266.266-.046 1.016-.078.75-.03 1.078-.156.094-.328.094-.547 0-.281-.203-.437-.282-.219-.813-.219-.5 0-.828.234-.312.22-.453.625l-.797-.078q.234-.687.766-1.047.547-.375 1.359-.375.86 0 1.36.407.39.312.39.796 0 .375-.11.875l-.25 1.157q-.124.547-.124.89 0 .235.093.641h-.812q-.063-.234-.078-.578zm.281-1.781q-.156.062-.36.093-.187.032-.624.078-.703.063-.985.157-.281.093-.437.297-.14.203-.14.453 0 .343.218.562.234.203.672.203.39 0 .75-.203.375-.203.578-.578.219-.375.328-1.062zm1.75 2.359l.985-4.672h.703l-.203.953q.36-.531.703-.781.344-.266.703-.266.234 0 .594.172l-.328.735q-.203-.157-.453-.157-.422 0-.86.47-.437.468-.687 1.671l-.391 1.875h-.766zm6.263-.672q-.688.781-1.438.781-.656 0-1.109-.484-.437-.5-.437-1.438 0-.843.343-1.546.36-.704.875-1.047.532-.36 1.063-.36.875 0 1.312.828l.532-2.5h.796l-1.359 6.438h-.719l.141-.672zm-2.188-1.281q0 .484.094.765.094.282.328.47.235.187.563.187.547 0 .984-.563.578-.75.578-1.844 0-.562-.297-.875-.28-.312-.718-.312-.282 0-.516.14-.234.126-.469.438-.234.297-.39.766-.157.468-.157.828z"/><path d="M16 128h128v16H16z"/><path fill="#000" d="M72.092 139.46l1.344-6.438h2.687q.703 0 1.047.157.36.156.578.547.234.39.234.875 0 .406-.171.812-.157.406-.407.688-.25.265-.5.406-.25.125-.547.187-.625.157-1.25.157h-1.609l-.547 2.609h-.86zm1.562-3.344h1.407q.828 0 1.218-.172.391-.187.625-.547.235-.375.235-.78 0-.313-.125-.516-.125-.204-.36-.297-.218-.094-.859-.094h-1.64l-.5 2.406zm7.722 2.766q-.422.36-.812.531-.375.156-.813.156-.64 0-1.047-.375-.39-.39-.39-.984 0-.39.172-.688.187-.296.484-.484.297-.187.719-.266.265-.046 1.015-.078.75-.03 1.078-.156.094-.328.094-.547 0-.281-.203-.437-.281-.219-.812-.219-.5 0-.829.234-.312.22-.453.625l-.797-.078q.235-.687.766-1.047.547-.375 1.36-.375.859 0 1.359.407.39.312.39.796 0 .375-.109.875l-.25 1.157q-.125.547-.125.89 0 .235.094.641h-.813q-.062-.234-.078-.578zm.281-1.781q-.156.062-.359.093-.187.032-.625.078-.703.063-.984.157-.282.093-.438.297-.14.203-.14.453 0 .343.218.562.235.203.672.203.39 0 .75-.203.375-.203.578-.578.219-.375.328-1.062zm4.907 1.687q-.687.781-1.437.781-.657 0-1.11-.484-.437-.5-.437-1.438 0-.843.343-1.546.36-.704.875-1.047.532-.36 1.063-.36.875 0 1.312.828l.532-2.5h.797l-1.36 6.438h-.719l.141-.672zm-2.187-1.281q0 .484.093.765.094.282.328.47.235.187.563.187.547 0 .984-.563.578-.75.578-1.844 0-.562-.296-.875-.282-.312-.72-.312-.28 0-.515.14-.234.126-.469.438-.234.297-.39.766-.156.468-.156.828z"/><path d="M16 88v32"/><path stroke="#fff" stroke-linejoin="round" stroke-linecap="butt" d="M16 88v32"/><path d="M144 88v32"/><path stroke="#fff" stroke-linejoin="round" stroke-linecap="butt" d="M144 88v32"/><path d="M176 88v32"/><path stroke="#fff" stroke-linejoin="round" stroke-linecap="butt" d="M176 88v32"/><path d="M80 160v24"/><path stroke="#fff" stroke-linejoin="round" stroke-linecap="butt" d="M80 160v24"/><path d="M80 176h160"/><path stroke="#fff" stroke-linejoin="round" stroke-linecap="butt" d="M84.381 176H235.62"/><path fill="#fff" stroke="#fff" stroke-linecap="butt" d="M84.381 176l1.67-1.67-4.59 1.67 4.59 1.67zm151.238 0l-1.67 1.67 4.59-1.67-4.59-1.67z" fill-rule="evenodd"/><path d="M240 160v24"/><path stroke="#fff" stroke-linejoin="round" stroke-linecap="butt" d="M240 160v24"/><path d="M80 160h160v16H80z"/><path fill="#fff" d="M134.666 173.241v-6.453h.719v.61q.25-.36.562-.532.328-.172.797-.172.594 0 1.047.313.453.297.687.86.235.562.235 1.218 0 .719-.266 1.297-.25.578-.734.89-.485.297-1.032.297-.39 0-.703-.172-.312-.171-.515-.421v2.265h-.797zm.719-4.094q0 .907.359 1.344.375.422.89.422.516 0 .891-.437.39-.454.39-1.391 0-.89-.374-1.328-.36-.453-.875-.453-.5 0-.89.484-.391.469-.391 1.36zm7.516 1.735q-.438.375-.844.531-.406.156-.875.156-.766 0-1.188-.375-.406-.375-.406-.968 0-.344.156-.625.157-.282.407-.454.25-.171.562-.265.234-.047.703-.11.969-.109 1.422-.28v-.204q0-.484-.219-.672-.312-.281-.906-.281-.562 0-.828.203-.266.188-.39.688l-.766-.094q.093-.5.328-.797.25-.313.703-.469.469-.172 1.062-.172.61 0 .97.141.374.14.546.36.188.202.25.53.047.204.047.72v1.062q0 1.094.047 1.39.047.297.203.563h-.828q-.125-.25-.156-.578zm-.063-1.766q-.437.172-1.297.297-.484.078-.687.172-.203.078-.313.25-.11.172-.11.375 0 .312.235.531.235.203.703.203.453 0 .813-.203.36-.203.531-.547.125-.265.125-.78v-.298zm5.235 2.344v-.594q-.453.703-1.313.703-.547 0-1.015-.312-.47-.313-.735-.86-.25-.546-.25-1.265 0-.703.235-1.266.234-.578.687-.875.469-.297 1.047-.297.422 0 .75.172t.531.469v-2.313h.797v6.438h-.734zm-2.5-2.328q0 .89.375 1.344.375.437.89.437.516 0 .875-.422.375-.422.375-1.297 0-.953-.375-1.406-.375-.453-.906-.453t-.89.437q-.344.438-.344 1.36zm4.75 2.328v-6.438h2.219q.766 0 1.156.094.547.125.938.453.515.438.765 1.11.25.656.25 1.531 0 .734-.172 1.297-.171.562-.437.937t-.594.594q-.312.203-.765.313-.438.109-1.032.109h-2.328zm.86-.766h1.375q.64 0 1-.109.359-.125.578-.344.297-.297.468-.812.172-.516.172-1.235 0-1.015-.328-1.547-.328-.546-.812-.734-.344-.14-1.094-.14h-1.36v4.921zm5.783-4.765v-.907h.797v.907h-.797zm0 5.531v-4.672h.797v4.672h-.797zm1.76-1.39l.781-.126q.063.47.36.72.312.25.843.25.547 0 .813-.22.265-.218.265-.515 0-.282-.234-.422-.172-.11-.813-.281-.875-.22-1.218-.375-.328-.157-.5-.438t-.172-.625q0-.312.14-.578.141-.266.391-.453.188-.125.5-.219.328-.094.688-.094.546 0 .953.157.422.156.625.421.203.266.28.72l-.78.109q-.047-.36-.313-.563-.25-.203-.703-.203-.547 0-.781.187-.235.172-.235.422 0 .157.094.266.094.14.313.219.109.047.687.203.844.219 1.172.36.344.14.531.421.188.266.188.672t-.235.75q-.234.344-.671.547-.422.187-.985.187-.906 0-1.39-.375-.47-.39-.594-1.125zm6.71.687l.11.687q-.344.078-.594.078-.437 0-.672-.14-.234-.14-.343-.36-.094-.218-.094-.921v-2.688h-.578v-.625h.578v-1.156l.797-.469v1.625h.797v.625h-.797v2.719q0 .344.031.437.047.094.14.157.094.062.266.062.141 0 .36-.031zm3.905.125q-.438.375-.844.531-.406.156-.875.156-.765 0-1.187-.375-.407-.375-.407-.968 0-.344.157-.625.156-.282.406-.454.25-.171.562-.265.235-.047.704-.11.968-.109 1.421-.28v-.204q0-.484-.218-.672-.313-.281-.907-.281-.562 0-.828.203-.265.188-.39.688l-.766-.094q.094-.5.328-.797.25-.313.703-.469.469-.172 1.063-.172.61 0 .969.141.375.14.546.36.188.202.25.53.047.204.047.72v1.062q0 1.094.047 1.39.047.297.203.563h-.828q-.125-.25-.156-.578zm-.063-1.766q-.437.172-1.296.297-.485.078-.688.172-.203.078-.312.25-.11.172-.11.375 0 .312.235.531.234.203.703.203.453 0 .812-.203.36-.203.531-.547.125-.265.125-.78v-.298zm2.204 2.344v-4.672h.719v.672q.5-.766 1.484-.766.422 0 .766.157.359.14.53.39.173.235.25.578.048.22.048.766v2.875h-.797v-2.844q0-.484-.094-.719-.094-.234-.328-.375-.234-.156-.547-.156-.5 0-.875.328-.36.313-.36 1.22v2.546h-.796zm8.235-1.703l.78.094q-.124.812-.655 1.265-.532.453-1.297.453-.953 0-1.531-.625-.579-.625-.579-1.797 0-.765.25-1.328.25-.562.75-.843.516-.282 1.125-.282.75 0 1.235.391.484.375.625 1.078l-.766.125q-.11-.469-.39-.703-.282-.25-.672-.25-.61 0-.985.437-.36.422-.36 1.344 0 .953.36 1.375.36.422.938.422.469 0 .781-.281.313-.281.39-.875zm4.804.203l.828.094q-.203.718-.734 1.125-.516.39-1.328.39-1.016 0-1.625-.625-.594-.64-.594-1.78 0-1.173.61-1.813.609-.657 1.578-.657.937 0 1.515.641.594.625.594 1.781v.219h-3.484q.047.766.437 1.172.39.406.985.406.437 0 .734-.219.312-.234.484-.734zm-2.593-1.281h2.609q-.047-.594-.297-.89-.375-.454-.984-.454-.547 0-.922.375-.36.36-.406.969z"/><path d="M16 152v56"/><path stroke="#fff" stroke-linejoin="round" stroke-linecap="butt" d="M16 152v56"/><path d="M80 184h160v16H80z"/><path fill="#fff" d="M141.92 197.241v-6.453h.718v.61q.25-.36.563-.532.328-.172.796-.172.594 0 1.047.313.453.297.688.86.234.562.234 1.218 0 .719-.266 1.297-.25.578-.734.89-.484.297-1.031.297-.39 0-.703-.172-.313-.171-.516-.421v2.265h-.797zm.718-4.094q0 .907.36 1.344.374.422.89.422t.89-.437q.391-.454.391-1.391 0-.89-.375-1.328-.36-.453-.875-.453-.5 0-.89.484-.391.469-.391 1.36zm7.516 1.735q-.438.375-.844.531-.406.156-.875.156-.765 0-1.187-.375-.407-.375-.407-.968 0-.344.157-.625.156-.282.406-.454.25-.171.562-.265.235-.047.704-.11.968-.109 1.421-.28v-.204q0-.484-.218-.672-.313-.281-.907-.281-.562 0-.828.203-.265.188-.39.688l-.766-.094q.094-.5.328-.797.25-.313.703-.469.47-.172 1.063-.172.61 0 .969.141.375.14.546.36.188.202.25.53.047.204.047.72v1.062q0 1.094.047 1.39.047.297.203.563h-.828q-.125-.25-.156-.578zm-.063-1.766q-.437.172-1.296.297-.485.078-.688.172-.203.078-.312.25-.11.172-.11.375 0 .312.235.531.234.203.703.203.453 0 .812-.203.36-.203.531-.547.125-.265.125-.78v-.298zm5.235 2.344v-.594q-.453.703-1.312.703-.547 0-1.016-.312-.469-.313-.734-.86-.25-.546-.25-1.265 0-.703.234-1.266.234-.578.688-.875.468-.297 1.046-.297.422 0 .75.172.329.172.532.469v-2.313h.797v6.438h-.735zm-2.5-2.328q0 .89.375 1.344.375.437.89.437.516 0 .876-.422.375-.422.375-1.297 0-.953-.375-1.406-.375-.453-.906-.453-.532 0-.891.437-.344.438-.344 1.36zm4.47.265l.796-.078q.063.485.266.797.219.313.656.5.438.188.984.188.485 0 .86-.14.375-.142.562-.392.188-.265.188-.562 0-.297-.188-.516-.172-.234-.578-.39-.25-.11-1.14-.313-.891-.219-1.25-.406-.454-.234-.688-.594-.219-.36-.219-.812 0-.485.266-.907.281-.421.812-.64.532-.219 1.188-.219.719 0 1.266.234.546.22.828.672.297.453.328 1.016l-.828.062q-.063-.609-.438-.921-.375-.313-1.125-.313-.765 0-1.125.281-.36.282-.36.688 0 .344.25.562.25.235 1.282.47 1.047.233 1.438.405.562.25.828.657.265.39.265.921 0 .5-.297.97-.296.452-.843.702-.547.25-1.235.25-.875 0-1.468-.25-.594-.265-.938-.765-.328-.516-.344-1.157zm6.409 3.844v-6.453h.718v.61q.25-.36.563-.532.328-.172.797-.172.594 0 1.047.313.453.297.687.86.235.562.235 1.218 0 .719-.266 1.297-.25.578-.734.89-.485.297-1.032.297-.39 0-.703-.172-.312-.171-.515-.421v2.265h-.797zm.718-4.094q0 .907.36 1.344.375.422.89.422.516 0 .891-.437.39-.454.39-1.391 0-.89-.374-1.328-.36-.453-.875-.453-.5 0-.891.484-.39.469-.39 1.36zm7.516 1.735q-.437.375-.843.531-.407.156-.875.156-.766 0-1.188-.375-.406-.375-.406-.968 0-.344.156-.625.156-.282.406-.454.25-.171.563-.265.234-.047.703-.11.969-.109 1.422-.28v-.204q0-.484-.219-.672-.312-.281-.906-.281-.563 0-.828.203-.266.188-.39.688l-.766-.094q.093-.5.328-.797.25-.313.703-.469.469-.172 1.062-.172.61 0 .969.141.375.14.547.36.187.202.25.53.047.204.047.72v1.062q0 1.094.047 1.39.047.297.203.563h-.828q-.125-.25-.157-.578zm-.062-1.766q-.438.172-1.297.297-.484.078-.687.172-.204.078-.313.25-.11.172-.11.375 0 .312.235.531.234.203.703.203.453 0 .813-.203.359-.203.53-.547.126-.265.126-.78v-.298zm2.203 2.344v-4.672h.72v.672q.5-.766 1.484-.766.421 0 .765.157.36.14.531.39.172.235.25.578.047.22.047.766v2.875h-.797v-2.844q0-.484-.093-.719-.094-.234-.328-.375-.235-.156-.547-.156-.5 0-.875.328-.36.313-.36 1.22v2.546h-.797z"/><path d="M16 200h288"/><path stroke="#fff" stroke-linejoin="round" stroke-linecap="butt" d="M20.381 200H299.62"/><path fill="#fff" stroke="#fff" stroke-linecap="butt" d="M20.381 200l1.67-1.67-4.59 1.67 4.59 1.67zm279.238 0l-1.67 1.67 4.59-1.67-4.59-1.67z" fill-rule="evenodd"/><path d="M304 152v56"/><path stroke="#fff" stroke-linejoin="round" stroke-linecap="butt" d="M304 152v56"/></g></svg>