<svg xmlns="http://www.w3.org/2000/svg" width="29" height="23" viewBox="0 0 3222.2245 2555.5581"><title>SVG Picture created as qeda-test.svg date 2017/01/22 02:58:42</title><desc>Picture generated by Eeschema-SVG</desc><rect x="44000" y="29600" width="2000" height="800" rx="0" transform="translate(-43399.593 -28714.863)" fill="#ffffc2" fill-opacity=".6"/><g transform="translate(-43399.593 -28714.863)" fill="none" fill-opacity="0" stroke="#840000" stroke-width="120" stroke-linecap="round" stroke-linejoin="round"><rect x="44000" y="29600" width="2000" height="800" rx="0"/><path d="M44000 30000h2000"/></g><path d="M600.407 1285.137h-500m2500 0h500" fill="none" stroke="#840000" stroke-width="60" stroke-linecap="round" stroke-linejoin="round"/><path d="M1460.407 295.137h-170m0 270v-500h240m260 450l20 20-20 30-20-30 20-20v50m-90-480l40-20h120l50 20 20 50v50l-20 40-20 30-50 20-30 20-20 50v30m-1480 2150h-280m140 0v-500l-50 70-50 50-40 20m480-100l20-20 50-20h120l40 20 30 20 20 50v50l-20 70-290 290h310m310-500h50l50 20 20 20 30 50 20 100v120l-20 90-30 50-20 20-50 30h-50l-40-30-30-20-20-50-20-90v-120l20-100 20-50 30-20 40-20m600 0h-90l-50 20-20 20-50 80-20 90v190l20 50 20 20 50 30h100l40-30 30-20 20-50v-120l-20-50-30-20-40-20h-100l-50 20-20 20-20 50m480 190l70 30h120l40-30 30-20 20-50v-50l-20-40-30-30-40-20-100-30-50-20-20-20-20-50v-50l20-50 20-20 50-20h120l70 20m390 210h-170m0 270v-500h240m190 500v-500m0 230h280m0 270v-500" fill="none" stroke="#008484" stroke-width="60" stroke-linecap="round" stroke-linejoin="round"/></svg>