<svg xmlns="http://www.w3.org/2000/svg" width="50" height="50"><defs><clipPath id="b"><path d="M0 600h800V0H0v600z"/></clipPath><linearGradient x2="1" id="c" gradientUnits="userSpaceOnUse" gradientTransform="scale(73.648 -73.648) rotate(76.759 6.201 .473)"><stop offset="0" stop-color="#1d7fc2"/><stop offset=".994" stop-color="#1d7fc2"/><stop offset="1" stop-color="#1d7fc2"/></linearGradient><clipPath id="d"><path d="M331.587 415.065c-6.708 0-12.144-5.436-12.144-12.141v-82.405c21.797 10.946 55.915 21.157 94.954 27.387 23.196 3.703 45.175 5.528 64.259 5.642v49.376c0 6.705-5.435 12.141-12.145 12.141H331.587z"/></clipPath><linearGradient x2="1" id="a" gradientUnits="userSpaceOnUse" gradientTransform="scale(-70.9022 70.9022) rotate(77.471 -5.89 -1.088)"><stop offset="0" stop-color="#fff" stop-opacity=".3"/><stop offset="1" stop-color="#fff" stop-opacity="0"/></linearGradient><mask id="f"><path d="M-32768 32767h65535v-65535h-65535v65535z" fill="url(#a)"/></mask><linearGradient x2="1" id="e" gradientUnits="userSpaceOnUse" gradientTransform="scale(-70.9022 70.9022) rotate(77.471 -5.89 -1.088)"><stop offset="0" stop-color="#fff"/><stop offset="1" stop-color="#fff"/></linearGradient><clipPath id="g"><path d="M443.533 387.441c-.017-.024-.035-.048-.05-.072l-.046-.075-.044-.078.044.078.046.075c.015.024.033.048.05.072l.054.067-.054-.067"/></clipPath><clipPath id="h"><path d="M0 600h800V0H0v600z"/></clipPath></defs><g clip-path="url(#b)" transform="matrix(1.25 0 0 -1.25 -279.032 266.071)"><path d="M260.174 212.857h-33.897a3.05 3.05 0 0 1-3.051-3.05v-26.922c.43.508.912.957 1.437 1.338a8.73 8.73 0 0 0 1.862 1.027 8.978 8.978 0 0 0 4.066.617l5.048 7.01c1.484.397 3.043.777 4.67 1.133l5.578-2.767a1.72 1.72 0 0 1 .504-.16c.167-.023.33-.021.48.008.152.028.29.082.405.16a.81.81 0 0 1 .271.302.782.782 0 0 1 .082.39 1.009 1.009 0 0 1-.11.403 1.39 1.39 0 0 1-.276.37 1.645 1.645 0 0 1-.418.29l-2.351 1.162a10.211 10.211 0 0 0-.525.281c-.085.05-.168.1-.25.151l-.117.077a123.53 123.53 0 0 0 6.072.989 7.999 7.999 0 0 0 1.52-1.334 6.621 6.621 0 0 0 1.063-1.632c.26-.578.417-1.178.452-1.772a4.03 4.03 0 0 0-.287-1.775 4.2 4.2 0 0 0-.214-.44 3.865 3.865 0 0 0-.586-.787 4.18 4.18 0 0 0-.37-.343 4.743 4.743 0 0 0-.971-.613 5.15 5.15 0 0 0-.566-.232 6.433 6.433 0 0 0-1.272-.29 7.347 7.347 0 0 0-2.067.038 8.777 8.777 0 0 0-.65.126 9.064 9.064 0 0 0-1.284.414c-.21.086-.42.182-.627.285l-3.832 1.924-3.81-6.253c.39-.5.705-1.045.938-1.62a6.575 6.575 0 0 0 .45-1.827c.018-.196.026-.392.027-.59a6.605 6.605 0 0 0-.122-1.332l-.005-.031a7.098 7.098 0 0 0-.727-1.988 7.883 7.883 0 0 0-2.487-2.737h25.947a3.051 3.051 0 0 1 3.051 3.052v33.898a3.05 3.05 0 0 1-3.05 3.05" fill="#2b4b76"/></g><path d="M331.587 415.065c-6.708 0-12.144-5.436-12.144-12.141v-82.405c21.797 10.946 55.915 21.157 94.954 27.387 23.196 3.703 45.175 5.528 64.259 5.642v49.376c0 6.705-5.435 12.141-12.145 12.141H331.587z" fill="url(#c)" transform="matrix(.31404 0 0 -.31404 -100.319 130.348)"/><g clip-path="url(#d)" transform="matrix(.31404 0 0 -.31404 -100.319 130.348)"><path d="M331.587 415.065c-6.708 0-12.144-5.436-12.144-12.141v-82.405c21.797 10.946 55.915 21.157 94.954 27.387 23.196 3.703 45.175 5.528 64.259 5.642v49.376c0 6.705-5.435 12.141-12.145 12.141H331.587z" fill="url(#e)" mask="url(#f)"/></g><g clip-path="url(#g)" transform="matrix(.31404 0 0 -.31404 -100.319 130.348)"><path d="M443.588 387.509a3.963 3.963 0 0 0-.056-.067c-.015-.025-.034-.05-.048-.073-.016-.025-.033-.048-.046-.075-.015-.026-.031-.052-.044-.077.013.025.029.05.044.077.013.027.03.05.046.075.014.024.033.048.048.073l.056.067" fill="#2b2b2a"/></g><g clip-path="url(#h)" transform="matrix(.31404 0 0 -.31404 -100.319 130.348)"><path d="M443.394 387.92c.184.35.482.625.863.818.38.196.844.31 1.366.348a6.177 6.177 0 0 0 1.683-.131 8.22 8.22 0 0 0 1.824-.618 8.076 8.076 0 0 0 1.639-1.02 5.87 5.87 0 0 0 1.164-1.212c.298-.421.499-.852.584-1.27a1.858 1.858 0 0 0-.112-1.176c-.165-.362-.45-.647-.823-.852-.38-.208-.841-.335-1.368-.38a6.044 6.044 0 0 0-1.717.116 8.278 8.278 0 0 0-1.884.633 8.15 8.15 0 0 0-1.673 1.052 5.784 5.784 0 0 0-1.16 1.246c-.288.427-.476.867-.547 1.28-.068.419-.023.814.16 1.166m-24.985-36.848a29.973 29.973 0 0 1-1.888 1.078 28.14 28.14 0 0 1-1.054.537l-8.794 4.29a6.323 6.323 0 0 0-1.542 1.053 4.732 4.732 0 0 0-.983 1.286c-.23.448-.347.91-.348 1.354 0 .442.117.87.367 1.254.245.385.6.694 1.027.92.426.226.925.374 1.468.438a5.77 5.77 0 0 0 1.715-.064 6.878 6.878 0 0 0 1.779-.58l20.41-9.91c4.212.52 8.394.976 12.53 1.373l8.278 18.852c1.65-.246 3.229-.323 4.697-.231 1.456.092 2.8.348 3.985.769 1.17.416 2.189.986 3.005 1.708a6.505 6.505 0 0 1 1.8 2.573c.529 1.386.557 2.916.157 4.485-.394 1.548-1.198 3.14-2.346 4.688-1.132 1.53-2.602 3.023-4.342 4.392a31.046 31.046 0 0 1-5.954 3.64 30.958 30.958 0 0 1-6.603 2.253c-2.157.466-4.242.652-6.148.553-1.92-.095-3.662-.48-5.116-1.145-1.472-.674-2.648-1.643-3.416-2.904a6.434 6.434 0 0 1-.911-3.005c-.058-1.083.13-2.227.54-3.395.415-1.177 1.058-2.377 1.908-3.566a21.865 21.865 0 0 1 3.176-3.496l-6.92-12.871-12.19 5.867a36.388 36.388 0 0 1-3.057 1.296 35.205 35.205 0 0 1-3.087.976 33.596 33.596 0 0 1-5.471.986c-1.81.168-3.582.175-5.287.024a23.734 23.734 0 0 1-4.895-.937c-1.552-.48-2.988-1.12-4.273-1.921a15.284 15.284 0 0 1-1.055-.72 13.3 13.3 0 0 1-.974-.798 12.433 12.433 0 0 1-1.703-1.843 11.577 11.577 0 0 1-2.273-5.495c-.27-1.996-.036-4.09.662-6.186.707-2.125 1.893-4.246 3.515-6.254 1.587-1.964 3.595-3.806 5.955-5.434a493.342 493.342 0 0 0 23.656 4.11" fill="#fff"/><path d="M353.906 283.067a7.06 7.06 0 0 1-1.37 2.57 7.776 7.776 0 0 1-2.435 1.943 8.752 8.752 0 0 1-3.095.928 9.449 9.449 0 0 1-3.194-.203 9.354 9.354 0 0 1-2.952-1.262 8.516 8.516 0 0 1-2.343-2.259 7.483 7.483 0 0 1-1.24-2.893 7.071 7.071 0 0 1 .068-2.982 6.99 6.99 0 0 1 1.324-2.705c.38-.487.84-.925 1.354-1.319a8.28 8.28 0 0 1 1.151-.742 8.812 8.812 0 0 1 3.254-.96 9.507 9.507 0 0 1 6.318 1.671 8.471 8.471 0 0 1 2.267 2.375c.48.761.798 1.563.98 2.368.042.186.084.372.112.56a6.97 6.97 0 0 1-.199 2.91" fill="#2b4b76"/><path d="M354.105 280.157a7.297 7.297 0 0 0-.112-.56 7.568 7.568 0 0 0-.98-2.368 8.471 8.471 0 0 0-2.267-2.375 9.362 9.362 0 0 0-2.991-1.39 9.504 9.504 0 0 0-3.326-.28 8.812 8.812 0 0 0-3.255.96 8.194 8.194 0 0 0-1.151.742 7.43 7.43 0 0 0-1.354 1.318 6.989 6.989 0 0 0-1.393 5.687 7.483 7.483 0 0 0 1.241 2.893 8.516 8.516 0 0 0 2.343 2.26 9.332 9.332 0 0 0 2.952 1.261 9.45 9.45 0 0 0 3.194.204 8.765 8.765 0 0 0 3.096-.929 7.8 7.8 0 0 0 2.435-1.943 7.043 7.043 0 0 0 1.369-2.57 6.987 6.987 0 0 0 .199-2.91m19.026-13.414a28.225 28.225 0 0 1 2.894 7.913c.009.042.013.083.02.126.349 1.775.503 3.55.488 5.303a26.482 26.482 0 0 1-.112 2.344 26.178 26.178 0 0 1-1.789 7.272 26.921 26.921 0 0 1-3.731 6.45l15.164 24.89 15.253-7.658a36.355 36.355 0 0 1 2.495-1.136c.84-.342 1.689-.65 2.545-.927.85-.272 1.711-.513 2.569-.718.859-.2 1.722-.37 2.584-.504a32.826 32.826 0 0 1 2.787-.306 31.247 31.247 0 0 1 2.749-.052c.906.027 1.804.095 2.691.206.879.108 1.75.262 2.604.46.852.192 1.674.425 2.459.697.785.27 1.537.578 2.253.924.718.338 1.398.716 2.047 1.124a18.83 18.83 0 0 1 1.816 1.315 16.627 16.627 0 0 1 2.742 2.868c.39.523.745 1.064 1.064 1.631.317.562.599 1.148.851 1.75.931 2.266 1.285 4.658 1.146 7.065-.141 2.365-.763 4.752-1.801 7.052-1.024 2.272-2.454 4.468-4.232 6.497-1.705 1.945-3.739 3.738-6.047 5.307a481.056 481.056 0 0 1-24.17-3.935c.157-.102.311-.205.468-.306.324-.202.656-.403.993-.6a33.56 33.56 0 0 1 1.025-.576c.349-.184.702-.369 1.063-.545l9.359-4.62a6.524 6.524 0 0 0 1.662-1.158 5.462 5.462 0 0 0 1.099-1.47 4.032 4.032 0 0 0 .438-1.605 3.11 3.11 0 0 0-.324-1.553 3.237 3.237 0 0 0-1.08-1.204 4.24 4.24 0 0 0-1.61-.637 5.797 5.797 0 0 0-1.914-.028 6.812 6.812 0 0 0-2.006.634l-22.204 11.014a415.904 415.904 0 0 1-18.586-4.51l-20.095-27.9a35.729 35.729 0 0 1-8.18-.284 36.049 36.049 0 0 1-8.002-2.174 34.603 34.603 0 0 1-7.41-4.086 32.535 32.535 0 0 1-5.723-5.328v-27.768c0-6.708 5.436-12.147 12.144-12.147h31.647c.624.431 1.24.875 1.833 1.347 3.283 2.615 6.043 5.827 8.064 9.546" fill="#fff"/></g></svg>